%TF.GenerationSoftware,KiCad,Pcbnew,8.0.6*%
%TF.CreationDate,2025-01-28T17:52:03-05:00*%
%TF.ProjectId,SAS-PCB,5341532d-5043-4422-9e6b-696361645f70,rev?*%
%TF.SameCoordinates,Original*%
%TF.FileFunction,Soldermask,Top*%
%TF.FilePolarity,Negative*%
%FSLAX46Y46*%
G04 Gerber Fmt 4.6, Leading zero omitted, Abs format (unit mm)*
G04 Created by KiCad (PCBNEW 8.0.6) date 2025-01-28 17:52:03*
%MOMM*%
%LPD*%
G01*
G04 APERTURE LIST*
%ADD10C,2.154000*%
%ADD11O,1.700000X1.700000*%
%ADD12R,1.700000X1.700000*%
G04 APERTURE END LIST*
D10*
%TO.C,Bouton_4*%
X159500000Y-109500000D03*
X154500000Y-109500000D03*
%TD*%
D11*
%TO.C,R6*%
X136484000Y-92500000D03*
X136484000Y-102500000D03*
%TD*%
D10*
%TO.C,Bouton_3*%
X171000000Y-109500000D03*
X166000000Y-109500000D03*
%TD*%
%TO.C,Bouton_6*%
X136500000Y-109500000D03*
X131500000Y-109500000D03*
%TD*%
D11*
%TO.C,R5*%
X147914000Y-92500000D03*
X147914000Y-102500000D03*
%TD*%
D12*
%TO.C,J5-GPS1*%
X143500000Y-52810000D03*
D11*
X143500000Y-50270000D03*
X143500000Y-47730000D03*
X143500000Y-45190000D03*
%TD*%
D12*
%TO.C,J2-LCD1*%
X179000000Y-72880000D03*
D11*
X179000000Y-75420000D03*
X179000000Y-77960000D03*
X179000000Y-80500000D03*
%TD*%
%TO.C,R7*%
X170200000Y-78000000D03*
X170200000Y-68000000D03*
%TD*%
D10*
%TO.C,Bouton_1*%
X194000000Y-109500000D03*
X189000000Y-109500000D03*
%TD*%
D11*
%TO.C,R4*%
X159598000Y-92500000D03*
X159598000Y-102500000D03*
%TD*%
D12*
%TO.C,J6-cable-plat1*%
X128000000Y-44140000D03*
D11*
X125460000Y-44140000D03*
X128000000Y-46680000D03*
X125460000Y-46680000D03*
X128000000Y-49220000D03*
X125460000Y-49220000D03*
X128000000Y-51760000D03*
X125460000Y-51760000D03*
X128000000Y-54300000D03*
X125460000Y-54300000D03*
X128000000Y-56840000D03*
X125460000Y-56840000D03*
X128000000Y-59380000D03*
X125460000Y-59380000D03*
X128000000Y-61920000D03*
X125460000Y-61920000D03*
X128000000Y-64460000D03*
X125460000Y-64460000D03*
X128000000Y-67000000D03*
X125460000Y-67000000D03*
X128000000Y-69540000D03*
X125460000Y-69540000D03*
X128000000Y-72080000D03*
X125460000Y-72080000D03*
X128000000Y-74620000D03*
X125460000Y-74620000D03*
X128000000Y-77160000D03*
X125460000Y-77160000D03*
X128000000Y-79700000D03*
X125460000Y-79700000D03*
X128000000Y-82240000D03*
X125460000Y-82240000D03*
X128000000Y-84780000D03*
X125460000Y-84780000D03*
X128000000Y-87320000D03*
X125460000Y-87320000D03*
X128000000Y-89860000D03*
X125460000Y-89860000D03*
X128000000Y-92400000D03*
X125460000Y-92400000D03*
%TD*%
%TO.C,R1*%
X194100000Y-102400000D03*
X194100000Y-92400000D03*
%TD*%
D10*
%TO.C,Bouton_5*%
X148000000Y-109500000D03*
X143000000Y-109500000D03*
%TD*%
D12*
%TO.C,J4-BMP280*%
X144500000Y-80010000D03*
D11*
X144500000Y-77470000D03*
X144500000Y-74930000D03*
X144500000Y-72390000D03*
X144500000Y-69850000D03*
X144500000Y-67310000D03*
%TD*%
%TO.C,R3*%
X171028000Y-92536000D03*
X171028000Y-102536000D03*
%TD*%
D10*
%TO.C,Bouton_2*%
X182500000Y-109500000D03*
X177500000Y-109500000D03*
%TD*%
D12*
%TO.C,J3-LCD2*%
X197500000Y-72920000D03*
D11*
X197500000Y-75460000D03*
X197500000Y-78000000D03*
X197500000Y-80540000D03*
%TD*%
%TO.C,R8*%
X160700000Y-78000000D03*
X160700000Y-68000000D03*
%TD*%
D10*
%TO.C,J1_Batt1*%
X203000000Y-65000000D03*
X203000000Y-60000000D03*
%TD*%
D12*
%TO.C,J9-Fan2*%
X191540000Y-43000000D03*
D11*
X189000000Y-43000000D03*
X186460000Y-43000000D03*
X183920000Y-43000000D03*
%TD*%
D10*
%TO.C,J7-RFD900x1*%
X203000000Y-51000000D03*
X203000000Y-46000000D03*
%TD*%
D12*
%TO.C,J8-Fan1*%
X191540000Y-58500000D03*
D11*
X189000000Y-58500000D03*
X186460000Y-58500000D03*
X183920000Y-58500000D03*
%TD*%
%TO.C,R2*%
X182472000Y-102400000D03*
X182472000Y-92400000D03*
%TD*%
M02*
