%TF.GenerationSoftware,KiCad,Pcbnew,8.0.6*%
%TF.CreationDate,2025-01-28T17:51:26-05:00*%
%TF.ProjectId,SAS-PCB,5341532d-5043-4422-9e6b-696361645f70,rev?*%
%TF.SameCoordinates,Original*%
%TF.FileFunction,Drillmap*%
%TF.FilePolarity,Positive*%
%FSLAX45Y45*%
G04 Gerber Fmt 4.5, Leading zero omitted, Abs format (unit mm)*
G04 Created by KiCad (PCBNEW 8.0.6) date 2025-01-28 17:51:26*
%MOMM*%
%LPD*%
G01*
G04 APERTURE LIST*
%ADD10C,0.050000*%
%ADD11C,0.100000*%
%ADD12C,0.200000*%
G04 APERTURE END LIST*
D10*
X11900000Y-11800000D02*
G75*
G02*
X11400000Y-11300000I0J500000D01*
G01*
X12050000Y-11300000D02*
G75*
G02*
X11750000Y-11300000I-150000J0D01*
G01*
X11750000Y-11300000D02*
G75*
G02*
X12050000Y-11300000I150000J0D01*
G01*
X20700000Y-11300000D02*
G75*
G02*
X20400000Y-11300000I-150000J0D01*
G01*
X20400000Y-11300000D02*
G75*
G02*
X20700000Y-11300000I150000J0D01*
G01*
X21050000Y-11300000D02*
G75*
G02*
X20550000Y-11800000I-500000J0D01*
G01*
X20550000Y-11800000D02*
X11900000Y-11800000D01*
X12053553Y-3750000D02*
G75*
G02*
X11753553Y-3750000I-150000J0D01*
G01*
X11753553Y-3750000D02*
G75*
G02*
X12053553Y-3750000I150000J0D01*
G01*
X11400000Y-11300000D02*
X11403553Y-3750000D01*
X11403553Y-3750000D02*
G75*
G02*
X11903553Y-3250003I499997J0D01*
G01*
X11903553Y-3250000D02*
X20550000Y-3250000D01*
X21050000Y-3750000D02*
X21050000Y-11300000D01*
X20700000Y-3750000D02*
G75*
G02*
X20400000Y-3750000I-150000J0D01*
G01*
X20400000Y-3750000D02*
G75*
G02*
X20700000Y-3750000I150000J0D01*
G01*
X20550000Y-3250000D02*
G75*
G02*
X21050000Y-3750000I0J-500000D01*
G01*
X14570000Y-3825000D02*
G75*
G02*
X14270000Y-3825000I-150000J0D01*
G01*
X14270000Y-3825000D02*
G75*
G02*
X14570000Y-3825000I150000J0D01*
G01*
X14570000Y-5980000D02*
G75*
G02*
X14270000Y-5980000I-150000J0D01*
G01*
X14270000Y-5980000D02*
G75*
G02*
X14570000Y-5980000I150000J0D01*
G01*
X17725000Y-3820000D02*
G75*
G02*
X17425000Y-3820000I-150000J0D01*
G01*
X17425000Y-3820000D02*
G75*
G02*
X17725000Y-3820000I150000J0D01*
G01*
X17730000Y-5975000D02*
G75*
G02*
X17430000Y-5975000I-150000J0D01*
G01*
X17430000Y-5975000D02*
G75*
G02*
X17730000Y-5975000I150000J0D01*
G01*
D11*
X15445000Y-6806000D02*
G75*
G02*
X15145000Y-6806000I-150000J0D01*
G01*
X15145000Y-6806000D02*
G75*
G02*
X15445000Y-6806000I150000J0D01*
G01*
X15450000Y-7936000D02*
G75*
G02*
X15150000Y-7936000I-150000J0D01*
G01*
X15150000Y-7936000D02*
G75*
G02*
X15450000Y-7936000I150000J0D01*
G01*
D12*
X11658277Y-12113984D02*
X11658277Y-11913984D01*
X11658277Y-11913984D02*
X11705896Y-11913984D01*
X11705896Y-11913984D02*
X11734467Y-11923508D01*
X11734467Y-11923508D02*
X11753515Y-11942555D01*
X11753515Y-11942555D02*
X11763039Y-11961603D01*
X11763039Y-11961603D02*
X11772562Y-11999698D01*
X11772562Y-11999698D02*
X11772562Y-12028269D01*
X11772562Y-12028269D02*
X11763039Y-12066365D01*
X11763039Y-12066365D02*
X11753515Y-12085412D01*
X11753515Y-12085412D02*
X11734467Y-12104460D01*
X11734467Y-12104460D02*
X11705896Y-12113984D01*
X11705896Y-12113984D02*
X11658277Y-12113984D01*
X11858277Y-12113984D02*
X11858277Y-11980650D01*
X11858277Y-12018746D02*
X11867801Y-11999698D01*
X11867801Y-11999698D02*
X11877324Y-11990174D01*
X11877324Y-11990174D02*
X11896372Y-11980650D01*
X11896372Y-11980650D02*
X11915420Y-11980650D01*
X11982086Y-12113984D02*
X11982086Y-11980650D01*
X11982086Y-11913984D02*
X11972562Y-11923508D01*
X11972562Y-11923508D02*
X11982086Y-11933031D01*
X11982086Y-11933031D02*
X11991610Y-11923508D01*
X11991610Y-11923508D02*
X11982086Y-11913984D01*
X11982086Y-11913984D02*
X11982086Y-11933031D01*
X12105896Y-12113984D02*
X12086848Y-12104460D01*
X12086848Y-12104460D02*
X12077324Y-12085412D01*
X12077324Y-12085412D02*
X12077324Y-11913984D01*
X12210658Y-12113984D02*
X12191610Y-12104460D01*
X12191610Y-12104460D02*
X12182086Y-12085412D01*
X12182086Y-12085412D02*
X12182086Y-11913984D01*
X12439229Y-12113984D02*
X12439229Y-11913984D01*
X12439229Y-11913984D02*
X12505896Y-12056841D01*
X12505896Y-12056841D02*
X12572562Y-11913984D01*
X12572562Y-11913984D02*
X12572562Y-12113984D01*
X12753515Y-12113984D02*
X12753515Y-12009222D01*
X12753515Y-12009222D02*
X12743991Y-11990174D01*
X12743991Y-11990174D02*
X12724943Y-11980650D01*
X12724943Y-11980650D02*
X12686848Y-11980650D01*
X12686848Y-11980650D02*
X12667801Y-11990174D01*
X12753515Y-12104460D02*
X12734467Y-12113984D01*
X12734467Y-12113984D02*
X12686848Y-12113984D01*
X12686848Y-12113984D02*
X12667801Y-12104460D01*
X12667801Y-12104460D02*
X12658277Y-12085412D01*
X12658277Y-12085412D02*
X12658277Y-12066365D01*
X12658277Y-12066365D02*
X12667801Y-12047317D01*
X12667801Y-12047317D02*
X12686848Y-12037793D01*
X12686848Y-12037793D02*
X12734467Y-12037793D01*
X12734467Y-12037793D02*
X12753515Y-12028269D01*
X12848753Y-11980650D02*
X12848753Y-12180650D01*
X12848753Y-11990174D02*
X12867801Y-11980650D01*
X12867801Y-11980650D02*
X12905896Y-11980650D01*
X12905896Y-11980650D02*
X12924943Y-11990174D01*
X12924943Y-11990174D02*
X12934467Y-11999698D01*
X12934467Y-11999698D02*
X12943991Y-12018746D01*
X12943991Y-12018746D02*
X12943991Y-12075888D01*
X12943991Y-12075888D02*
X12934467Y-12094936D01*
X12934467Y-12094936D02*
X12924943Y-12104460D01*
X12924943Y-12104460D02*
X12905896Y-12113984D01*
X12905896Y-12113984D02*
X12867801Y-12113984D01*
X12867801Y-12113984D02*
X12848753Y-12104460D01*
X13029705Y-12094936D02*
X13039229Y-12104460D01*
X13039229Y-12104460D02*
X13029705Y-12113984D01*
X13029705Y-12113984D02*
X13020182Y-12104460D01*
X13020182Y-12104460D02*
X13029705Y-12094936D01*
X13029705Y-12094936D02*
X13029705Y-12113984D01*
X13029705Y-11990174D02*
X13039229Y-11999698D01*
X13039229Y-11999698D02*
X13029705Y-12009222D01*
X13029705Y-12009222D02*
X13020182Y-11999698D01*
X13020182Y-11999698D02*
X13029705Y-11990174D01*
X13029705Y-11990174D02*
X13029705Y-12009222D01*
M02*
