%TF.GenerationSoftware,KiCad,Pcbnew,8.0.6*%
%TF.CreationDate,2025-01-28T17:51:26-05:00*%
%TF.ProjectId,SAS-PCB,5341532d-5043-4422-9e6b-696361645f70,rev?*%
%TF.SameCoordinates,Original*%
%TF.FileFunction,Drillmap*%
%TF.FilePolarity,Positive*%
%FSLAX45Y45*%
G04 Gerber Fmt 4.5, Leading zero omitted, Abs format (unit mm)*
G04 Created by KiCad (PCBNEW 8.0.6) date 2025-01-28 17:51:26*
%MOMM*%
%LPD*%
G01*
G04 APERTURE LIST*
%ADD10C,0.050000*%
%ADD11C,0.100000*%
%ADD12C,0.200000*%
%ADD13C,0.130000*%
G04 APERTURE END LIST*
D10*
X11900000Y-11800000D02*
G75*
G02*
X11400000Y-11300000I0J500000D01*
G01*
X12050000Y-11300000D02*
G75*
G02*
X11750000Y-11300000I-150000J0D01*
G01*
X11750000Y-11300000D02*
G75*
G02*
X12050000Y-11300000I150000J0D01*
G01*
X20700000Y-11300000D02*
G75*
G02*
X20400000Y-11300000I-150000J0D01*
G01*
X20400000Y-11300000D02*
G75*
G02*
X20700000Y-11300000I150000J0D01*
G01*
X21050000Y-11300000D02*
G75*
G02*
X20550000Y-11800000I-500000J0D01*
G01*
X20550000Y-11800000D02*
X11900000Y-11800000D01*
X12053553Y-3750000D02*
G75*
G02*
X11753553Y-3750000I-150000J0D01*
G01*
X11753553Y-3750000D02*
G75*
G02*
X12053553Y-3750000I150000J0D01*
G01*
X11400000Y-11300000D02*
X11403553Y-3750000D01*
X11403553Y-3750000D02*
G75*
G02*
X11903553Y-3250003I499997J0D01*
G01*
X11903553Y-3250000D02*
X20550000Y-3250000D01*
X21050000Y-3750000D02*
X21050000Y-11300000D01*
X20700000Y-3750000D02*
G75*
G02*
X20400000Y-3750000I-150000J0D01*
G01*
X20400000Y-3750000D02*
G75*
G02*
X20700000Y-3750000I150000J0D01*
G01*
X20550000Y-3250000D02*
G75*
G02*
X21050000Y-3750000I0J-500000D01*
G01*
X14570000Y-3825000D02*
G75*
G02*
X14270000Y-3825000I-150000J0D01*
G01*
X14270000Y-3825000D02*
G75*
G02*
X14570000Y-3825000I150000J0D01*
G01*
X14570000Y-5980000D02*
G75*
G02*
X14270000Y-5980000I-150000J0D01*
G01*
X14270000Y-5980000D02*
G75*
G02*
X14570000Y-5980000I150000J0D01*
G01*
X17725000Y-3820000D02*
G75*
G02*
X17425000Y-3820000I-150000J0D01*
G01*
X17425000Y-3820000D02*
G75*
G02*
X17725000Y-3820000I150000J0D01*
G01*
X17730000Y-5975000D02*
G75*
G02*
X17430000Y-5975000I-150000J0D01*
G01*
X17430000Y-5975000D02*
G75*
G02*
X17730000Y-5975000I150000J0D01*
G01*
D11*
X15445000Y-6806000D02*
G75*
G02*
X15145000Y-6806000I-150000J0D01*
G01*
X15145000Y-6806000D02*
G75*
G02*
X15445000Y-6806000I150000J0D01*
G01*
X15450000Y-7936000D02*
G75*
G02*
X15150000Y-7936000I-150000J0D01*
G01*
X15150000Y-7936000D02*
G75*
G02*
X15450000Y-7936000I150000J0D01*
G01*
D12*
D11*
X12496000Y-4364000D02*
X12596000Y-4464000D01*
X12596000Y-4364000D02*
X12496000Y-4464000D01*
X12496000Y-4618000D02*
X12596000Y-4718000D01*
X12596000Y-4618000D02*
X12496000Y-4718000D01*
X12496000Y-4872000D02*
X12596000Y-4972000D01*
X12596000Y-4872000D02*
X12496000Y-4972000D01*
X12496000Y-5126000D02*
X12596000Y-5226000D01*
X12596000Y-5126000D02*
X12496000Y-5226000D01*
X12496000Y-5380000D02*
X12596000Y-5480000D01*
X12596000Y-5380000D02*
X12496000Y-5480000D01*
X12496000Y-5634000D02*
X12596000Y-5734000D01*
X12596000Y-5634000D02*
X12496000Y-5734000D01*
X12496000Y-5888000D02*
X12596000Y-5988000D01*
X12596000Y-5888000D02*
X12496000Y-5988000D01*
X12496000Y-6142000D02*
X12596000Y-6242000D01*
X12596000Y-6142000D02*
X12496000Y-6242000D01*
X12496000Y-6396000D02*
X12596000Y-6496000D01*
X12596000Y-6396000D02*
X12496000Y-6496000D01*
X12496000Y-6650000D02*
X12596000Y-6750000D01*
X12596000Y-6650000D02*
X12496000Y-6750000D01*
X12496000Y-6904000D02*
X12596000Y-7004000D01*
X12596000Y-6904000D02*
X12496000Y-7004000D01*
X12496000Y-7158000D02*
X12596000Y-7258000D01*
X12596000Y-7158000D02*
X12496000Y-7258000D01*
X12496000Y-7412000D02*
X12596000Y-7512000D01*
X12596000Y-7412000D02*
X12496000Y-7512000D01*
X12496000Y-7666000D02*
X12596000Y-7766000D01*
X12596000Y-7666000D02*
X12496000Y-7766000D01*
X12496000Y-7920000D02*
X12596000Y-8020000D01*
X12596000Y-7920000D02*
X12496000Y-8020000D01*
X12496000Y-8174000D02*
X12596000Y-8274000D01*
X12596000Y-8174000D02*
X12496000Y-8274000D01*
X12496000Y-8428000D02*
X12596000Y-8528000D01*
X12596000Y-8428000D02*
X12496000Y-8528000D01*
X12496000Y-8682000D02*
X12596000Y-8782000D01*
X12596000Y-8682000D02*
X12496000Y-8782000D01*
X12496000Y-8936000D02*
X12596000Y-9036000D01*
X12596000Y-8936000D02*
X12496000Y-9036000D01*
X12496000Y-9190000D02*
X12596000Y-9290000D01*
X12596000Y-9190000D02*
X12496000Y-9290000D01*
X12750000Y-4364000D02*
X12850000Y-4464000D01*
X12850000Y-4364000D02*
X12750000Y-4464000D01*
X12750000Y-4618000D02*
X12850000Y-4718000D01*
X12850000Y-4618000D02*
X12750000Y-4718000D01*
X12750000Y-4872000D02*
X12850000Y-4972000D01*
X12850000Y-4872000D02*
X12750000Y-4972000D01*
X12750000Y-5126000D02*
X12850000Y-5226000D01*
X12850000Y-5126000D02*
X12750000Y-5226000D01*
X12750000Y-5380000D02*
X12850000Y-5480000D01*
X12850000Y-5380000D02*
X12750000Y-5480000D01*
X12750000Y-5634000D02*
X12850000Y-5734000D01*
X12850000Y-5634000D02*
X12750000Y-5734000D01*
X12750000Y-5888000D02*
X12850000Y-5988000D01*
X12850000Y-5888000D02*
X12750000Y-5988000D01*
X12750000Y-6142000D02*
X12850000Y-6242000D01*
X12850000Y-6142000D02*
X12750000Y-6242000D01*
X12750000Y-6396000D02*
X12850000Y-6496000D01*
X12850000Y-6396000D02*
X12750000Y-6496000D01*
X12750000Y-6650000D02*
X12850000Y-6750000D01*
X12850000Y-6650000D02*
X12750000Y-6750000D01*
X12750000Y-6904000D02*
X12850000Y-7004000D01*
X12850000Y-6904000D02*
X12750000Y-7004000D01*
X12750000Y-7158000D02*
X12850000Y-7258000D01*
X12850000Y-7158000D02*
X12750000Y-7258000D01*
X12750000Y-7412000D02*
X12850000Y-7512000D01*
X12850000Y-7412000D02*
X12750000Y-7512000D01*
X12750000Y-7666000D02*
X12850000Y-7766000D01*
X12850000Y-7666000D02*
X12750000Y-7766000D01*
X12750000Y-7920000D02*
X12850000Y-8020000D01*
X12850000Y-7920000D02*
X12750000Y-8020000D01*
X12750000Y-8174000D02*
X12850000Y-8274000D01*
X12850000Y-8174000D02*
X12750000Y-8274000D01*
X12750000Y-8428000D02*
X12850000Y-8528000D01*
X12850000Y-8428000D02*
X12750000Y-8528000D01*
X12750000Y-8682000D02*
X12850000Y-8782000D01*
X12850000Y-8682000D02*
X12750000Y-8782000D01*
X12750000Y-8936000D02*
X12850000Y-9036000D01*
X12850000Y-8936000D02*
X12750000Y-9036000D01*
X12750000Y-9190000D02*
X12850000Y-9290000D01*
X12850000Y-9190000D02*
X12750000Y-9290000D01*
X13598400Y-9200000D02*
X13698400Y-9300000D01*
X13698400Y-9200000D02*
X13598400Y-9300000D01*
X13598400Y-10200000D02*
X13698400Y-10300000D01*
X13698400Y-10200000D02*
X13598400Y-10300000D01*
X14300000Y-4469000D02*
X14400000Y-4569000D01*
X14400000Y-4469000D02*
X14300000Y-4569000D01*
X14300000Y-4723000D02*
X14400000Y-4823000D01*
X14400000Y-4723000D02*
X14300000Y-4823000D01*
X14300000Y-4977000D02*
X14400000Y-5077000D01*
X14400000Y-4977000D02*
X14300000Y-5077000D01*
X14300000Y-5231000D02*
X14400000Y-5331000D01*
X14400000Y-5231000D02*
X14300000Y-5331000D01*
X14400000Y-6681000D02*
X14500000Y-6781000D01*
X14500000Y-6681000D02*
X14400000Y-6781000D01*
X14400000Y-6935000D02*
X14500000Y-7035000D01*
X14500000Y-6935000D02*
X14400000Y-7035000D01*
X14400000Y-7189000D02*
X14500000Y-7289000D01*
X14500000Y-7189000D02*
X14400000Y-7289000D01*
X14400000Y-7443000D02*
X14500000Y-7543000D01*
X14500000Y-7443000D02*
X14400000Y-7543000D01*
X14400000Y-7697000D02*
X14500000Y-7797000D01*
X14500000Y-7697000D02*
X14400000Y-7797000D01*
X14400000Y-7951000D02*
X14500000Y-8051000D01*
X14500000Y-7951000D02*
X14400000Y-8051000D01*
X14741400Y-9200000D02*
X14841400Y-9300000D01*
X14841400Y-9200000D02*
X14741400Y-9300000D01*
X14741400Y-10200000D02*
X14841400Y-10300000D01*
X14841400Y-10200000D02*
X14741400Y-10300000D01*
X15909800Y-9200000D02*
X16009800Y-9300000D01*
X16009800Y-9200000D02*
X15909800Y-9300000D01*
X15909800Y-10200000D02*
X16009800Y-10300000D01*
X16009800Y-10200000D02*
X15909800Y-10300000D01*
X16020000Y-6750000D02*
X16120000Y-6850000D01*
X16120000Y-6750000D02*
X16020000Y-6850000D01*
X16020000Y-7750000D02*
X16120000Y-7850000D01*
X16120000Y-7750000D02*
X16020000Y-7850000D01*
X16970000Y-6750000D02*
X17070000Y-6850000D01*
X17070000Y-6750000D02*
X16970000Y-6850000D01*
X16970000Y-7750000D02*
X17070000Y-7850000D01*
X17070000Y-7750000D02*
X16970000Y-7850000D01*
X17052800Y-9203600D02*
X17152800Y-9303600D01*
X17152800Y-9203600D02*
X17052800Y-9303600D01*
X17052800Y-10203600D02*
X17152800Y-10303600D01*
X17152800Y-10203600D02*
X17052800Y-10303600D01*
X17850000Y-7238000D02*
X17950000Y-7338000D01*
X17950000Y-7238000D02*
X17850000Y-7338000D01*
X17850000Y-7492000D02*
X17950000Y-7592000D01*
X17950000Y-7492000D02*
X17850000Y-7592000D01*
X17850000Y-7746000D02*
X17950000Y-7846000D01*
X17950000Y-7746000D02*
X17850000Y-7846000D01*
X17850000Y-8000000D02*
X17950000Y-8100000D01*
X17950000Y-8000000D02*
X17850000Y-8100000D01*
X18197200Y-9190000D02*
X18297200Y-9290000D01*
X18297200Y-9190000D02*
X18197200Y-9290000D01*
X18197200Y-10190000D02*
X18297200Y-10290000D01*
X18297200Y-10190000D02*
X18197200Y-10290000D01*
X18342000Y-4250000D02*
X18442000Y-4350000D01*
X18442000Y-4250000D02*
X18342000Y-4350000D01*
X18342000Y-5800000D02*
X18442000Y-5900000D01*
X18442000Y-5800000D02*
X18342000Y-5900000D01*
X18596000Y-4250000D02*
X18696000Y-4350000D01*
X18696000Y-4250000D02*
X18596000Y-4350000D01*
X18596000Y-5800000D02*
X18696000Y-5900000D01*
X18696000Y-5800000D02*
X18596000Y-5900000D01*
X18850000Y-4250000D02*
X18950000Y-4350000D01*
X18950000Y-4250000D02*
X18850000Y-4350000D01*
X18850000Y-5800000D02*
X18950000Y-5900000D01*
X18950000Y-5800000D02*
X18850000Y-5900000D01*
X19104000Y-4250000D02*
X19204000Y-4350000D01*
X19204000Y-4250000D02*
X19104000Y-4350000D01*
X19104000Y-5800000D02*
X19204000Y-5900000D01*
X19204000Y-5800000D02*
X19104000Y-5900000D01*
X19360000Y-9190000D02*
X19460000Y-9290000D01*
X19460000Y-9190000D02*
X19360000Y-9290000D01*
X19360000Y-10190000D02*
X19460000Y-10290000D01*
X19460000Y-10190000D02*
X19360000Y-10290000D01*
X19700000Y-7242000D02*
X19800000Y-7342000D01*
X19800000Y-7242000D02*
X19700000Y-7342000D01*
X19700000Y-7496000D02*
X19800000Y-7596000D01*
X19800000Y-7496000D02*
X19700000Y-7596000D01*
X19700000Y-7750000D02*
X19800000Y-7850000D01*
X19800000Y-7750000D02*
X19700000Y-7850000D01*
X19700000Y-8004000D02*
X19800000Y-8104000D01*
X19800000Y-8004000D02*
X19700000Y-8104000D01*
D13*
X13215000Y-10950000D02*
G75*
G02*
X13085000Y-10950000I-65000J0D01*
G01*
X13085000Y-10950000D02*
G75*
G02*
X13215000Y-10950000I65000J0D01*
G01*
X13715000Y-10950000D02*
G75*
G02*
X13585000Y-10950000I-65000J0D01*
G01*
X13585000Y-10950000D02*
G75*
G02*
X13715000Y-10950000I65000J0D01*
G01*
X14365000Y-10950000D02*
G75*
G02*
X14235000Y-10950000I-65000J0D01*
G01*
X14235000Y-10950000D02*
G75*
G02*
X14365000Y-10950000I65000J0D01*
G01*
X14865000Y-10950000D02*
G75*
G02*
X14735000Y-10950000I-65000J0D01*
G01*
X14735000Y-10950000D02*
G75*
G02*
X14865000Y-10950000I65000J0D01*
G01*
X15515000Y-10950000D02*
G75*
G02*
X15385000Y-10950000I-65000J0D01*
G01*
X15385000Y-10950000D02*
G75*
G02*
X15515000Y-10950000I65000J0D01*
G01*
X16015000Y-10950000D02*
G75*
G02*
X15885000Y-10950000I-65000J0D01*
G01*
X15885000Y-10950000D02*
G75*
G02*
X16015000Y-10950000I65000J0D01*
G01*
X16665000Y-10950000D02*
G75*
G02*
X16535000Y-10950000I-65000J0D01*
G01*
X16535000Y-10950000D02*
G75*
G02*
X16665000Y-10950000I65000J0D01*
G01*
X17165000Y-10950000D02*
G75*
G02*
X17035000Y-10950000I-65000J0D01*
G01*
X17035000Y-10950000D02*
G75*
G02*
X17165000Y-10950000I65000J0D01*
G01*
X17815000Y-10950000D02*
G75*
G02*
X17685000Y-10950000I-65000J0D01*
G01*
X17685000Y-10950000D02*
G75*
G02*
X17815000Y-10950000I65000J0D01*
G01*
X18315000Y-10950000D02*
G75*
G02*
X18185000Y-10950000I-65000J0D01*
G01*
X18185000Y-10950000D02*
G75*
G02*
X18315000Y-10950000I65000J0D01*
G01*
X18965000Y-10950000D02*
G75*
G02*
X18835000Y-10950000I-65000J0D01*
G01*
X18835000Y-10950000D02*
G75*
G02*
X18965000Y-10950000I65000J0D01*
G01*
X19465000Y-10950000D02*
G75*
G02*
X19335000Y-10950000I-65000J0D01*
G01*
X19335000Y-10950000D02*
G75*
G02*
X19465000Y-10950000I65000J0D01*
G01*
X20365000Y-4600000D02*
G75*
G02*
X20235000Y-4600000I-65000J0D01*
G01*
X20235000Y-4600000D02*
G75*
G02*
X20365000Y-4600000I65000J0D01*
G01*
X20365000Y-5100000D02*
G75*
G02*
X20235000Y-5100000I-65000J0D01*
G01*
X20235000Y-5100000D02*
G75*
G02*
X20365000Y-5100000I65000J0D01*
G01*
X20365000Y-6000000D02*
G75*
G02*
X20235000Y-6000000I-65000J0D01*
G01*
X20235000Y-6000000D02*
G75*
G02*
X20365000Y-6000000I65000J0D01*
G01*
X20365000Y-6500000D02*
G75*
G02*
X20235000Y-6500000I-65000J0D01*
G01*
X20235000Y-6500000D02*
G75*
G02*
X20365000Y-6500000I65000J0D01*
G01*
D12*
X11658277Y-12113984D02*
X11658277Y-11913984D01*
X11658277Y-11913984D02*
X11705896Y-11913984D01*
X11705896Y-11913984D02*
X11734467Y-11923508D01*
X11734467Y-11923508D02*
X11753515Y-11942555D01*
X11753515Y-11942555D02*
X11763039Y-11961603D01*
X11763039Y-11961603D02*
X11772562Y-11999698D01*
X11772562Y-11999698D02*
X11772562Y-12028269D01*
X11772562Y-12028269D02*
X11763039Y-12066365D01*
X11763039Y-12066365D02*
X11753515Y-12085412D01*
X11753515Y-12085412D02*
X11734467Y-12104460D01*
X11734467Y-12104460D02*
X11705896Y-12113984D01*
X11705896Y-12113984D02*
X11658277Y-12113984D01*
X11858277Y-12113984D02*
X11858277Y-11980650D01*
X11858277Y-12018746D02*
X11867801Y-11999698D01*
X11867801Y-11999698D02*
X11877324Y-11990174D01*
X11877324Y-11990174D02*
X11896372Y-11980650D01*
X11896372Y-11980650D02*
X11915420Y-11980650D01*
X11982086Y-12113984D02*
X11982086Y-11980650D01*
X11982086Y-11913984D02*
X11972562Y-11923508D01*
X11972562Y-11923508D02*
X11982086Y-11933031D01*
X11982086Y-11933031D02*
X11991610Y-11923508D01*
X11991610Y-11923508D02*
X11982086Y-11913984D01*
X11982086Y-11913984D02*
X11982086Y-11933031D01*
X12105896Y-12113984D02*
X12086848Y-12104460D01*
X12086848Y-12104460D02*
X12077324Y-12085412D01*
X12077324Y-12085412D02*
X12077324Y-11913984D01*
X12210658Y-12113984D02*
X12191610Y-12104460D01*
X12191610Y-12104460D02*
X12182086Y-12085412D01*
X12182086Y-12085412D02*
X12182086Y-11913984D01*
X12439229Y-12113984D02*
X12439229Y-11913984D01*
X12439229Y-11913984D02*
X12505896Y-12056841D01*
X12505896Y-12056841D02*
X12572562Y-11913984D01*
X12572562Y-11913984D02*
X12572562Y-12113984D01*
X12753515Y-12113984D02*
X12753515Y-12009222D01*
X12753515Y-12009222D02*
X12743991Y-11990174D01*
X12743991Y-11990174D02*
X12724943Y-11980650D01*
X12724943Y-11980650D02*
X12686848Y-11980650D01*
X12686848Y-11980650D02*
X12667801Y-11990174D01*
X12753515Y-12104460D02*
X12734467Y-12113984D01*
X12734467Y-12113984D02*
X12686848Y-12113984D01*
X12686848Y-12113984D02*
X12667801Y-12104460D01*
X12667801Y-12104460D02*
X12658277Y-12085412D01*
X12658277Y-12085412D02*
X12658277Y-12066365D01*
X12658277Y-12066365D02*
X12667801Y-12047317D01*
X12667801Y-12047317D02*
X12686848Y-12037793D01*
X12686848Y-12037793D02*
X12734467Y-12037793D01*
X12734467Y-12037793D02*
X12753515Y-12028269D01*
X12848753Y-11980650D02*
X12848753Y-12180650D01*
X12848753Y-11990174D02*
X12867801Y-11980650D01*
X12867801Y-11980650D02*
X12905896Y-11980650D01*
X12905896Y-11980650D02*
X12924943Y-11990174D01*
X12924943Y-11990174D02*
X12934467Y-11999698D01*
X12934467Y-11999698D02*
X12943991Y-12018746D01*
X12943991Y-12018746D02*
X12943991Y-12075888D01*
X12943991Y-12075888D02*
X12934467Y-12094936D01*
X12934467Y-12094936D02*
X12924943Y-12104460D01*
X12924943Y-12104460D02*
X12905896Y-12113984D01*
X12905896Y-12113984D02*
X12867801Y-12113984D01*
X12867801Y-12113984D02*
X12848753Y-12104460D01*
X13029705Y-12094936D02*
X13039229Y-12104460D01*
X13039229Y-12104460D02*
X13029705Y-12113984D01*
X13029705Y-12113984D02*
X13020182Y-12104460D01*
X13020182Y-12104460D02*
X13029705Y-12094936D01*
X13029705Y-12094936D02*
X13029705Y-12113984D01*
X13029705Y-11990174D02*
X13039229Y-11999698D01*
X13039229Y-11999698D02*
X13029705Y-12009222D01*
X13029705Y-12009222D02*
X13020182Y-11999698D01*
X13020182Y-11999698D02*
X13029705Y-11990174D01*
X13029705Y-11990174D02*
X13029705Y-12009222D01*
D11*
X11297500Y-12392500D02*
X11397500Y-12492500D01*
X11397500Y-12392500D02*
X11297500Y-12492500D01*
D12*
X11763039Y-12533984D02*
X11648753Y-12533984D01*
X11705896Y-12533984D02*
X11705896Y-12333984D01*
X11705896Y-12333984D02*
X11686848Y-12362555D01*
X11686848Y-12362555D02*
X11667801Y-12381603D01*
X11667801Y-12381603D02*
X11648753Y-12391127D01*
X11848753Y-12514936D02*
X11858277Y-12524460D01*
X11858277Y-12524460D02*
X11848753Y-12533984D01*
X11848753Y-12533984D02*
X11839229Y-12524460D01*
X11839229Y-12524460D02*
X11848753Y-12514936D01*
X11848753Y-12514936D02*
X11848753Y-12533984D01*
X11982086Y-12333984D02*
X12001134Y-12333984D01*
X12001134Y-12333984D02*
X12020182Y-12343508D01*
X12020182Y-12343508D02*
X12029705Y-12353031D01*
X12029705Y-12353031D02*
X12039229Y-12372079D01*
X12039229Y-12372079D02*
X12048753Y-12410174D01*
X12048753Y-12410174D02*
X12048753Y-12457793D01*
X12048753Y-12457793D02*
X12039229Y-12495888D01*
X12039229Y-12495888D02*
X12029705Y-12514936D01*
X12029705Y-12514936D02*
X12020182Y-12524460D01*
X12020182Y-12524460D02*
X12001134Y-12533984D01*
X12001134Y-12533984D02*
X11982086Y-12533984D01*
X11982086Y-12533984D02*
X11963039Y-12524460D01*
X11963039Y-12524460D02*
X11953515Y-12514936D01*
X11953515Y-12514936D02*
X11943991Y-12495888D01*
X11943991Y-12495888D02*
X11934467Y-12457793D01*
X11934467Y-12457793D02*
X11934467Y-12410174D01*
X11934467Y-12410174D02*
X11943991Y-12372079D01*
X11943991Y-12372079D02*
X11953515Y-12353031D01*
X11953515Y-12353031D02*
X11963039Y-12343508D01*
X11963039Y-12343508D02*
X11982086Y-12333984D01*
X12172562Y-12333984D02*
X12191610Y-12333984D01*
X12191610Y-12333984D02*
X12210658Y-12343508D01*
X12210658Y-12343508D02*
X12220182Y-12353031D01*
X12220182Y-12353031D02*
X12229705Y-12372079D01*
X12229705Y-12372079D02*
X12239229Y-12410174D01*
X12239229Y-12410174D02*
X12239229Y-12457793D01*
X12239229Y-12457793D02*
X12229705Y-12495888D01*
X12229705Y-12495888D02*
X12220182Y-12514936D01*
X12220182Y-12514936D02*
X12210658Y-12524460D01*
X12210658Y-12524460D02*
X12191610Y-12533984D01*
X12191610Y-12533984D02*
X12172562Y-12533984D01*
X12172562Y-12533984D02*
X12153515Y-12524460D01*
X12153515Y-12524460D02*
X12143991Y-12514936D01*
X12143991Y-12514936D02*
X12134467Y-12495888D01*
X12134467Y-12495888D02*
X12124943Y-12457793D01*
X12124943Y-12457793D02*
X12124943Y-12410174D01*
X12124943Y-12410174D02*
X12134467Y-12372079D01*
X12134467Y-12372079D02*
X12143991Y-12353031D01*
X12143991Y-12353031D02*
X12153515Y-12343508D01*
X12153515Y-12343508D02*
X12172562Y-12333984D01*
X12363039Y-12333984D02*
X12382086Y-12333984D01*
X12382086Y-12333984D02*
X12401134Y-12343508D01*
X12401134Y-12343508D02*
X12410658Y-12353031D01*
X12410658Y-12353031D02*
X12420182Y-12372079D01*
X12420182Y-12372079D02*
X12429705Y-12410174D01*
X12429705Y-12410174D02*
X12429705Y-12457793D01*
X12429705Y-12457793D02*
X12420182Y-12495888D01*
X12420182Y-12495888D02*
X12410658Y-12514936D01*
X12410658Y-12514936D02*
X12401134Y-12524460D01*
X12401134Y-12524460D02*
X12382086Y-12533984D01*
X12382086Y-12533984D02*
X12363039Y-12533984D01*
X12363039Y-12533984D02*
X12343991Y-12524460D01*
X12343991Y-12524460D02*
X12334467Y-12514936D01*
X12334467Y-12514936D02*
X12324943Y-12495888D01*
X12324943Y-12495888D02*
X12315420Y-12457793D01*
X12315420Y-12457793D02*
X12315420Y-12410174D01*
X12315420Y-12410174D02*
X12324943Y-12372079D01*
X12324943Y-12372079D02*
X12334467Y-12353031D01*
X12334467Y-12353031D02*
X12343991Y-12343508D01*
X12343991Y-12343508D02*
X12363039Y-12333984D01*
X12515420Y-12533984D02*
X12515420Y-12400650D01*
X12515420Y-12419698D02*
X12524943Y-12410174D01*
X12524943Y-12410174D02*
X12543991Y-12400650D01*
X12543991Y-12400650D02*
X12572563Y-12400650D01*
X12572563Y-12400650D02*
X12591610Y-12410174D01*
X12591610Y-12410174D02*
X12601134Y-12429222D01*
X12601134Y-12429222D02*
X12601134Y-12533984D01*
X12601134Y-12429222D02*
X12610658Y-12410174D01*
X12610658Y-12410174D02*
X12629705Y-12400650D01*
X12629705Y-12400650D02*
X12658277Y-12400650D01*
X12658277Y-12400650D02*
X12677324Y-12410174D01*
X12677324Y-12410174D02*
X12686848Y-12429222D01*
X12686848Y-12429222D02*
X12686848Y-12533984D01*
X12782086Y-12533984D02*
X12782086Y-12400650D01*
X12782086Y-12419698D02*
X12791610Y-12410174D01*
X12791610Y-12410174D02*
X12810658Y-12400650D01*
X12810658Y-12400650D02*
X12839229Y-12400650D01*
X12839229Y-12400650D02*
X12858277Y-12410174D01*
X12858277Y-12410174D02*
X12867801Y-12429222D01*
X12867801Y-12429222D02*
X12867801Y-12533984D01*
X12867801Y-12429222D02*
X12877324Y-12410174D01*
X12877324Y-12410174D02*
X12896372Y-12400650D01*
X12896372Y-12400650D02*
X12924943Y-12400650D01*
X12924943Y-12400650D02*
X12943991Y-12410174D01*
X12943991Y-12410174D02*
X12953515Y-12429222D01*
X12953515Y-12429222D02*
X12953515Y-12533984D01*
X13343991Y-12324460D02*
X13172563Y-12581603D01*
X13601134Y-12333984D02*
X13620182Y-12333984D01*
X13620182Y-12333984D02*
X13639229Y-12343508D01*
X13639229Y-12343508D02*
X13648753Y-12353031D01*
X13648753Y-12353031D02*
X13658277Y-12372079D01*
X13658277Y-12372079D02*
X13667801Y-12410174D01*
X13667801Y-12410174D02*
X13667801Y-12457793D01*
X13667801Y-12457793D02*
X13658277Y-12495888D01*
X13658277Y-12495888D02*
X13648753Y-12514936D01*
X13648753Y-12514936D02*
X13639229Y-12524460D01*
X13639229Y-12524460D02*
X13620182Y-12533984D01*
X13620182Y-12533984D02*
X13601134Y-12533984D01*
X13601134Y-12533984D02*
X13582086Y-12524460D01*
X13582086Y-12524460D02*
X13572563Y-12514936D01*
X13572563Y-12514936D02*
X13563039Y-12495888D01*
X13563039Y-12495888D02*
X13553515Y-12457793D01*
X13553515Y-12457793D02*
X13553515Y-12410174D01*
X13553515Y-12410174D02*
X13563039Y-12372079D01*
X13563039Y-12372079D02*
X13572563Y-12353031D01*
X13572563Y-12353031D02*
X13582086Y-12343508D01*
X13582086Y-12343508D02*
X13601134Y-12333984D01*
X13753515Y-12514936D02*
X13763039Y-12524460D01*
X13763039Y-12524460D02*
X13753515Y-12533984D01*
X13753515Y-12533984D02*
X13743991Y-12524460D01*
X13743991Y-12524460D02*
X13753515Y-12514936D01*
X13753515Y-12514936D02*
X13753515Y-12533984D01*
X13886848Y-12333984D02*
X13905896Y-12333984D01*
X13905896Y-12333984D02*
X13924944Y-12343508D01*
X13924944Y-12343508D02*
X13934467Y-12353031D01*
X13934467Y-12353031D02*
X13943991Y-12372079D01*
X13943991Y-12372079D02*
X13953515Y-12410174D01*
X13953515Y-12410174D02*
X13953515Y-12457793D01*
X13953515Y-12457793D02*
X13943991Y-12495888D01*
X13943991Y-12495888D02*
X13934467Y-12514936D01*
X13934467Y-12514936D02*
X13924944Y-12524460D01*
X13924944Y-12524460D02*
X13905896Y-12533984D01*
X13905896Y-12533984D02*
X13886848Y-12533984D01*
X13886848Y-12533984D02*
X13867801Y-12524460D01*
X13867801Y-12524460D02*
X13858277Y-12514936D01*
X13858277Y-12514936D02*
X13848753Y-12495888D01*
X13848753Y-12495888D02*
X13839229Y-12457793D01*
X13839229Y-12457793D02*
X13839229Y-12410174D01*
X13839229Y-12410174D02*
X13848753Y-12372079D01*
X13848753Y-12372079D02*
X13858277Y-12353031D01*
X13858277Y-12353031D02*
X13867801Y-12343508D01*
X13867801Y-12343508D02*
X13886848Y-12333984D01*
X14020182Y-12333984D02*
X14143991Y-12333984D01*
X14143991Y-12333984D02*
X14077325Y-12410174D01*
X14077325Y-12410174D02*
X14105896Y-12410174D01*
X14105896Y-12410174D02*
X14124944Y-12419698D01*
X14124944Y-12419698D02*
X14134467Y-12429222D01*
X14134467Y-12429222D02*
X14143991Y-12448269D01*
X14143991Y-12448269D02*
X14143991Y-12495888D01*
X14143991Y-12495888D02*
X14134467Y-12514936D01*
X14134467Y-12514936D02*
X14124944Y-12524460D01*
X14124944Y-12524460D02*
X14105896Y-12533984D01*
X14105896Y-12533984D02*
X14048753Y-12533984D01*
X14048753Y-12533984D02*
X14029706Y-12524460D01*
X14029706Y-12524460D02*
X14020182Y-12514936D01*
X14239229Y-12533984D02*
X14277325Y-12533984D01*
X14277325Y-12533984D02*
X14296372Y-12524460D01*
X14296372Y-12524460D02*
X14305896Y-12514936D01*
X14305896Y-12514936D02*
X14324944Y-12486365D01*
X14324944Y-12486365D02*
X14334467Y-12448269D01*
X14334467Y-12448269D02*
X14334467Y-12372079D01*
X14334467Y-12372079D02*
X14324944Y-12353031D01*
X14324944Y-12353031D02*
X14315420Y-12343508D01*
X14315420Y-12343508D02*
X14296372Y-12333984D01*
X14296372Y-12333984D02*
X14258277Y-12333984D01*
X14258277Y-12333984D02*
X14239229Y-12343508D01*
X14239229Y-12343508D02*
X14229706Y-12353031D01*
X14229706Y-12353031D02*
X14220182Y-12372079D01*
X14220182Y-12372079D02*
X14220182Y-12419698D01*
X14220182Y-12419698D02*
X14229706Y-12438746D01*
X14229706Y-12438746D02*
X14239229Y-12448269D01*
X14239229Y-12448269D02*
X14258277Y-12457793D01*
X14258277Y-12457793D02*
X14296372Y-12457793D01*
X14296372Y-12457793D02*
X14315420Y-12448269D01*
X14315420Y-12448269D02*
X14324944Y-12438746D01*
X14324944Y-12438746D02*
X14334467Y-12419698D01*
X14505896Y-12400650D02*
X14505896Y-12533984D01*
X14458277Y-12324460D02*
X14410658Y-12467317D01*
X14410658Y-12467317D02*
X14534467Y-12467317D01*
X14601134Y-12333984D02*
X14601134Y-12372079D01*
X14677325Y-12333984D02*
X14677325Y-12372079D01*
X14972563Y-12610174D02*
X14963039Y-12600650D01*
X14963039Y-12600650D02*
X14943991Y-12572079D01*
X14943991Y-12572079D02*
X14934468Y-12553031D01*
X14934468Y-12553031D02*
X14924944Y-12524460D01*
X14924944Y-12524460D02*
X14915420Y-12476841D01*
X14915420Y-12476841D02*
X14915420Y-12438746D01*
X14915420Y-12438746D02*
X14924944Y-12391127D01*
X14924944Y-12391127D02*
X14934468Y-12362555D01*
X14934468Y-12362555D02*
X14943991Y-12343508D01*
X14943991Y-12343508D02*
X14963039Y-12314936D01*
X14963039Y-12314936D02*
X14972563Y-12305412D01*
X15077325Y-12419698D02*
X15058277Y-12410174D01*
X15058277Y-12410174D02*
X15048753Y-12400650D01*
X15048753Y-12400650D02*
X15039229Y-12381603D01*
X15039229Y-12381603D02*
X15039229Y-12372079D01*
X15039229Y-12372079D02*
X15048753Y-12353031D01*
X15048753Y-12353031D02*
X15058277Y-12343508D01*
X15058277Y-12343508D02*
X15077325Y-12333984D01*
X15077325Y-12333984D02*
X15115420Y-12333984D01*
X15115420Y-12333984D02*
X15134468Y-12343508D01*
X15134468Y-12343508D02*
X15143991Y-12353031D01*
X15143991Y-12353031D02*
X15153515Y-12372079D01*
X15153515Y-12372079D02*
X15153515Y-12381603D01*
X15153515Y-12381603D02*
X15143991Y-12400650D01*
X15143991Y-12400650D02*
X15134468Y-12410174D01*
X15134468Y-12410174D02*
X15115420Y-12419698D01*
X15115420Y-12419698D02*
X15077325Y-12419698D01*
X15077325Y-12419698D02*
X15058277Y-12429222D01*
X15058277Y-12429222D02*
X15048753Y-12438746D01*
X15048753Y-12438746D02*
X15039229Y-12457793D01*
X15039229Y-12457793D02*
X15039229Y-12495888D01*
X15039229Y-12495888D02*
X15048753Y-12514936D01*
X15048753Y-12514936D02*
X15058277Y-12524460D01*
X15058277Y-12524460D02*
X15077325Y-12533984D01*
X15077325Y-12533984D02*
X15115420Y-12533984D01*
X15115420Y-12533984D02*
X15134468Y-12524460D01*
X15134468Y-12524460D02*
X15143991Y-12514936D01*
X15143991Y-12514936D02*
X15153515Y-12495888D01*
X15153515Y-12495888D02*
X15153515Y-12457793D01*
X15153515Y-12457793D02*
X15143991Y-12438746D01*
X15143991Y-12438746D02*
X15134468Y-12429222D01*
X15134468Y-12429222D02*
X15115420Y-12419698D01*
X15229706Y-12353031D02*
X15239229Y-12343508D01*
X15239229Y-12343508D02*
X15258277Y-12333984D01*
X15258277Y-12333984D02*
X15305896Y-12333984D01*
X15305896Y-12333984D02*
X15324944Y-12343508D01*
X15324944Y-12343508D02*
X15334468Y-12353031D01*
X15334468Y-12353031D02*
X15343991Y-12372079D01*
X15343991Y-12372079D02*
X15343991Y-12391127D01*
X15343991Y-12391127D02*
X15334468Y-12419698D01*
X15334468Y-12419698D02*
X15220182Y-12533984D01*
X15220182Y-12533984D02*
X15343991Y-12533984D01*
X15582087Y-12533984D02*
X15582087Y-12333984D01*
X15667801Y-12533984D02*
X15667801Y-12429222D01*
X15667801Y-12429222D02*
X15658277Y-12410174D01*
X15658277Y-12410174D02*
X15639230Y-12400650D01*
X15639230Y-12400650D02*
X15610658Y-12400650D01*
X15610658Y-12400650D02*
X15591610Y-12410174D01*
X15591610Y-12410174D02*
X15582087Y-12419698D01*
X15791610Y-12533984D02*
X15772563Y-12524460D01*
X15772563Y-12524460D02*
X15763039Y-12514936D01*
X15763039Y-12514936D02*
X15753515Y-12495888D01*
X15753515Y-12495888D02*
X15753515Y-12438746D01*
X15753515Y-12438746D02*
X15763039Y-12419698D01*
X15763039Y-12419698D02*
X15772563Y-12410174D01*
X15772563Y-12410174D02*
X15791610Y-12400650D01*
X15791610Y-12400650D02*
X15820182Y-12400650D01*
X15820182Y-12400650D02*
X15839230Y-12410174D01*
X15839230Y-12410174D02*
X15848753Y-12419698D01*
X15848753Y-12419698D02*
X15858277Y-12438746D01*
X15858277Y-12438746D02*
X15858277Y-12495888D01*
X15858277Y-12495888D02*
X15848753Y-12514936D01*
X15848753Y-12514936D02*
X15839230Y-12524460D01*
X15839230Y-12524460D02*
X15820182Y-12533984D01*
X15820182Y-12533984D02*
X15791610Y-12533984D01*
X15972563Y-12533984D02*
X15953515Y-12524460D01*
X15953515Y-12524460D02*
X15943991Y-12505412D01*
X15943991Y-12505412D02*
X15943991Y-12333984D01*
X16124944Y-12524460D02*
X16105896Y-12533984D01*
X16105896Y-12533984D02*
X16067801Y-12533984D01*
X16067801Y-12533984D02*
X16048753Y-12524460D01*
X16048753Y-12524460D02*
X16039230Y-12505412D01*
X16039230Y-12505412D02*
X16039230Y-12429222D01*
X16039230Y-12429222D02*
X16048753Y-12410174D01*
X16048753Y-12410174D02*
X16067801Y-12400650D01*
X16067801Y-12400650D02*
X16105896Y-12400650D01*
X16105896Y-12400650D02*
X16124944Y-12410174D01*
X16124944Y-12410174D02*
X16134468Y-12429222D01*
X16134468Y-12429222D02*
X16134468Y-12448269D01*
X16134468Y-12448269D02*
X16039230Y-12467317D01*
X16210658Y-12524460D02*
X16229706Y-12533984D01*
X16229706Y-12533984D02*
X16267801Y-12533984D01*
X16267801Y-12533984D02*
X16286849Y-12524460D01*
X16286849Y-12524460D02*
X16296372Y-12505412D01*
X16296372Y-12505412D02*
X16296372Y-12495888D01*
X16296372Y-12495888D02*
X16286849Y-12476841D01*
X16286849Y-12476841D02*
X16267801Y-12467317D01*
X16267801Y-12467317D02*
X16239230Y-12467317D01*
X16239230Y-12467317D02*
X16220182Y-12457793D01*
X16220182Y-12457793D02*
X16210658Y-12438746D01*
X16210658Y-12438746D02*
X16210658Y-12429222D01*
X16210658Y-12429222D02*
X16220182Y-12410174D01*
X16220182Y-12410174D02*
X16239230Y-12400650D01*
X16239230Y-12400650D02*
X16267801Y-12400650D01*
X16267801Y-12400650D02*
X16286849Y-12410174D01*
X16363039Y-12610174D02*
X16372563Y-12600650D01*
X16372563Y-12600650D02*
X16391611Y-12572079D01*
X16391611Y-12572079D02*
X16401134Y-12553031D01*
X16401134Y-12553031D02*
X16410658Y-12524460D01*
X16410658Y-12524460D02*
X16420182Y-12476841D01*
X16420182Y-12476841D02*
X16420182Y-12438746D01*
X16420182Y-12438746D02*
X16410658Y-12391127D01*
X16410658Y-12391127D02*
X16401134Y-12362555D01*
X16401134Y-12362555D02*
X16391611Y-12343508D01*
X16391611Y-12343508D02*
X16372563Y-12314936D01*
X16372563Y-12314936D02*
X16363039Y-12305412D01*
D13*
X11397500Y-12706500D02*
G75*
G02*
X11267500Y-12706500I-65000J0D01*
G01*
X11267500Y-12706500D02*
G75*
G02*
X11397500Y-12706500I65000J0D01*
G01*
D12*
X11763039Y-12797984D02*
X11648753Y-12797984D01*
X11705896Y-12797984D02*
X11705896Y-12597984D01*
X11705896Y-12597984D02*
X11686848Y-12626555D01*
X11686848Y-12626555D02*
X11667801Y-12645603D01*
X11667801Y-12645603D02*
X11648753Y-12655127D01*
X11848753Y-12778936D02*
X11858277Y-12788460D01*
X11858277Y-12788460D02*
X11848753Y-12797984D01*
X11848753Y-12797984D02*
X11839229Y-12788460D01*
X11839229Y-12788460D02*
X11848753Y-12778936D01*
X11848753Y-12778936D02*
X11848753Y-12797984D01*
X11924943Y-12597984D02*
X12048753Y-12597984D01*
X12048753Y-12597984D02*
X11982086Y-12674174D01*
X11982086Y-12674174D02*
X12010658Y-12674174D01*
X12010658Y-12674174D02*
X12029705Y-12683698D01*
X12029705Y-12683698D02*
X12039229Y-12693222D01*
X12039229Y-12693222D02*
X12048753Y-12712269D01*
X12048753Y-12712269D02*
X12048753Y-12759888D01*
X12048753Y-12759888D02*
X12039229Y-12778936D01*
X12039229Y-12778936D02*
X12029705Y-12788460D01*
X12029705Y-12788460D02*
X12010658Y-12797984D01*
X12010658Y-12797984D02*
X11953515Y-12797984D01*
X11953515Y-12797984D02*
X11934467Y-12788460D01*
X11934467Y-12788460D02*
X11924943Y-12778936D01*
X12172562Y-12597984D02*
X12191610Y-12597984D01*
X12191610Y-12597984D02*
X12210658Y-12607508D01*
X12210658Y-12607508D02*
X12220182Y-12617031D01*
X12220182Y-12617031D02*
X12229705Y-12636079D01*
X12229705Y-12636079D02*
X12239229Y-12674174D01*
X12239229Y-12674174D02*
X12239229Y-12721793D01*
X12239229Y-12721793D02*
X12229705Y-12759888D01*
X12229705Y-12759888D02*
X12220182Y-12778936D01*
X12220182Y-12778936D02*
X12210658Y-12788460D01*
X12210658Y-12788460D02*
X12191610Y-12797984D01*
X12191610Y-12797984D02*
X12172562Y-12797984D01*
X12172562Y-12797984D02*
X12153515Y-12788460D01*
X12153515Y-12788460D02*
X12143991Y-12778936D01*
X12143991Y-12778936D02*
X12134467Y-12759888D01*
X12134467Y-12759888D02*
X12124943Y-12721793D01*
X12124943Y-12721793D02*
X12124943Y-12674174D01*
X12124943Y-12674174D02*
X12134467Y-12636079D01*
X12134467Y-12636079D02*
X12143991Y-12617031D01*
X12143991Y-12617031D02*
X12153515Y-12607508D01*
X12153515Y-12607508D02*
X12172562Y-12597984D01*
X12363039Y-12597984D02*
X12382086Y-12597984D01*
X12382086Y-12597984D02*
X12401134Y-12607508D01*
X12401134Y-12607508D02*
X12410658Y-12617031D01*
X12410658Y-12617031D02*
X12420182Y-12636079D01*
X12420182Y-12636079D02*
X12429705Y-12674174D01*
X12429705Y-12674174D02*
X12429705Y-12721793D01*
X12429705Y-12721793D02*
X12420182Y-12759888D01*
X12420182Y-12759888D02*
X12410658Y-12778936D01*
X12410658Y-12778936D02*
X12401134Y-12788460D01*
X12401134Y-12788460D02*
X12382086Y-12797984D01*
X12382086Y-12797984D02*
X12363039Y-12797984D01*
X12363039Y-12797984D02*
X12343991Y-12788460D01*
X12343991Y-12788460D02*
X12334467Y-12778936D01*
X12334467Y-12778936D02*
X12324943Y-12759888D01*
X12324943Y-12759888D02*
X12315420Y-12721793D01*
X12315420Y-12721793D02*
X12315420Y-12674174D01*
X12315420Y-12674174D02*
X12324943Y-12636079D01*
X12324943Y-12636079D02*
X12334467Y-12617031D01*
X12334467Y-12617031D02*
X12343991Y-12607508D01*
X12343991Y-12607508D02*
X12363039Y-12597984D01*
X12515420Y-12797984D02*
X12515420Y-12664650D01*
X12515420Y-12683698D02*
X12524943Y-12674174D01*
X12524943Y-12674174D02*
X12543991Y-12664650D01*
X12543991Y-12664650D02*
X12572563Y-12664650D01*
X12572563Y-12664650D02*
X12591610Y-12674174D01*
X12591610Y-12674174D02*
X12601134Y-12693222D01*
X12601134Y-12693222D02*
X12601134Y-12797984D01*
X12601134Y-12693222D02*
X12610658Y-12674174D01*
X12610658Y-12674174D02*
X12629705Y-12664650D01*
X12629705Y-12664650D02*
X12658277Y-12664650D01*
X12658277Y-12664650D02*
X12677324Y-12674174D01*
X12677324Y-12674174D02*
X12686848Y-12693222D01*
X12686848Y-12693222D02*
X12686848Y-12797984D01*
X12782086Y-12797984D02*
X12782086Y-12664650D01*
X12782086Y-12683698D02*
X12791610Y-12674174D01*
X12791610Y-12674174D02*
X12810658Y-12664650D01*
X12810658Y-12664650D02*
X12839229Y-12664650D01*
X12839229Y-12664650D02*
X12858277Y-12674174D01*
X12858277Y-12674174D02*
X12867801Y-12693222D01*
X12867801Y-12693222D02*
X12867801Y-12797984D01*
X12867801Y-12693222D02*
X12877324Y-12674174D01*
X12877324Y-12674174D02*
X12896372Y-12664650D01*
X12896372Y-12664650D02*
X12924943Y-12664650D01*
X12924943Y-12664650D02*
X12943991Y-12674174D01*
X12943991Y-12674174D02*
X12953515Y-12693222D01*
X12953515Y-12693222D02*
X12953515Y-12797984D01*
X13343991Y-12588460D02*
X13172563Y-12845603D01*
X13601134Y-12597984D02*
X13620182Y-12597984D01*
X13620182Y-12597984D02*
X13639229Y-12607508D01*
X13639229Y-12607508D02*
X13648753Y-12617031D01*
X13648753Y-12617031D02*
X13658277Y-12636079D01*
X13658277Y-12636079D02*
X13667801Y-12674174D01*
X13667801Y-12674174D02*
X13667801Y-12721793D01*
X13667801Y-12721793D02*
X13658277Y-12759888D01*
X13658277Y-12759888D02*
X13648753Y-12778936D01*
X13648753Y-12778936D02*
X13639229Y-12788460D01*
X13639229Y-12788460D02*
X13620182Y-12797984D01*
X13620182Y-12797984D02*
X13601134Y-12797984D01*
X13601134Y-12797984D02*
X13582086Y-12788460D01*
X13582086Y-12788460D02*
X13572563Y-12778936D01*
X13572563Y-12778936D02*
X13563039Y-12759888D01*
X13563039Y-12759888D02*
X13553515Y-12721793D01*
X13553515Y-12721793D02*
X13553515Y-12674174D01*
X13553515Y-12674174D02*
X13563039Y-12636079D01*
X13563039Y-12636079D02*
X13572563Y-12617031D01*
X13572563Y-12617031D02*
X13582086Y-12607508D01*
X13582086Y-12607508D02*
X13601134Y-12597984D01*
X13753515Y-12778936D02*
X13763039Y-12788460D01*
X13763039Y-12788460D02*
X13753515Y-12797984D01*
X13753515Y-12797984D02*
X13743991Y-12788460D01*
X13743991Y-12788460D02*
X13753515Y-12778936D01*
X13753515Y-12778936D02*
X13753515Y-12797984D01*
X13886848Y-12597984D02*
X13905896Y-12597984D01*
X13905896Y-12597984D02*
X13924944Y-12607508D01*
X13924944Y-12607508D02*
X13934467Y-12617031D01*
X13934467Y-12617031D02*
X13943991Y-12636079D01*
X13943991Y-12636079D02*
X13953515Y-12674174D01*
X13953515Y-12674174D02*
X13953515Y-12721793D01*
X13953515Y-12721793D02*
X13943991Y-12759888D01*
X13943991Y-12759888D02*
X13934467Y-12778936D01*
X13934467Y-12778936D02*
X13924944Y-12788460D01*
X13924944Y-12788460D02*
X13905896Y-12797984D01*
X13905896Y-12797984D02*
X13886848Y-12797984D01*
X13886848Y-12797984D02*
X13867801Y-12788460D01*
X13867801Y-12788460D02*
X13858277Y-12778936D01*
X13858277Y-12778936D02*
X13848753Y-12759888D01*
X13848753Y-12759888D02*
X13839229Y-12721793D01*
X13839229Y-12721793D02*
X13839229Y-12674174D01*
X13839229Y-12674174D02*
X13848753Y-12636079D01*
X13848753Y-12636079D02*
X13858277Y-12617031D01*
X13858277Y-12617031D02*
X13867801Y-12607508D01*
X13867801Y-12607508D02*
X13886848Y-12597984D01*
X14134467Y-12597984D02*
X14039229Y-12597984D01*
X14039229Y-12597984D02*
X14029706Y-12693222D01*
X14029706Y-12693222D02*
X14039229Y-12683698D01*
X14039229Y-12683698D02*
X14058277Y-12674174D01*
X14058277Y-12674174D02*
X14105896Y-12674174D01*
X14105896Y-12674174D02*
X14124944Y-12683698D01*
X14124944Y-12683698D02*
X14134467Y-12693222D01*
X14134467Y-12693222D02*
X14143991Y-12712269D01*
X14143991Y-12712269D02*
X14143991Y-12759888D01*
X14143991Y-12759888D02*
X14134467Y-12778936D01*
X14134467Y-12778936D02*
X14124944Y-12788460D01*
X14124944Y-12788460D02*
X14105896Y-12797984D01*
X14105896Y-12797984D02*
X14058277Y-12797984D01*
X14058277Y-12797984D02*
X14039229Y-12788460D01*
X14039229Y-12788460D02*
X14029706Y-12778936D01*
X14334467Y-12797984D02*
X14220182Y-12797984D01*
X14277325Y-12797984D02*
X14277325Y-12597984D01*
X14277325Y-12597984D02*
X14258277Y-12626555D01*
X14258277Y-12626555D02*
X14239229Y-12645603D01*
X14239229Y-12645603D02*
X14220182Y-12655127D01*
X14410658Y-12617031D02*
X14420182Y-12607508D01*
X14420182Y-12607508D02*
X14439229Y-12597984D01*
X14439229Y-12597984D02*
X14486848Y-12597984D01*
X14486848Y-12597984D02*
X14505896Y-12607508D01*
X14505896Y-12607508D02*
X14515420Y-12617031D01*
X14515420Y-12617031D02*
X14524944Y-12636079D01*
X14524944Y-12636079D02*
X14524944Y-12655127D01*
X14524944Y-12655127D02*
X14515420Y-12683698D01*
X14515420Y-12683698D02*
X14401134Y-12797984D01*
X14401134Y-12797984D02*
X14524944Y-12797984D01*
X14601134Y-12597984D02*
X14601134Y-12636079D01*
X14677325Y-12597984D02*
X14677325Y-12636079D01*
X14972563Y-12874174D02*
X14963039Y-12864650D01*
X14963039Y-12864650D02*
X14943991Y-12836079D01*
X14943991Y-12836079D02*
X14934468Y-12817031D01*
X14934468Y-12817031D02*
X14924944Y-12788460D01*
X14924944Y-12788460D02*
X14915420Y-12740841D01*
X14915420Y-12740841D02*
X14915420Y-12702746D01*
X14915420Y-12702746D02*
X14924944Y-12655127D01*
X14924944Y-12655127D02*
X14934468Y-12626555D01*
X14934468Y-12626555D02*
X14943991Y-12607508D01*
X14943991Y-12607508D02*
X14963039Y-12578936D01*
X14963039Y-12578936D02*
X14972563Y-12569412D01*
X15153515Y-12797984D02*
X15039229Y-12797984D01*
X15096372Y-12797984D02*
X15096372Y-12597984D01*
X15096372Y-12597984D02*
X15077325Y-12626555D01*
X15077325Y-12626555D02*
X15058277Y-12645603D01*
X15058277Y-12645603D02*
X15039229Y-12655127D01*
X15324944Y-12597984D02*
X15286848Y-12597984D01*
X15286848Y-12597984D02*
X15267801Y-12607508D01*
X15267801Y-12607508D02*
X15258277Y-12617031D01*
X15258277Y-12617031D02*
X15239229Y-12645603D01*
X15239229Y-12645603D02*
X15229706Y-12683698D01*
X15229706Y-12683698D02*
X15229706Y-12759888D01*
X15229706Y-12759888D02*
X15239229Y-12778936D01*
X15239229Y-12778936D02*
X15248753Y-12788460D01*
X15248753Y-12788460D02*
X15267801Y-12797984D01*
X15267801Y-12797984D02*
X15305896Y-12797984D01*
X15305896Y-12797984D02*
X15324944Y-12788460D01*
X15324944Y-12788460D02*
X15334468Y-12778936D01*
X15334468Y-12778936D02*
X15343991Y-12759888D01*
X15343991Y-12759888D02*
X15343991Y-12712269D01*
X15343991Y-12712269D02*
X15334468Y-12693222D01*
X15334468Y-12693222D02*
X15324944Y-12683698D01*
X15324944Y-12683698D02*
X15305896Y-12674174D01*
X15305896Y-12674174D02*
X15267801Y-12674174D01*
X15267801Y-12674174D02*
X15248753Y-12683698D01*
X15248753Y-12683698D02*
X15239229Y-12693222D01*
X15239229Y-12693222D02*
X15229706Y-12712269D01*
X15582087Y-12797984D02*
X15582087Y-12597984D01*
X15667801Y-12797984D02*
X15667801Y-12693222D01*
X15667801Y-12693222D02*
X15658277Y-12674174D01*
X15658277Y-12674174D02*
X15639230Y-12664650D01*
X15639230Y-12664650D02*
X15610658Y-12664650D01*
X15610658Y-12664650D02*
X15591610Y-12674174D01*
X15591610Y-12674174D02*
X15582087Y-12683698D01*
X15791610Y-12797984D02*
X15772563Y-12788460D01*
X15772563Y-12788460D02*
X15763039Y-12778936D01*
X15763039Y-12778936D02*
X15753515Y-12759888D01*
X15753515Y-12759888D02*
X15753515Y-12702746D01*
X15753515Y-12702746D02*
X15763039Y-12683698D01*
X15763039Y-12683698D02*
X15772563Y-12674174D01*
X15772563Y-12674174D02*
X15791610Y-12664650D01*
X15791610Y-12664650D02*
X15820182Y-12664650D01*
X15820182Y-12664650D02*
X15839230Y-12674174D01*
X15839230Y-12674174D02*
X15848753Y-12683698D01*
X15848753Y-12683698D02*
X15858277Y-12702746D01*
X15858277Y-12702746D02*
X15858277Y-12759888D01*
X15858277Y-12759888D02*
X15848753Y-12778936D01*
X15848753Y-12778936D02*
X15839230Y-12788460D01*
X15839230Y-12788460D02*
X15820182Y-12797984D01*
X15820182Y-12797984D02*
X15791610Y-12797984D01*
X15972563Y-12797984D02*
X15953515Y-12788460D01*
X15953515Y-12788460D02*
X15943991Y-12769412D01*
X15943991Y-12769412D02*
X15943991Y-12597984D01*
X16124944Y-12788460D02*
X16105896Y-12797984D01*
X16105896Y-12797984D02*
X16067801Y-12797984D01*
X16067801Y-12797984D02*
X16048753Y-12788460D01*
X16048753Y-12788460D02*
X16039230Y-12769412D01*
X16039230Y-12769412D02*
X16039230Y-12693222D01*
X16039230Y-12693222D02*
X16048753Y-12674174D01*
X16048753Y-12674174D02*
X16067801Y-12664650D01*
X16067801Y-12664650D02*
X16105896Y-12664650D01*
X16105896Y-12664650D02*
X16124944Y-12674174D01*
X16124944Y-12674174D02*
X16134468Y-12693222D01*
X16134468Y-12693222D02*
X16134468Y-12712269D01*
X16134468Y-12712269D02*
X16039230Y-12731317D01*
X16210658Y-12788460D02*
X16229706Y-12797984D01*
X16229706Y-12797984D02*
X16267801Y-12797984D01*
X16267801Y-12797984D02*
X16286849Y-12788460D01*
X16286849Y-12788460D02*
X16296372Y-12769412D01*
X16296372Y-12769412D02*
X16296372Y-12759888D01*
X16296372Y-12759888D02*
X16286849Y-12740841D01*
X16286849Y-12740841D02*
X16267801Y-12731317D01*
X16267801Y-12731317D02*
X16239230Y-12731317D01*
X16239230Y-12731317D02*
X16220182Y-12721793D01*
X16220182Y-12721793D02*
X16210658Y-12702746D01*
X16210658Y-12702746D02*
X16210658Y-12693222D01*
X16210658Y-12693222D02*
X16220182Y-12674174D01*
X16220182Y-12674174D02*
X16239230Y-12664650D01*
X16239230Y-12664650D02*
X16267801Y-12664650D01*
X16267801Y-12664650D02*
X16286849Y-12674174D01*
X16363039Y-12874174D02*
X16372563Y-12864650D01*
X16372563Y-12864650D02*
X16391611Y-12836079D01*
X16391611Y-12836079D02*
X16401134Y-12817031D01*
X16401134Y-12817031D02*
X16410658Y-12788460D01*
X16410658Y-12788460D02*
X16420182Y-12740841D01*
X16420182Y-12740841D02*
X16420182Y-12702746D01*
X16420182Y-12702746D02*
X16410658Y-12655127D01*
X16410658Y-12655127D02*
X16401134Y-12626555D01*
X16401134Y-12626555D02*
X16391611Y-12607508D01*
X16391611Y-12607508D02*
X16372563Y-12578936D01*
X16372563Y-12578936D02*
X16363039Y-12569412D01*
M02*
