%TF.GenerationSoftware,KiCad,Pcbnew,8.0.6*%
%TF.CreationDate,2025-01-28T17:52:03-05:00*%
%TF.ProjectId,SAS-PCB,5341532d-5043-4422-9e6b-696361645f70,rev?*%
%TF.SameCoordinates,Original*%
%TF.FileFunction,Copper,L2,Bot*%
%TF.FilePolarity,Positive*%
%FSLAX46Y46*%
G04 Gerber Fmt 4.6, Leading zero omitted, Abs format (unit mm)*
G04 Created by KiCad (PCBNEW 8.0.6) date 2025-01-28 17:52:03*
%MOMM*%
%LPD*%
G01*
G04 APERTURE LIST*
%TA.AperFunction,ComponentPad*%
%ADD10C,1.950000*%
%TD*%
%TA.AperFunction,ComponentPad*%
%ADD11O,1.700000X1.700000*%
%TD*%
%TA.AperFunction,ComponentPad*%
%ADD12R,1.700000X1.700000*%
%TD*%
%TA.AperFunction,Conductor*%
%ADD13C,0.300000*%
%TD*%
%TA.AperFunction,Conductor*%
%ADD14C,0.500000*%
%TD*%
%TA.AperFunction,Conductor*%
%ADD15C,0.200000*%
%TD*%
G04 APERTURE END LIST*
D10*
%TO.P,Bouton_4,1,GND*%
%TO.N,Net-(Bouton_4-GND)*%
X159500000Y-109500000D03*
%TO.P,Bouton_4,2,5V*%
%TO.N,+3.3V*%
X154500000Y-109500000D03*
%TD*%
D11*
%TO.P,R6,1*%
%TO.N,Bouton_6*%
X136484000Y-92500000D03*
%TO.P,R6,2*%
%TO.N,Net-(Bouton_6-GND)*%
X136484000Y-102500000D03*
%TD*%
D10*
%TO.P,Bouton_3,1,GND*%
%TO.N,Net-(Bouton_3-GND)*%
X171000000Y-109500000D03*
%TO.P,Bouton_3,2,5V*%
%TO.N,+3.3V*%
X166000000Y-109500000D03*
%TD*%
%TO.P,Bouton_6,1,GND*%
%TO.N,Net-(Bouton_6-GND)*%
X136500000Y-109500000D03*
%TO.P,Bouton_6,2,5V*%
%TO.N,+3.3V*%
X131500000Y-109500000D03*
%TD*%
D11*
%TO.P,R5,1*%
%TO.N,Bouton_5*%
X147914000Y-92500000D03*
%TO.P,R5,2*%
%TO.N,Net-(Bouton_5-GND)*%
X147914000Y-102500000D03*
%TD*%
D12*
%TO.P,J5-GPS1,1,Pin_1*%
%TO.N,+3.3V*%
X143500000Y-52810000D03*
D11*
%TO.P,J5-GPS1,2,Pin_2*%
%TO.N,TXD*%
X143500000Y-50270000D03*
%TO.P,J5-GPS1,3,Pin_3*%
%TO.N,RXD*%
X143500000Y-47730000D03*
%TO.P,J5-GPS1,4,Pin_4*%
%TO.N,GND*%
X143500000Y-45190000D03*
%TD*%
D12*
%TO.P,J2-LCD1,1,Pin_1*%
%TO.N,GND*%
X179000000Y-72880000D03*
D11*
%TO.P,J2-LCD1,2,Pin_2*%
%TO.N,+5V*%
X179000000Y-75420000D03*
%TO.P,J2-LCD1,3,Pin_3*%
%TO.N,SDA*%
X179000000Y-77960000D03*
%TO.P,J2-LCD1,4,Pin_4*%
%TO.N,SCL*%
X179000000Y-80500000D03*
%TD*%
%TO.P,R7,1*%
%TO.N,SDA*%
X170200000Y-78000000D03*
%TO.P,R7,2*%
%TO.N,+3.3V*%
X170200000Y-68000000D03*
%TD*%
D10*
%TO.P,Bouton_1,1,GND*%
%TO.N,Net-(Bouton_1-GND)*%
X194000000Y-109500000D03*
%TO.P,Bouton_1,2,5V*%
%TO.N,+3.3V*%
X189000000Y-109500000D03*
%TD*%
D11*
%TO.P,R4,1*%
%TO.N,Bouton_4*%
X159598000Y-92500000D03*
%TO.P,R4,2*%
%TO.N,Net-(Bouton_4-GND)*%
X159598000Y-102500000D03*
%TD*%
D12*
%TO.P,J6-cable-plat1,1,Pin_1*%
%TO.N,+3.3V*%
X128000000Y-44140000D03*
D11*
%TO.P,J6-cable-plat1,2,Pin_2*%
%TO.N,unconnected-(J6-cable-plat1-Pin_2-Pad2)*%
X125460000Y-44140000D03*
%TO.P,J6-cable-plat1,3,Pin_3*%
%TO.N,SDA*%
X128000000Y-46680000D03*
%TO.P,J6-cable-plat1,4,Pin_4*%
%TO.N,unconnected-(J6-cable-plat1-Pin_4-Pad4)*%
X125460000Y-46680000D03*
%TO.P,J6-cable-plat1,5,Pin_5*%
%TO.N,SCL*%
X128000000Y-49220000D03*
%TO.P,J6-cable-plat1,6,Pin_6*%
%TO.N,GND*%
X125460000Y-49220000D03*
%TO.P,J6-cable-plat1,7,Pin_7*%
%TO.N,unconnected-(J6-cable-plat1-Pin_7-Pad7)*%
X128000000Y-51760000D03*
%TO.P,J6-cable-plat1,8,Pin_8*%
%TO.N,TXD*%
X125460000Y-51760000D03*
%TO.P,J6-cable-plat1,9,Pin_9*%
%TO.N,GND*%
X128000000Y-54300000D03*
%TO.P,J6-cable-plat1,10,Pin_10*%
%TO.N,RXD*%
X125460000Y-54300000D03*
%TO.P,J6-cable-plat1,11,Pin_11*%
%TO.N,Bouton_1*%
X128000000Y-56840000D03*
%TO.P,J6-cable-plat1,12,Pin_12*%
%TO.N,unconnected-(J6-cable-plat1-Pin_12-Pad12)*%
X125460000Y-56840000D03*
%TO.P,J6-cable-plat1,13,Pin_13*%
%TO.N,Bouton_2*%
X128000000Y-59380000D03*
%TO.P,J6-cable-plat1,14,Pin_14*%
%TO.N,GND*%
X125460000Y-59380000D03*
%TO.P,J6-cable-plat1,15,Pin_15*%
%TO.N,Bouton_3*%
X128000000Y-61920000D03*
%TO.P,J6-cable-plat1,16,Pin_16*%
%TO.N,Fan1_RPM*%
X125460000Y-61920000D03*
%TO.P,J6-cable-plat1,17,Pin_17*%
%TO.N,+3.3V*%
X128000000Y-64460000D03*
%TO.P,J6-cable-plat1,18,Pin_18*%
%TO.N,Fan2_RPM*%
X125460000Y-64460000D03*
%TO.P,J6-cable-plat1,19,Pin_19*%
%TO.N,unconnected-(J6-cable-plat1-Pin_19-Pad19)*%
X128000000Y-67000000D03*
%TO.P,J6-cable-plat1,20,Pin_20*%
%TO.N,GND*%
X125460000Y-67000000D03*
%TO.P,J6-cable-plat1,21,Pin_21*%
%TO.N,unconnected-(J6-cable-plat1-Pin_21-Pad21)*%
X128000000Y-69540000D03*
%TO.P,J6-cable-plat1,22,Pin_22*%
%TO.N,unconnected-(J6-cable-plat1-Pin_22-Pad22)*%
X125460000Y-69540000D03*
%TO.P,J6-cable-plat1,23,Pin_23*%
%TO.N,unconnected-(J6-cable-plat1-Pin_23-Pad23)*%
X128000000Y-72080000D03*
%TO.P,J6-cable-plat1,24,Pin_24*%
%TO.N,unconnected-(J6-cable-plat1-Pin_24-Pad24)*%
X125460000Y-72080000D03*
%TO.P,J6-cable-plat1,25,Pin_25*%
%TO.N,GND*%
X128000000Y-74620000D03*
%TO.P,J6-cable-plat1,26,Pin_26*%
%TO.N,unconnected-(J6-cable-plat1-Pin_26-Pad26)*%
X125460000Y-74620000D03*
%TO.P,J6-cable-plat1,27,Pin_27*%
%TO.N,unconnected-(J6-cable-plat1-Pin_27-Pad27)*%
X128000000Y-77160000D03*
%TO.P,J6-cable-plat1,28,Pin_28*%
%TO.N,unconnected-(J6-cable-plat1-Pin_28-Pad28)*%
X125460000Y-77160000D03*
%TO.P,J6-cable-plat1,29,Pin_29*%
%TO.N,Bouton_4*%
X128000000Y-79700000D03*
%TO.P,J6-cable-plat1,30,Pin_30*%
%TO.N,GND*%
X125460000Y-79700000D03*
%TO.P,J6-cable-plat1,31,Pin_31*%
%TO.N,Bouton_5*%
X128000000Y-82240000D03*
%TO.P,J6-cable-plat1,32,Pin_32*%
%TO.N,Fan1_PWM*%
X125460000Y-82240000D03*
%TO.P,J6-cable-plat1,33,Pin_33*%
%TO.N,Fan2_PWM*%
X128000000Y-84780000D03*
%TO.P,J6-cable-plat1,34,Pin_34*%
%TO.N,GND*%
X125460000Y-84780000D03*
%TO.P,J6-cable-plat1,35,Pin_35*%
%TO.N,unconnected-(J6-cable-plat1-Pin_35-Pad35)*%
X128000000Y-87320000D03*
%TO.P,J6-cable-plat1,36,Pin_36*%
%TO.N,unconnected-(J6-cable-plat1-Pin_36-Pad36)*%
X125460000Y-87320000D03*
%TO.P,J6-cable-plat1,37,Pin_37*%
%TO.N,Bouton_6*%
X128000000Y-89860000D03*
%TO.P,J6-cable-plat1,38,Pin_38*%
%TO.N,unconnected-(J6-cable-plat1-Pin_38-Pad38)*%
X125460000Y-89860000D03*
%TO.P,J6-cable-plat1,39,Pin_39*%
%TO.N,GND*%
X128000000Y-92400000D03*
%TO.P,J6-cable-plat1,40,Pin_40*%
%TO.N,unconnected-(J6-cable-plat1-Pin_40-Pad40)*%
X125460000Y-92400000D03*
%TD*%
%TO.P,R1,1*%
%TO.N,Net-(Bouton_1-GND)*%
X194100000Y-102400000D03*
%TO.P,R1,2*%
%TO.N,Bouton_1*%
X194100000Y-92400000D03*
%TD*%
D10*
%TO.P,Bouton_5,1,GND*%
%TO.N,Net-(Bouton_5-GND)*%
X148000000Y-109500000D03*
%TO.P,Bouton_5,2,5V*%
%TO.N,+3.3V*%
X143000000Y-109500000D03*
%TD*%
D12*
%TO.P,J4-BMP280,1,Pin_1*%
%TO.N,+3.3V*%
X144500000Y-80010000D03*
D11*
%TO.P,J4-BMP280,2,Pin_2*%
%TO.N,GND*%
X144500000Y-77470000D03*
%TO.P,J4-BMP280,3,Pin_3*%
%TO.N,SCL*%
X144500000Y-74930000D03*
%TO.P,J4-BMP280,4,Pin_4*%
%TO.N,SDA*%
X144500000Y-72390000D03*
%TO.P,J4-BMP280,5,Pin_5*%
%TO.N,+3.3V*%
X144500000Y-69850000D03*
%TO.P,J4-BMP280,6,Pin_6*%
X144500000Y-67310000D03*
%TD*%
%TO.P,R3,1*%
%TO.N,Bouton_3*%
X171028000Y-92536000D03*
%TO.P,R3,2*%
%TO.N,Net-(Bouton_3-GND)*%
X171028000Y-102536000D03*
%TD*%
D10*
%TO.P,Bouton_2,1,GND*%
%TO.N,Net-(Bouton_2-GND)*%
X182500000Y-109500000D03*
%TO.P,Bouton_2,2,5V*%
%TO.N,+3.3V*%
X177500000Y-109500000D03*
%TD*%
D12*
%TO.P,J3-LCD2,1,Pin_1*%
%TO.N,GND*%
X197500000Y-72920000D03*
D11*
%TO.P,J3-LCD2,2,Pin_2*%
%TO.N,+5V*%
X197500000Y-75460000D03*
%TO.P,J3-LCD2,3,Pin_3*%
%TO.N,SDA*%
X197500000Y-78000000D03*
%TO.P,J3-LCD2,4,Pin_4*%
%TO.N,SCL*%
X197500000Y-80540000D03*
%TD*%
%TO.P,R8,1*%
%TO.N,SCL*%
X160700000Y-78000000D03*
%TO.P,R8,2*%
%TO.N,+3.3V*%
X160700000Y-68000000D03*
%TD*%
D10*
%TO.P,J1_Batt1,1,GND*%
%TO.N,GND*%
X203000000Y-65000000D03*
%TO.P,J1_Batt1,2,5V*%
%TO.N,+5V*%
X203000000Y-60000000D03*
%TD*%
D12*
%TO.P,J9-Fan2,1,Pin_1*%
%TO.N,GND*%
X191540000Y-43000000D03*
D11*
%TO.P,J9-Fan2,2,Pin_2*%
%TO.N,+5V*%
X189000000Y-43000000D03*
%TO.P,J9-Fan2,3,Pin_3*%
%TO.N,Fan2_RPM*%
X186460000Y-43000000D03*
%TO.P,J9-Fan2,4,Pin_4*%
%TO.N,Fan2_PWM*%
X183920000Y-43000000D03*
%TD*%
D10*
%TO.P,J7-RFD900x1,1,GND*%
%TO.N,GND*%
X203000000Y-51000000D03*
%TO.P,J7-RFD900x1,2,5V*%
%TO.N,+5V*%
X203000000Y-46000000D03*
%TD*%
D12*
%TO.P,J8-Fan1,1,Pin_1*%
%TO.N,GND*%
X191540000Y-58500000D03*
D11*
%TO.P,J8-Fan1,2,Pin_2*%
%TO.N,+5V*%
X189000000Y-58500000D03*
%TO.P,J8-Fan1,3,Pin_3*%
%TO.N,Fan1_RPM*%
X186460000Y-58500000D03*
%TO.P,J8-Fan1,4,Pin_4*%
%TO.N,Fan1_PWM*%
X183920000Y-58500000D03*
%TD*%
%TO.P,R2,1*%
%TO.N,Net-(Bouton_2-GND)*%
X182472000Y-102400000D03*
%TO.P,R2,2*%
%TO.N,Bouton_2*%
X182472000Y-92400000D03*
%TD*%
D13*
%TO.N,Fan1_PWM*%
X121666000Y-86034000D02*
X125460000Y-82240000D01*
X121666000Y-94869000D02*
X121666000Y-86034000D01*
X133858000Y-92583000D02*
X129667000Y-96774000D01*
X129667000Y-96774000D02*
X123571000Y-96774000D01*
X133858000Y-74422000D02*
X133858000Y-92583000D01*
X144526000Y-63754000D02*
X133858000Y-74422000D01*
X176784000Y-63754000D02*
X144526000Y-63754000D01*
X182038000Y-58500000D02*
X176784000Y-63754000D01*
X183920000Y-58500000D02*
X182038000Y-58500000D01*
X123571000Y-96774000D02*
X121666000Y-94869000D01*
%TO.N,Fan2_PWM*%
X144018000Y-62484000D02*
X132588000Y-73914000D01*
X163068000Y-62484000D02*
X144018000Y-62484000D01*
X132588000Y-73914000D02*
X132588000Y-80192000D01*
X182552000Y-43000000D02*
X163068000Y-62484000D01*
X132588000Y-80192000D02*
X128000000Y-84780000D01*
X183920000Y-43000000D02*
X182552000Y-43000000D01*
D14*
%TO.N,+3.3V*%
X147828000Y-71374000D02*
X146304000Y-69850000D01*
X146304000Y-80010000D02*
X147828000Y-78486000D01*
X144500000Y-80010000D02*
X146304000Y-80010000D01*
X147828000Y-78486000D02*
X147828000Y-71374000D01*
X146304000Y-69850000D02*
X144500000Y-69850000D01*
X131850000Y-64460000D02*
X143500000Y-52810000D01*
X128000000Y-64460000D02*
X131850000Y-64460000D01*
D15*
%TO.N,SCL*%
X179040000Y-80540000D02*
X179000000Y-80500000D01*
%TD*%
%TA.AperFunction,Conductor*%
%TO.N,GND*%
G36*
X133126834Y-80675626D02*
G01*
X133182767Y-80717498D01*
X133207184Y-80782962D01*
X133207500Y-80791808D01*
X133207500Y-92262192D01*
X133187815Y-92329231D01*
X133171181Y-92349873D01*
X129433873Y-96087181D01*
X129372550Y-96120666D01*
X129346192Y-96123500D01*
X123891808Y-96123500D01*
X123824769Y-96103815D01*
X123804127Y-96087181D01*
X122352819Y-94635873D01*
X122319334Y-94574550D01*
X122316500Y-94548192D01*
X122316500Y-86354807D01*
X122336185Y-86287768D01*
X122352814Y-86267131D01*
X124053628Y-84566317D01*
X124114948Y-84532834D01*
X124141306Y-84530000D01*
X125026988Y-84530000D01*
X124994075Y-84587007D01*
X124960000Y-84714174D01*
X124960000Y-84845826D01*
X124994075Y-84972993D01*
X125026988Y-85030000D01*
X124129364Y-85030000D01*
X124186567Y-85243486D01*
X124186570Y-85243492D01*
X124286399Y-85457578D01*
X124421894Y-85651082D01*
X124588917Y-85818105D01*
X124774595Y-85948119D01*
X124818219Y-86002696D01*
X124825412Y-86072195D01*
X124793890Y-86134549D01*
X124774595Y-86151269D01*
X124588594Y-86281508D01*
X124421505Y-86448597D01*
X124285965Y-86642169D01*
X124285964Y-86642171D01*
X124186098Y-86856335D01*
X124186094Y-86856344D01*
X124124938Y-87084586D01*
X124124936Y-87084596D01*
X124104341Y-87319999D01*
X124104341Y-87320000D01*
X124124936Y-87555403D01*
X124124938Y-87555413D01*
X124186094Y-87783655D01*
X124186096Y-87783659D01*
X124186097Y-87783663D01*
X124190000Y-87792032D01*
X124285965Y-87997830D01*
X124285967Y-87997834D01*
X124394281Y-88152521D01*
X124421501Y-88191396D01*
X124421506Y-88191402D01*
X124588597Y-88358493D01*
X124588603Y-88358498D01*
X124774158Y-88488425D01*
X124817783Y-88543002D01*
X124824977Y-88612500D01*
X124793454Y-88674855D01*
X124774158Y-88691575D01*
X124588597Y-88821505D01*
X124421505Y-88988597D01*
X124285965Y-89182169D01*
X124285964Y-89182171D01*
X124186098Y-89396335D01*
X124186094Y-89396344D01*
X124124938Y-89624586D01*
X124124936Y-89624596D01*
X124104341Y-89859999D01*
X124104341Y-89860000D01*
X124124936Y-90095403D01*
X124124938Y-90095413D01*
X124186094Y-90323655D01*
X124186096Y-90323659D01*
X124186097Y-90323663D01*
X124190000Y-90332032D01*
X124285965Y-90537830D01*
X124285967Y-90537834D01*
X124394281Y-90692521D01*
X124421501Y-90731396D01*
X124421506Y-90731402D01*
X124588597Y-90898493D01*
X124588603Y-90898498D01*
X124774158Y-91028425D01*
X124817783Y-91083002D01*
X124824977Y-91152500D01*
X124793454Y-91214855D01*
X124774158Y-91231575D01*
X124588597Y-91361505D01*
X124421505Y-91528597D01*
X124285965Y-91722169D01*
X124285964Y-91722171D01*
X124186098Y-91936335D01*
X124186094Y-91936344D01*
X124124938Y-92164586D01*
X124124936Y-92164596D01*
X124104341Y-92399999D01*
X124104341Y-92400000D01*
X124124936Y-92635403D01*
X124124938Y-92635413D01*
X124186094Y-92863655D01*
X124186096Y-92863659D01*
X124186097Y-92863663D01*
X124269155Y-93041781D01*
X124285965Y-93077830D01*
X124285967Y-93077834D01*
X124381193Y-93213830D01*
X124421505Y-93271401D01*
X124588599Y-93438495D01*
X124685384Y-93506265D01*
X124782165Y-93574032D01*
X124782167Y-93574033D01*
X124782170Y-93574035D01*
X124996337Y-93673903D01*
X124996343Y-93673904D01*
X124996344Y-93673905D01*
X125051285Y-93688626D01*
X125224592Y-93735063D01*
X125412918Y-93751539D01*
X125459999Y-93755659D01*
X125460000Y-93755659D01*
X125460001Y-93755659D01*
X125499234Y-93752226D01*
X125695408Y-93735063D01*
X125923663Y-93673903D01*
X126137830Y-93574035D01*
X126331401Y-93438495D01*
X126498495Y-93271401D01*
X126628730Y-93085405D01*
X126683307Y-93041781D01*
X126752805Y-93034587D01*
X126815160Y-93066110D01*
X126831879Y-93085405D01*
X126961890Y-93271078D01*
X127128917Y-93438105D01*
X127322421Y-93573600D01*
X127536507Y-93673429D01*
X127536516Y-93673433D01*
X127750000Y-93730634D01*
X127750000Y-92833012D01*
X127807007Y-92865925D01*
X127934174Y-92900000D01*
X128065826Y-92900000D01*
X128192993Y-92865925D01*
X128250000Y-92833012D01*
X128250000Y-93730633D01*
X128463483Y-93673433D01*
X128463492Y-93673429D01*
X128677578Y-93573600D01*
X128871082Y-93438105D01*
X129038105Y-93271082D01*
X129173600Y-93077578D01*
X129273429Y-92863492D01*
X129273432Y-92863486D01*
X129330636Y-92650000D01*
X128433012Y-92650000D01*
X128465925Y-92592993D01*
X128500000Y-92465826D01*
X128500000Y-92334174D01*
X128465925Y-92207007D01*
X128433012Y-92150000D01*
X129330636Y-92150000D01*
X129330635Y-92149999D01*
X129273432Y-91936513D01*
X129273429Y-91936507D01*
X129173600Y-91722422D01*
X129173599Y-91722420D01*
X129038113Y-91528926D01*
X129038108Y-91528920D01*
X128871078Y-91361890D01*
X128685405Y-91231879D01*
X128641780Y-91177302D01*
X128634588Y-91107804D01*
X128666110Y-91045449D01*
X128685406Y-91028730D01*
X128685842Y-91028425D01*
X128871401Y-90898495D01*
X129038495Y-90731401D01*
X129174035Y-90537830D01*
X129273903Y-90323663D01*
X129335063Y-90095408D01*
X129355659Y-89860000D01*
X129335063Y-89624592D01*
X129273903Y-89396337D01*
X129174035Y-89182171D01*
X129168425Y-89174158D01*
X129038494Y-88988597D01*
X128871402Y-88821506D01*
X128871396Y-88821501D01*
X128685842Y-88691575D01*
X128642217Y-88636998D01*
X128635023Y-88567500D01*
X128666546Y-88505145D01*
X128685842Y-88488425D01*
X128708026Y-88472891D01*
X128871401Y-88358495D01*
X129038495Y-88191401D01*
X129174035Y-87997830D01*
X129273903Y-87783663D01*
X129335063Y-87555408D01*
X129355659Y-87320000D01*
X129335063Y-87084592D01*
X129273903Y-86856337D01*
X129174035Y-86642171D01*
X129168425Y-86634158D01*
X129038494Y-86448597D01*
X128871402Y-86281506D01*
X128871396Y-86281501D01*
X128685842Y-86151575D01*
X128642217Y-86096998D01*
X128635023Y-86027500D01*
X128666546Y-85965145D01*
X128685842Y-85948425D01*
X128834603Y-85844261D01*
X128871401Y-85818495D01*
X129038495Y-85651401D01*
X129174035Y-85457830D01*
X129273903Y-85243663D01*
X129335063Y-85015408D01*
X129355659Y-84780000D01*
X129335063Y-84544592D01*
X129315614Y-84472007D01*
X129317277Y-84402162D01*
X129347706Y-84352238D01*
X132995819Y-80704127D01*
X133057142Y-80670642D01*
X133126834Y-80675626D01*
G37*
%TD.AperFunction*%
%TA.AperFunction,Conductor*%
G36*
X146008809Y-70620185D02*
G01*
X146029451Y-70636819D01*
X147041181Y-71648548D01*
X147074666Y-71709871D01*
X147077500Y-71736229D01*
X147077500Y-78123770D01*
X147057815Y-78190809D01*
X147041181Y-78211451D01*
X146061873Y-79190758D01*
X146000550Y-79224243D01*
X145930858Y-79219259D01*
X145874925Y-79177387D01*
X145851778Y-79115329D01*
X145850854Y-79115429D01*
X145844091Y-79052516D01*
X145793797Y-78917671D01*
X145793793Y-78917664D01*
X145707547Y-78802455D01*
X145707544Y-78802452D01*
X145592335Y-78716206D01*
X145592328Y-78716202D01*
X145460401Y-78666997D01*
X145404467Y-78625126D01*
X145380050Y-78559662D01*
X145394902Y-78491389D01*
X145416053Y-78463133D01*
X145538108Y-78341078D01*
X145673600Y-78147578D01*
X145773429Y-77933492D01*
X145773432Y-77933486D01*
X145830636Y-77720000D01*
X144933012Y-77720000D01*
X144965925Y-77662993D01*
X145000000Y-77535826D01*
X145000000Y-77404174D01*
X144965925Y-77277007D01*
X144933012Y-77220000D01*
X145830636Y-77220000D01*
X145830635Y-77219999D01*
X145773432Y-77006513D01*
X145773429Y-77006507D01*
X145673600Y-76792422D01*
X145673599Y-76792420D01*
X145538113Y-76598926D01*
X145538108Y-76598920D01*
X145371078Y-76431890D01*
X145185405Y-76301879D01*
X145141780Y-76247302D01*
X145134588Y-76177804D01*
X145166110Y-76115449D01*
X145185406Y-76098730D01*
X145186686Y-76097834D01*
X145371401Y-75968495D01*
X145538495Y-75801401D01*
X145674035Y-75607830D01*
X145773903Y-75393663D01*
X145835063Y-75165408D01*
X145855659Y-74930000D01*
X145835063Y-74694592D01*
X145773903Y-74466337D01*
X145674035Y-74252171D01*
X145651440Y-74219901D01*
X145538494Y-74058597D01*
X145371402Y-73891506D01*
X145371396Y-73891501D01*
X145185842Y-73761575D01*
X145142217Y-73706998D01*
X145135023Y-73637500D01*
X145166546Y-73575145D01*
X145185842Y-73558425D01*
X145270241Y-73499328D01*
X145371401Y-73428495D01*
X145538495Y-73261401D01*
X145674035Y-73067830D01*
X145773903Y-72853663D01*
X145835063Y-72625408D01*
X145855659Y-72390000D01*
X145835063Y-72154592D01*
X145773903Y-71926337D01*
X145674035Y-71712171D01*
X145614153Y-71626649D01*
X145538494Y-71518597D01*
X145371402Y-71351506D01*
X145371396Y-71351501D01*
X145185842Y-71221575D01*
X145142217Y-71166998D01*
X145135023Y-71097500D01*
X145166546Y-71035145D01*
X145185842Y-71018425D01*
X145361275Y-70895585D01*
X145371401Y-70888495D01*
X145538495Y-70721401D01*
X145586127Y-70653376D01*
X145640704Y-70609751D01*
X145687701Y-70600500D01*
X145941770Y-70600500D01*
X146008809Y-70620185D01*
G37*
%TD.AperFunction*%
%TA.AperFunction,Conductor*%
G36*
X205502702Y-33000617D02*
G01*
X205886771Y-33017386D01*
X205897506Y-33018326D01*
X206275971Y-33068152D01*
X206286597Y-33070025D01*
X206659284Y-33152648D01*
X206669710Y-33155442D01*
X207033765Y-33270227D01*
X207043911Y-33273920D01*
X207396578Y-33420000D01*
X207406369Y-33424566D01*
X207744942Y-33600816D01*
X207754309Y-33606223D01*
X207754344Y-33606246D01*
X208076244Y-33811318D01*
X208085105Y-33817523D01*
X208387930Y-34049889D01*
X208396217Y-34056843D01*
X208677635Y-34314715D01*
X208685284Y-34322364D01*
X208943156Y-34603782D01*
X208950110Y-34612069D01*
X209182476Y-34914894D01*
X209188681Y-34923755D01*
X209393775Y-35245689D01*
X209399183Y-35255057D01*
X209575430Y-35593623D01*
X209580002Y-35603427D01*
X209726075Y-35956078D01*
X209729775Y-35966244D01*
X209844554Y-36330278D01*
X209847354Y-36340727D01*
X209929971Y-36713389D01*
X209931849Y-36724042D01*
X209981671Y-37102473D01*
X209982614Y-37113249D01*
X209999382Y-37497297D01*
X209999500Y-37502706D01*
X209999500Y-112997293D01*
X209999382Y-113002702D01*
X209982614Y-113386750D01*
X209981671Y-113397526D01*
X209931849Y-113775957D01*
X209929971Y-113786610D01*
X209847354Y-114159272D01*
X209844554Y-114169721D01*
X209729775Y-114533755D01*
X209726075Y-114543921D01*
X209580002Y-114896572D01*
X209575430Y-114906376D01*
X209399183Y-115244942D01*
X209393775Y-115254310D01*
X209188681Y-115576244D01*
X209182476Y-115585105D01*
X208950110Y-115887930D01*
X208943156Y-115896217D01*
X208685284Y-116177635D01*
X208677635Y-116185284D01*
X208396217Y-116443156D01*
X208387930Y-116450110D01*
X208085105Y-116682476D01*
X208076244Y-116688681D01*
X207754310Y-116893775D01*
X207744942Y-116899183D01*
X207406376Y-117075430D01*
X207396572Y-117080002D01*
X207043921Y-117226075D01*
X207033755Y-117229775D01*
X206669721Y-117344554D01*
X206659272Y-117347354D01*
X206286610Y-117429971D01*
X206275957Y-117431849D01*
X205897526Y-117481671D01*
X205886750Y-117482614D01*
X205502703Y-117499382D01*
X205497294Y-117499500D01*
X119002706Y-117499500D01*
X118997297Y-117499382D01*
X118613249Y-117482614D01*
X118602473Y-117481671D01*
X118224042Y-117431849D01*
X118213389Y-117429971D01*
X117840727Y-117347354D01*
X117830278Y-117344554D01*
X117466244Y-117229775D01*
X117456078Y-117226075D01*
X117103427Y-117080002D01*
X117093623Y-117075430D01*
X116755057Y-116899183D01*
X116745689Y-116893775D01*
X116423755Y-116688681D01*
X116414894Y-116682476D01*
X116112069Y-116450110D01*
X116103782Y-116443156D01*
X115822364Y-116185284D01*
X115814715Y-116177635D01*
X115556843Y-115896217D01*
X115549889Y-115887930D01*
X115317523Y-115585105D01*
X115311318Y-115576244D01*
X115106224Y-115254310D01*
X115100816Y-115244942D01*
X114973924Y-115001185D01*
X114924566Y-114906369D01*
X114919997Y-114896572D01*
X114890089Y-114824367D01*
X114773920Y-114543911D01*
X114770224Y-114533755D01*
X114655442Y-114169710D01*
X114652648Y-114159284D01*
X114570025Y-113786597D01*
X114568152Y-113775971D01*
X114518326Y-113397506D01*
X114517386Y-113386771D01*
X114500618Y-113002702D01*
X114500560Y-112999998D01*
X116994390Y-112999998D01*
X116994390Y-113000001D01*
X117014804Y-113285433D01*
X117075628Y-113565037D01*
X117075630Y-113565043D01*
X117075631Y-113565046D01*
X117174847Y-113831054D01*
X117175635Y-113833166D01*
X117312770Y-114084309D01*
X117312775Y-114084317D01*
X117484254Y-114313387D01*
X117484270Y-114313405D01*
X117686594Y-114515729D01*
X117686612Y-114515745D01*
X117915682Y-114687224D01*
X117915690Y-114687229D01*
X118166833Y-114824364D01*
X118166832Y-114824364D01*
X118166836Y-114824365D01*
X118166839Y-114824367D01*
X118434954Y-114924369D01*
X118434960Y-114924370D01*
X118434962Y-114924371D01*
X118714566Y-114985195D01*
X118714568Y-114985195D01*
X118714572Y-114985196D01*
X118968220Y-115003337D01*
X118999999Y-115005610D01*
X119000000Y-115005610D01*
X119000001Y-115005610D01*
X119028595Y-115003564D01*
X119285428Y-114985196D01*
X119565046Y-114924369D01*
X119833161Y-114824367D01*
X120084315Y-114687226D01*
X120313395Y-114515739D01*
X120515739Y-114313395D01*
X120687226Y-114084315D01*
X120824367Y-113833161D01*
X120924369Y-113565046D01*
X120985196Y-113285428D01*
X121005610Y-113000000D01*
X121005610Y-112999998D01*
X203494390Y-112999998D01*
X203494390Y-113000001D01*
X203514804Y-113285433D01*
X203575628Y-113565037D01*
X203575630Y-113565043D01*
X203575631Y-113565046D01*
X203674847Y-113831054D01*
X203675635Y-113833166D01*
X203812770Y-114084309D01*
X203812775Y-114084317D01*
X203984254Y-114313387D01*
X203984270Y-114313405D01*
X204186594Y-114515729D01*
X204186612Y-114515745D01*
X204415682Y-114687224D01*
X204415690Y-114687229D01*
X204666833Y-114824364D01*
X204666832Y-114824364D01*
X204666836Y-114824365D01*
X204666839Y-114824367D01*
X204934954Y-114924369D01*
X204934960Y-114924370D01*
X204934962Y-114924371D01*
X205214566Y-114985195D01*
X205214568Y-114985195D01*
X205214572Y-114985196D01*
X205468220Y-115003337D01*
X205499999Y-115005610D01*
X205500000Y-115005610D01*
X205500001Y-115005610D01*
X205528595Y-115003564D01*
X205785428Y-114985196D01*
X206065046Y-114924369D01*
X206333161Y-114824367D01*
X206584315Y-114687226D01*
X206813395Y-114515739D01*
X207015739Y-114313395D01*
X207187226Y-114084315D01*
X207324367Y-113833161D01*
X207424369Y-113565046D01*
X207485196Y-113285428D01*
X207505610Y-113000000D01*
X207505416Y-112997293D01*
X207491664Y-112805007D01*
X207485196Y-112714572D01*
X207424369Y-112434954D01*
X207324367Y-112166839D01*
X207244025Y-112019705D01*
X207187229Y-111915690D01*
X207187224Y-111915682D01*
X207015745Y-111686612D01*
X207015729Y-111686594D01*
X206813405Y-111484270D01*
X206813387Y-111484254D01*
X206584317Y-111312775D01*
X206584309Y-111312770D01*
X206333166Y-111175635D01*
X206333167Y-111175635D01*
X206225915Y-111135632D01*
X206065046Y-111075631D01*
X206065043Y-111075630D01*
X206065037Y-111075628D01*
X205785433Y-111014804D01*
X205500001Y-110994390D01*
X205499999Y-110994390D01*
X205214566Y-111014804D01*
X204934962Y-111075628D01*
X204666833Y-111175635D01*
X204415690Y-111312770D01*
X204415682Y-111312775D01*
X204186612Y-111484254D01*
X204186594Y-111484270D01*
X203984270Y-111686594D01*
X203984254Y-111686612D01*
X203812775Y-111915682D01*
X203812770Y-111915690D01*
X203675635Y-112166833D01*
X203575628Y-112434962D01*
X203514804Y-112714566D01*
X203494390Y-112999998D01*
X121005610Y-112999998D01*
X121005416Y-112997293D01*
X120991664Y-112805007D01*
X120985196Y-112714572D01*
X120924369Y-112434954D01*
X120824367Y-112166839D01*
X120744025Y-112019705D01*
X120687229Y-111915690D01*
X120687224Y-111915682D01*
X120515745Y-111686612D01*
X120515729Y-111686594D01*
X120313405Y-111484270D01*
X120313387Y-111484254D01*
X120084317Y-111312775D01*
X120084309Y-111312770D01*
X119833166Y-111175635D01*
X119833167Y-111175635D01*
X119725915Y-111135632D01*
X119565046Y-111075631D01*
X119565043Y-111075630D01*
X119565037Y-111075628D01*
X119285433Y-111014804D01*
X119000001Y-110994390D01*
X118999999Y-110994390D01*
X118714566Y-111014804D01*
X118434962Y-111075628D01*
X118166833Y-111175635D01*
X117915690Y-111312770D01*
X117915682Y-111312775D01*
X117686612Y-111484254D01*
X117686594Y-111484270D01*
X117484270Y-111686594D01*
X117484254Y-111686612D01*
X117312775Y-111915682D01*
X117312770Y-111915690D01*
X117175635Y-112166833D01*
X117075628Y-112434962D01*
X117014804Y-112714566D01*
X116994390Y-112999998D01*
X114500560Y-112999998D01*
X114500501Y-112997265D01*
X114500592Y-112805007D01*
X114502147Y-109499994D01*
X130019443Y-109499994D01*
X130019443Y-109500005D01*
X130039634Y-109743683D01*
X130039636Y-109743695D01*
X130099663Y-109980734D01*
X130197888Y-110204666D01*
X130331632Y-110409378D01*
X130497242Y-110589277D01*
X130497246Y-110589281D01*
X130690212Y-110739473D01*
X130905267Y-110855855D01*
X130905270Y-110855856D01*
X131136541Y-110935251D01*
X131136543Y-110935251D01*
X131136545Y-110935252D01*
X131377737Y-110975500D01*
X131377738Y-110975500D01*
X131622262Y-110975500D01*
X131622263Y-110975500D01*
X131863455Y-110935252D01*
X132094733Y-110855855D01*
X132309788Y-110739473D01*
X132502754Y-110589281D01*
X132668368Y-110409377D01*
X132802111Y-110204667D01*
X132900336Y-109980736D01*
X132960364Y-109743692D01*
X132980557Y-109500000D01*
X132980557Y-109499994D01*
X135019443Y-109499994D01*
X135019443Y-109500005D01*
X135039634Y-109743683D01*
X135039636Y-109743695D01*
X135099663Y-109980734D01*
X135197888Y-110204666D01*
X135331632Y-110409378D01*
X135497242Y-110589277D01*
X135497246Y-110589281D01*
X135690212Y-110739473D01*
X135905267Y-110855855D01*
X135905270Y-110855856D01*
X136136541Y-110935251D01*
X136136543Y-110935251D01*
X136136545Y-110935252D01*
X136377737Y-110975500D01*
X136377738Y-110975500D01*
X136622262Y-110975500D01*
X136622263Y-110975500D01*
X136863455Y-110935252D01*
X137094733Y-110855855D01*
X137309788Y-110739473D01*
X137502754Y-110589281D01*
X137668368Y-110409377D01*
X137802111Y-110204667D01*
X137900336Y-109980736D01*
X137960364Y-109743692D01*
X137980557Y-109500000D01*
X137980557Y-109499994D01*
X141519443Y-109499994D01*
X141519443Y-109500005D01*
X141539634Y-109743683D01*
X141539636Y-109743695D01*
X141599663Y-109980734D01*
X141697888Y-110204666D01*
X141831632Y-110409378D01*
X141997242Y-110589277D01*
X141997246Y-110589281D01*
X142190212Y-110739473D01*
X142405267Y-110855855D01*
X142405270Y-110855856D01*
X142636541Y-110935251D01*
X142636543Y-110935251D01*
X142636545Y-110935252D01*
X142877737Y-110975500D01*
X142877738Y-110975500D01*
X143122262Y-110975500D01*
X143122263Y-110975500D01*
X143363455Y-110935252D01*
X143594733Y-110855855D01*
X143809788Y-110739473D01*
X144002754Y-110589281D01*
X144168368Y-110409377D01*
X144302111Y-110204667D01*
X144400336Y-109980736D01*
X144460364Y-109743692D01*
X144480557Y-109500000D01*
X144480557Y-109499994D01*
X146519443Y-109499994D01*
X146519443Y-109500005D01*
X146539634Y-109743683D01*
X146539636Y-109743695D01*
X146599663Y-109980734D01*
X146697888Y-110204666D01*
X146831632Y-110409378D01*
X146997242Y-110589277D01*
X146997246Y-110589281D01*
X147190212Y-110739473D01*
X147405267Y-110855855D01*
X147405270Y-110855856D01*
X147636541Y-110935251D01*
X147636543Y-110935251D01*
X147636545Y-110935252D01*
X147877737Y-110975500D01*
X147877738Y-110975500D01*
X148122262Y-110975500D01*
X148122263Y-110975500D01*
X148363455Y-110935252D01*
X148594733Y-110855855D01*
X148809788Y-110739473D01*
X149002754Y-110589281D01*
X149168368Y-110409377D01*
X149302111Y-110204667D01*
X149400336Y-109980736D01*
X149460364Y-109743692D01*
X149480557Y-109500000D01*
X149480557Y-109499994D01*
X153019443Y-109499994D01*
X153019443Y-109500005D01*
X153039634Y-109743683D01*
X153039636Y-109743695D01*
X153099663Y-109980734D01*
X153197888Y-110204666D01*
X153331632Y-110409378D01*
X153497242Y-110589277D01*
X153497246Y-110589281D01*
X153690212Y-110739473D01*
X153905267Y-110855855D01*
X153905270Y-110855856D01*
X154136541Y-110935251D01*
X154136543Y-110935251D01*
X154136545Y-110935252D01*
X154377737Y-110975500D01*
X154377738Y-110975500D01*
X154622262Y-110975500D01*
X154622263Y-110975500D01*
X154863455Y-110935252D01*
X155094733Y-110855855D01*
X155309788Y-110739473D01*
X155502754Y-110589281D01*
X155668368Y-110409377D01*
X155802111Y-110204667D01*
X155900336Y-109980736D01*
X155960364Y-109743692D01*
X155980557Y-109500000D01*
X155980557Y-109499994D01*
X158019443Y-109499994D01*
X158019443Y-109500005D01*
X158039634Y-109743683D01*
X158039636Y-109743695D01*
X158099663Y-109980734D01*
X158197888Y-110204666D01*
X158331632Y-110409378D01*
X158497242Y-110589277D01*
X158497246Y-110589281D01*
X158690212Y-110739473D01*
X158905267Y-110855855D01*
X158905270Y-110855856D01*
X159136541Y-110935251D01*
X159136543Y-110935251D01*
X159136545Y-110935252D01*
X159377737Y-110975500D01*
X159377738Y-110975500D01*
X159622262Y-110975500D01*
X159622263Y-110975500D01*
X159863455Y-110935252D01*
X160094733Y-110855855D01*
X160309788Y-110739473D01*
X160502754Y-110589281D01*
X160668368Y-110409377D01*
X160802111Y-110204667D01*
X160900336Y-109980736D01*
X160960364Y-109743692D01*
X160980557Y-109500000D01*
X160980557Y-109499994D01*
X164519443Y-109499994D01*
X164519443Y-109500005D01*
X164539634Y-109743683D01*
X164539636Y-109743695D01*
X164599663Y-109980734D01*
X164697888Y-110204666D01*
X164831632Y-110409378D01*
X164997242Y-110589277D01*
X164997246Y-110589281D01*
X165190212Y-110739473D01*
X165405267Y-110855855D01*
X165405270Y-110855856D01*
X165636541Y-110935251D01*
X165636543Y-110935251D01*
X165636545Y-110935252D01*
X165877737Y-110975500D01*
X165877738Y-110975500D01*
X166122262Y-110975500D01*
X166122263Y-110975500D01*
X166363455Y-110935252D01*
X166594733Y-110855855D01*
X166809788Y-110739473D01*
X167002754Y-110589281D01*
X167168368Y-110409377D01*
X167302111Y-110204667D01*
X167400336Y-109980736D01*
X167460364Y-109743692D01*
X167480557Y-109500000D01*
X167480557Y-109499994D01*
X169519443Y-109499994D01*
X169519443Y-109500005D01*
X169539634Y-109743683D01*
X169539636Y-109743695D01*
X169599663Y-109980734D01*
X169697888Y-110204666D01*
X169831632Y-110409378D01*
X169997242Y-110589277D01*
X169997246Y-110589281D01*
X170190212Y-110739473D01*
X170405267Y-110855855D01*
X170405270Y-110855856D01*
X170636541Y-110935251D01*
X170636543Y-110935251D01*
X170636545Y-110935252D01*
X170877737Y-110975500D01*
X170877738Y-110975500D01*
X171122262Y-110975500D01*
X171122263Y-110975500D01*
X171363455Y-110935252D01*
X171594733Y-110855855D01*
X171809788Y-110739473D01*
X172002754Y-110589281D01*
X172168368Y-110409377D01*
X172302111Y-110204667D01*
X172400336Y-109980736D01*
X172460364Y-109743692D01*
X172480557Y-109500000D01*
X172480557Y-109499994D01*
X176019443Y-109499994D01*
X176019443Y-109500005D01*
X176039634Y-109743683D01*
X176039636Y-109743695D01*
X176099663Y-109980734D01*
X176197888Y-110204666D01*
X176331632Y-110409378D01*
X176497242Y-110589277D01*
X176497246Y-110589281D01*
X176690212Y-110739473D01*
X176905267Y-110855855D01*
X176905270Y-110855856D01*
X177136541Y-110935251D01*
X177136543Y-110935251D01*
X177136545Y-110935252D01*
X177377737Y-110975500D01*
X177377738Y-110975500D01*
X177622262Y-110975500D01*
X177622263Y-110975500D01*
X177863455Y-110935252D01*
X178094733Y-110855855D01*
X178309788Y-110739473D01*
X178502754Y-110589281D01*
X178668368Y-110409377D01*
X178802111Y-110204667D01*
X178900336Y-109980736D01*
X178960364Y-109743692D01*
X178980557Y-109500000D01*
X178980557Y-109499994D01*
X181019443Y-109499994D01*
X181019443Y-109500005D01*
X181039634Y-109743683D01*
X181039636Y-109743695D01*
X181099663Y-109980734D01*
X181197888Y-110204666D01*
X181331632Y-110409378D01*
X181497242Y-110589277D01*
X181497246Y-110589281D01*
X181690212Y-110739473D01*
X181905267Y-110855855D01*
X181905270Y-110855856D01*
X182136541Y-110935251D01*
X182136543Y-110935251D01*
X182136545Y-110935252D01*
X182377737Y-110975500D01*
X182377738Y-110975500D01*
X182622262Y-110975500D01*
X182622263Y-110975500D01*
X182863455Y-110935252D01*
X183094733Y-110855855D01*
X183309788Y-110739473D01*
X183502754Y-110589281D01*
X183668368Y-110409377D01*
X183802111Y-110204667D01*
X183900336Y-109980736D01*
X183960364Y-109743692D01*
X183980557Y-109500000D01*
X183980557Y-109499994D01*
X187519443Y-109499994D01*
X187519443Y-109500005D01*
X187539634Y-109743683D01*
X187539636Y-109743695D01*
X187599663Y-109980734D01*
X187697888Y-110204666D01*
X187831632Y-110409378D01*
X187997242Y-110589277D01*
X187997246Y-110589281D01*
X188190212Y-110739473D01*
X188405267Y-110855855D01*
X188405270Y-110855856D01*
X188636541Y-110935251D01*
X188636543Y-110935251D01*
X188636545Y-110935252D01*
X188877737Y-110975500D01*
X188877738Y-110975500D01*
X189122262Y-110975500D01*
X189122263Y-110975500D01*
X189363455Y-110935252D01*
X189594733Y-110855855D01*
X189809788Y-110739473D01*
X190002754Y-110589281D01*
X190168368Y-110409377D01*
X190302111Y-110204667D01*
X190400336Y-109980736D01*
X190460364Y-109743692D01*
X190480557Y-109500000D01*
X190480557Y-109499994D01*
X192519443Y-109499994D01*
X192519443Y-109500005D01*
X192539634Y-109743683D01*
X192539636Y-109743695D01*
X192599663Y-109980734D01*
X192697888Y-110204666D01*
X192831632Y-110409378D01*
X192997242Y-110589277D01*
X192997246Y-110589281D01*
X193190212Y-110739473D01*
X193405267Y-110855855D01*
X193405270Y-110855856D01*
X193636541Y-110935251D01*
X193636543Y-110935251D01*
X193636545Y-110935252D01*
X193877737Y-110975500D01*
X193877738Y-110975500D01*
X194122262Y-110975500D01*
X194122263Y-110975500D01*
X194363455Y-110935252D01*
X194594733Y-110855855D01*
X194809788Y-110739473D01*
X195002754Y-110589281D01*
X195168368Y-110409377D01*
X195302111Y-110204667D01*
X195400336Y-109980736D01*
X195460364Y-109743692D01*
X195480557Y-109500000D01*
X195460364Y-109256308D01*
X195400336Y-109019264D01*
X195302111Y-108795333D01*
X195168368Y-108590623D01*
X195168367Y-108590621D01*
X195002757Y-108410722D01*
X195002747Y-108410713D01*
X194809791Y-108260529D01*
X194809787Y-108260526D01*
X194594734Y-108144145D01*
X194594729Y-108144143D01*
X194363458Y-108064748D01*
X194182561Y-108034562D01*
X194122263Y-108024500D01*
X193877737Y-108024500D01*
X193829498Y-108032549D01*
X193636541Y-108064748D01*
X193405270Y-108144143D01*
X193405265Y-108144145D01*
X193190212Y-108260526D01*
X193190208Y-108260529D01*
X192997252Y-108410713D01*
X192997242Y-108410722D01*
X192831632Y-108590621D01*
X192697888Y-108795333D01*
X192599663Y-109019265D01*
X192539636Y-109256304D01*
X192539634Y-109256316D01*
X192519443Y-109499994D01*
X190480557Y-109499994D01*
X190460364Y-109256308D01*
X190400336Y-109019264D01*
X190302111Y-108795333D01*
X190168368Y-108590623D01*
X190168367Y-108590621D01*
X190002757Y-108410722D01*
X190002747Y-108410713D01*
X189809791Y-108260529D01*
X189809787Y-108260526D01*
X189594734Y-108144145D01*
X189594729Y-108144143D01*
X189363458Y-108064748D01*
X189182561Y-108034562D01*
X189122263Y-108024500D01*
X188877737Y-108024500D01*
X188829498Y-108032549D01*
X188636541Y-108064748D01*
X188405270Y-108144143D01*
X188405265Y-108144145D01*
X188190212Y-108260526D01*
X188190208Y-108260529D01*
X187997252Y-108410713D01*
X187997242Y-108410722D01*
X187831632Y-108590621D01*
X187697888Y-108795333D01*
X187599663Y-109019265D01*
X187539636Y-109256304D01*
X187539634Y-109256316D01*
X187519443Y-109499994D01*
X183980557Y-109499994D01*
X183960364Y-109256308D01*
X183900336Y-109019264D01*
X183802111Y-108795333D01*
X183668368Y-108590623D01*
X183668367Y-108590621D01*
X183502757Y-108410722D01*
X183502747Y-108410713D01*
X183309791Y-108260529D01*
X183309787Y-108260526D01*
X183094734Y-108144145D01*
X183094729Y-108144143D01*
X182863458Y-108064748D01*
X182682561Y-108034562D01*
X182622263Y-108024500D01*
X182377737Y-108024500D01*
X182329498Y-108032549D01*
X182136541Y-108064748D01*
X181905270Y-108144143D01*
X181905265Y-108144145D01*
X181690212Y-108260526D01*
X181690208Y-108260529D01*
X181497252Y-108410713D01*
X181497242Y-108410722D01*
X181331632Y-108590621D01*
X181197888Y-108795333D01*
X181099663Y-109019265D01*
X181039636Y-109256304D01*
X181039634Y-109256316D01*
X181019443Y-109499994D01*
X178980557Y-109499994D01*
X178960364Y-109256308D01*
X178900336Y-109019264D01*
X178802111Y-108795333D01*
X178668368Y-108590623D01*
X178668367Y-108590621D01*
X178502757Y-108410722D01*
X178502747Y-108410713D01*
X178309791Y-108260529D01*
X178309787Y-108260526D01*
X178094734Y-108144145D01*
X178094729Y-108144143D01*
X177863458Y-108064748D01*
X177682561Y-108034562D01*
X177622263Y-108024500D01*
X177377737Y-108024500D01*
X177329498Y-108032549D01*
X177136541Y-108064748D01*
X176905270Y-108144143D01*
X176905265Y-108144145D01*
X176690212Y-108260526D01*
X176690208Y-108260529D01*
X176497252Y-108410713D01*
X176497242Y-108410722D01*
X176331632Y-108590621D01*
X176197888Y-108795333D01*
X176099663Y-109019265D01*
X176039636Y-109256304D01*
X176039634Y-109256316D01*
X176019443Y-109499994D01*
X172480557Y-109499994D01*
X172460364Y-109256308D01*
X172400336Y-109019264D01*
X172302111Y-108795333D01*
X172168368Y-108590623D01*
X172168367Y-108590621D01*
X172002757Y-108410722D01*
X172002747Y-108410713D01*
X171809791Y-108260529D01*
X171809787Y-108260526D01*
X171594734Y-108144145D01*
X171594729Y-108144143D01*
X171363458Y-108064748D01*
X171182561Y-108034562D01*
X171122263Y-108024500D01*
X170877737Y-108024500D01*
X170829498Y-108032549D01*
X170636541Y-108064748D01*
X170405270Y-108144143D01*
X170405265Y-108144145D01*
X170190212Y-108260526D01*
X170190208Y-108260529D01*
X169997252Y-108410713D01*
X169997242Y-108410722D01*
X169831632Y-108590621D01*
X169697888Y-108795333D01*
X169599663Y-109019265D01*
X169539636Y-109256304D01*
X169539634Y-109256316D01*
X169519443Y-109499994D01*
X167480557Y-109499994D01*
X167460364Y-109256308D01*
X167400336Y-109019264D01*
X167302111Y-108795333D01*
X167168368Y-108590623D01*
X167168367Y-108590621D01*
X167002757Y-108410722D01*
X167002747Y-108410713D01*
X166809791Y-108260529D01*
X166809787Y-108260526D01*
X166594734Y-108144145D01*
X166594729Y-108144143D01*
X166363458Y-108064748D01*
X166182561Y-108034562D01*
X166122263Y-108024500D01*
X165877737Y-108024500D01*
X165829498Y-108032549D01*
X165636541Y-108064748D01*
X165405270Y-108144143D01*
X165405265Y-108144145D01*
X165190212Y-108260526D01*
X165190208Y-108260529D01*
X164997252Y-108410713D01*
X164997242Y-108410722D01*
X164831632Y-108590621D01*
X164697888Y-108795333D01*
X164599663Y-109019265D01*
X164539636Y-109256304D01*
X164539634Y-109256316D01*
X164519443Y-109499994D01*
X160980557Y-109499994D01*
X160960364Y-109256308D01*
X160900336Y-109019264D01*
X160802111Y-108795333D01*
X160668368Y-108590623D01*
X160668367Y-108590621D01*
X160502757Y-108410722D01*
X160502747Y-108410713D01*
X160309791Y-108260529D01*
X160309787Y-108260526D01*
X160094734Y-108144145D01*
X160094729Y-108144143D01*
X159863458Y-108064748D01*
X159682561Y-108034562D01*
X159622263Y-108024500D01*
X159377737Y-108024500D01*
X159329498Y-108032549D01*
X159136541Y-108064748D01*
X158905270Y-108144143D01*
X158905265Y-108144145D01*
X158690212Y-108260526D01*
X158690208Y-108260529D01*
X158497252Y-108410713D01*
X158497242Y-108410722D01*
X158331632Y-108590621D01*
X158197888Y-108795333D01*
X158099663Y-109019265D01*
X158039636Y-109256304D01*
X158039634Y-109256316D01*
X158019443Y-109499994D01*
X155980557Y-109499994D01*
X155960364Y-109256308D01*
X155900336Y-109019264D01*
X155802111Y-108795333D01*
X155668368Y-108590623D01*
X155668367Y-108590621D01*
X155502757Y-108410722D01*
X155502747Y-108410713D01*
X155309791Y-108260529D01*
X155309787Y-108260526D01*
X155094734Y-108144145D01*
X155094729Y-108144143D01*
X154863458Y-108064748D01*
X154682561Y-108034562D01*
X154622263Y-108024500D01*
X154377737Y-108024500D01*
X154329498Y-108032549D01*
X154136541Y-108064748D01*
X153905270Y-108144143D01*
X153905265Y-108144145D01*
X153690212Y-108260526D01*
X153690208Y-108260529D01*
X153497252Y-108410713D01*
X153497242Y-108410722D01*
X153331632Y-108590621D01*
X153197888Y-108795333D01*
X153099663Y-109019265D01*
X153039636Y-109256304D01*
X153039634Y-109256316D01*
X153019443Y-109499994D01*
X149480557Y-109499994D01*
X149460364Y-109256308D01*
X149400336Y-109019264D01*
X149302111Y-108795333D01*
X149168368Y-108590623D01*
X149168367Y-108590621D01*
X149002757Y-108410722D01*
X149002747Y-108410713D01*
X148809791Y-108260529D01*
X148809787Y-108260526D01*
X148594734Y-108144145D01*
X148594729Y-108144143D01*
X148363458Y-108064748D01*
X148182561Y-108034562D01*
X148122263Y-108024500D01*
X147877737Y-108024500D01*
X147829498Y-108032549D01*
X147636541Y-108064748D01*
X147405270Y-108144143D01*
X147405265Y-108144145D01*
X147190212Y-108260526D01*
X147190208Y-108260529D01*
X146997252Y-108410713D01*
X146997242Y-108410722D01*
X146831632Y-108590621D01*
X146697888Y-108795333D01*
X146599663Y-109019265D01*
X146539636Y-109256304D01*
X146539634Y-109256316D01*
X146519443Y-109499994D01*
X144480557Y-109499994D01*
X144460364Y-109256308D01*
X144400336Y-109019264D01*
X144302111Y-108795333D01*
X144168368Y-108590623D01*
X144168367Y-108590621D01*
X144002757Y-108410722D01*
X144002747Y-108410713D01*
X143809791Y-108260529D01*
X143809787Y-108260526D01*
X143594734Y-108144145D01*
X143594729Y-108144143D01*
X143363458Y-108064748D01*
X143182561Y-108034562D01*
X143122263Y-108024500D01*
X142877737Y-108024500D01*
X142829498Y-108032549D01*
X142636541Y-108064748D01*
X142405270Y-108144143D01*
X142405265Y-108144145D01*
X142190212Y-108260526D01*
X142190208Y-108260529D01*
X141997252Y-108410713D01*
X141997242Y-108410722D01*
X141831632Y-108590621D01*
X141697888Y-108795333D01*
X141599663Y-109019265D01*
X141539636Y-109256304D01*
X141539634Y-109256316D01*
X141519443Y-109499994D01*
X137980557Y-109499994D01*
X137960364Y-109256308D01*
X137900336Y-109019264D01*
X137802111Y-108795333D01*
X137668368Y-108590623D01*
X137668367Y-108590621D01*
X137502757Y-108410722D01*
X137502747Y-108410713D01*
X137309791Y-108260529D01*
X137309787Y-108260526D01*
X137094734Y-108144145D01*
X137094729Y-108144143D01*
X136863458Y-108064748D01*
X136682561Y-108034562D01*
X136622263Y-108024500D01*
X136377737Y-108024500D01*
X136329498Y-108032549D01*
X136136541Y-108064748D01*
X135905270Y-108144143D01*
X135905265Y-108144145D01*
X135690212Y-108260526D01*
X135690208Y-108260529D01*
X135497252Y-108410713D01*
X135497242Y-108410722D01*
X135331632Y-108590621D01*
X135197888Y-108795333D01*
X135099663Y-109019265D01*
X135039636Y-109256304D01*
X135039634Y-109256316D01*
X135019443Y-109499994D01*
X132980557Y-109499994D01*
X132960364Y-109256308D01*
X132900336Y-109019264D01*
X132802111Y-108795333D01*
X132668368Y-108590623D01*
X132668367Y-108590621D01*
X132502757Y-108410722D01*
X132502747Y-108410713D01*
X132309791Y-108260529D01*
X132309787Y-108260526D01*
X132094734Y-108144145D01*
X132094729Y-108144143D01*
X131863458Y-108064748D01*
X131682561Y-108034562D01*
X131622263Y-108024500D01*
X131377737Y-108024500D01*
X131329498Y-108032549D01*
X131136541Y-108064748D01*
X130905270Y-108144143D01*
X130905265Y-108144145D01*
X130690212Y-108260526D01*
X130690208Y-108260529D01*
X130497252Y-108410713D01*
X130497242Y-108410722D01*
X130331632Y-108590621D01*
X130197888Y-108795333D01*
X130099663Y-109019265D01*
X130039636Y-109256304D01*
X130039634Y-109256316D01*
X130019443Y-109499994D01*
X114502147Y-109499994D01*
X114505442Y-102499999D01*
X135128341Y-102499999D01*
X135128341Y-102500000D01*
X135148936Y-102735403D01*
X135148938Y-102735413D01*
X135210094Y-102963655D01*
X135210096Y-102963659D01*
X135210097Y-102963663D01*
X135226885Y-102999664D01*
X135309965Y-103177830D01*
X135309967Y-103177834D01*
X135335172Y-103213830D01*
X135445505Y-103371401D01*
X135612599Y-103538495D01*
X135664017Y-103574498D01*
X135806165Y-103674032D01*
X135806167Y-103674033D01*
X135806170Y-103674035D01*
X136020337Y-103773903D01*
X136248592Y-103835063D01*
X136436918Y-103851539D01*
X136483999Y-103855659D01*
X136484000Y-103855659D01*
X136484001Y-103855659D01*
X136523234Y-103852226D01*
X136719408Y-103835063D01*
X136947663Y-103773903D01*
X137161830Y-103674035D01*
X137355401Y-103538495D01*
X137522495Y-103371401D01*
X137658035Y-103177830D01*
X137757903Y-102963663D01*
X137819063Y-102735408D01*
X137839659Y-102500000D01*
X137839659Y-102499999D01*
X146558341Y-102499999D01*
X146558341Y-102500000D01*
X146578936Y-102735403D01*
X146578938Y-102735413D01*
X146640094Y-102963655D01*
X146640096Y-102963659D01*
X146640097Y-102963663D01*
X146656885Y-102999664D01*
X146739965Y-103177830D01*
X146739967Y-103177834D01*
X146765172Y-103213830D01*
X146875505Y-103371401D01*
X147042599Y-103538495D01*
X147094017Y-103574498D01*
X147236165Y-103674032D01*
X147236167Y-103674033D01*
X147236170Y-103674035D01*
X147450337Y-103773903D01*
X147678592Y-103835063D01*
X147866918Y-103851539D01*
X147913999Y-103855659D01*
X147914000Y-103855659D01*
X147914001Y-103855659D01*
X147953234Y-103852226D01*
X148149408Y-103835063D01*
X148377663Y-103773903D01*
X148591830Y-103674035D01*
X148785401Y-103538495D01*
X148952495Y-103371401D01*
X149088035Y-103177830D01*
X149187903Y-102963663D01*
X149249063Y-102735408D01*
X149269659Y-102500000D01*
X149269659Y-102499999D01*
X158242341Y-102499999D01*
X158242341Y-102500000D01*
X158262936Y-102735403D01*
X158262938Y-102735413D01*
X158324094Y-102963655D01*
X158324096Y-102963659D01*
X158324097Y-102963663D01*
X158340885Y-102999664D01*
X158423965Y-103177830D01*
X158423967Y-103177834D01*
X158449172Y-103213830D01*
X158559505Y-103371401D01*
X158726599Y-103538495D01*
X158778017Y-103574498D01*
X158920165Y-103674032D01*
X158920167Y-103674033D01*
X158920170Y-103674035D01*
X159134337Y-103773903D01*
X159362592Y-103835063D01*
X159550918Y-103851539D01*
X159597999Y-103855659D01*
X159598000Y-103855659D01*
X159598001Y-103855659D01*
X159637234Y-103852226D01*
X159833408Y-103835063D01*
X160061663Y-103773903D01*
X160275830Y-103674035D01*
X160469401Y-103538495D01*
X160636495Y-103371401D01*
X160772035Y-103177830D01*
X160871903Y-102963663D01*
X160933063Y-102735408D01*
X160950509Y-102535999D01*
X169672341Y-102535999D01*
X169672341Y-102536000D01*
X169692936Y-102771403D01*
X169692938Y-102771413D01*
X169754094Y-102999655D01*
X169754096Y-102999659D01*
X169754097Y-102999663D01*
X169790547Y-103077830D01*
X169853965Y-103213830D01*
X169853967Y-103213834D01*
X169894277Y-103271402D01*
X169989505Y-103407401D01*
X170156599Y-103574495D01*
X170253384Y-103642265D01*
X170350165Y-103710032D01*
X170350167Y-103710033D01*
X170350170Y-103710035D01*
X170564337Y-103809903D01*
X170792592Y-103871063D01*
X170980918Y-103887539D01*
X171027999Y-103891659D01*
X171028000Y-103891659D01*
X171028001Y-103891659D01*
X171067234Y-103888226D01*
X171263408Y-103871063D01*
X171491663Y-103809903D01*
X171705830Y-103710035D01*
X171899401Y-103574495D01*
X172066495Y-103407401D01*
X172202035Y-103213830D01*
X172301903Y-102999663D01*
X172363063Y-102771408D01*
X172383659Y-102536000D01*
X172371760Y-102399999D01*
X181116341Y-102399999D01*
X181116341Y-102400000D01*
X181136936Y-102635403D01*
X181136938Y-102635413D01*
X181198094Y-102863655D01*
X181198096Y-102863659D01*
X181198097Y-102863663D01*
X181297965Y-103077830D01*
X181297967Y-103077834D01*
X181393193Y-103213830D01*
X181433505Y-103271401D01*
X181600599Y-103438495D01*
X181697384Y-103506265D01*
X181794165Y-103574032D01*
X181794167Y-103574033D01*
X181794170Y-103574035D01*
X182008337Y-103673903D01*
X182008343Y-103673904D01*
X182008344Y-103673905D01*
X182063285Y-103688626D01*
X182236592Y-103735063D01*
X182424918Y-103751539D01*
X182471999Y-103755659D01*
X182472000Y-103755659D01*
X182472001Y-103755659D01*
X182511234Y-103752226D01*
X182707408Y-103735063D01*
X182935663Y-103673903D01*
X183149830Y-103574035D01*
X183343401Y-103438495D01*
X183510495Y-103271401D01*
X183646035Y-103077830D01*
X183745903Y-102863663D01*
X183807063Y-102635408D01*
X183827659Y-102400000D01*
X183827659Y-102399999D01*
X192744341Y-102399999D01*
X192744341Y-102400000D01*
X192764936Y-102635403D01*
X192764938Y-102635413D01*
X192826094Y-102863655D01*
X192826096Y-102863659D01*
X192826097Y-102863663D01*
X192925965Y-103077830D01*
X192925967Y-103077834D01*
X193021193Y-103213830D01*
X193061505Y-103271401D01*
X193228599Y-103438495D01*
X193325384Y-103506265D01*
X193422165Y-103574032D01*
X193422167Y-103574033D01*
X193422170Y-103574035D01*
X193636337Y-103673903D01*
X193636343Y-103673904D01*
X193636344Y-103673905D01*
X193691285Y-103688626D01*
X193864592Y-103735063D01*
X194052918Y-103751539D01*
X194099999Y-103755659D01*
X194100000Y-103755659D01*
X194100001Y-103755659D01*
X194139234Y-103752226D01*
X194335408Y-103735063D01*
X194563663Y-103673903D01*
X194777830Y-103574035D01*
X194971401Y-103438495D01*
X195138495Y-103271401D01*
X195274035Y-103077830D01*
X195373903Y-102863663D01*
X195435063Y-102635408D01*
X195455659Y-102400000D01*
X195435063Y-102164592D01*
X195373903Y-101936337D01*
X195274035Y-101722171D01*
X195233722Y-101664597D01*
X195138494Y-101528597D01*
X194971402Y-101361506D01*
X194971395Y-101361501D01*
X194777834Y-101225967D01*
X194777830Y-101225965D01*
X194777828Y-101225964D01*
X194563663Y-101126097D01*
X194563659Y-101126096D01*
X194563655Y-101126094D01*
X194335413Y-101064938D01*
X194335403Y-101064936D01*
X194100001Y-101044341D01*
X194099999Y-101044341D01*
X193864596Y-101064936D01*
X193864586Y-101064938D01*
X193636344Y-101126094D01*
X193636335Y-101126098D01*
X193422171Y-101225964D01*
X193422169Y-101225965D01*
X193228597Y-101361505D01*
X193061505Y-101528597D01*
X192925965Y-101722169D01*
X192925964Y-101722171D01*
X192826098Y-101936335D01*
X192826094Y-101936344D01*
X192764938Y-102164586D01*
X192764936Y-102164596D01*
X192744341Y-102399999D01*
X183827659Y-102399999D01*
X183807063Y-102164592D01*
X183745903Y-101936337D01*
X183646035Y-101722171D01*
X183605722Y-101664597D01*
X183510494Y-101528597D01*
X183343402Y-101361506D01*
X183343395Y-101361501D01*
X183149834Y-101225967D01*
X183149830Y-101225965D01*
X183149828Y-101225964D01*
X182935663Y-101126097D01*
X182935659Y-101126096D01*
X182935655Y-101126094D01*
X182707413Y-101064938D01*
X182707403Y-101064936D01*
X182472001Y-101044341D01*
X182471999Y-101044341D01*
X182236596Y-101064936D01*
X182236586Y-101064938D01*
X182008344Y-101126094D01*
X182008335Y-101126098D01*
X181794171Y-101225964D01*
X181794169Y-101225965D01*
X181600597Y-101361505D01*
X181433505Y-101528597D01*
X181297965Y-101722169D01*
X181297964Y-101722171D01*
X181198098Y-101936335D01*
X181198094Y-101936344D01*
X181136938Y-102164586D01*
X181136936Y-102164596D01*
X181116341Y-102399999D01*
X172371760Y-102399999D01*
X172363063Y-102300592D01*
X172301903Y-102072337D01*
X172202035Y-101858171D01*
X172176827Y-101822169D01*
X172066494Y-101664597D01*
X171899402Y-101497506D01*
X171899395Y-101497501D01*
X171705834Y-101361967D01*
X171705830Y-101361965D01*
X171628628Y-101325965D01*
X171491663Y-101262097D01*
X171491659Y-101262096D01*
X171491655Y-101262094D01*
X171263413Y-101200938D01*
X171263403Y-101200936D01*
X171028001Y-101180341D01*
X171027999Y-101180341D01*
X170792596Y-101200936D01*
X170792586Y-101200938D01*
X170564344Y-101262094D01*
X170564335Y-101262098D01*
X170350171Y-101361964D01*
X170350169Y-101361965D01*
X170156597Y-101497505D01*
X169989505Y-101664597D01*
X169853965Y-101858169D01*
X169853964Y-101858171D01*
X169754098Y-102072335D01*
X169754094Y-102072344D01*
X169692938Y-102300586D01*
X169692936Y-102300596D01*
X169672341Y-102535999D01*
X160950509Y-102535999D01*
X160953659Y-102500000D01*
X160933063Y-102264592D01*
X160871903Y-102036337D01*
X160772035Y-101822171D01*
X160702014Y-101722169D01*
X160636494Y-101628597D01*
X160469402Y-101461506D01*
X160469395Y-101461501D01*
X160275834Y-101325967D01*
X160275830Y-101325965D01*
X160275828Y-101325964D01*
X160061663Y-101226097D01*
X160061659Y-101226096D01*
X160061655Y-101226094D01*
X159833413Y-101164938D01*
X159833403Y-101164936D01*
X159598001Y-101144341D01*
X159597999Y-101144341D01*
X159362596Y-101164936D01*
X159362586Y-101164938D01*
X159134344Y-101226094D01*
X159134335Y-101226098D01*
X158920171Y-101325964D01*
X158920169Y-101325965D01*
X158726597Y-101461505D01*
X158559505Y-101628597D01*
X158423965Y-101822169D01*
X158423964Y-101822171D01*
X158324098Y-102036335D01*
X158324094Y-102036344D01*
X158262938Y-102264586D01*
X158262936Y-102264596D01*
X158242341Y-102499999D01*
X149269659Y-102499999D01*
X149249063Y-102264592D01*
X149187903Y-102036337D01*
X149088035Y-101822171D01*
X149018014Y-101722169D01*
X148952494Y-101628597D01*
X148785402Y-101461506D01*
X148785395Y-101461501D01*
X148591834Y-101325967D01*
X148591830Y-101325965D01*
X148591828Y-101325964D01*
X148377663Y-101226097D01*
X148377659Y-101226096D01*
X148377655Y-101226094D01*
X148149413Y-101164938D01*
X148149403Y-101164936D01*
X147914001Y-101144341D01*
X147913999Y-101144341D01*
X147678596Y-101164936D01*
X147678586Y-101164938D01*
X147450344Y-101226094D01*
X147450335Y-101226098D01*
X147236171Y-101325964D01*
X147236169Y-101325965D01*
X147042597Y-101461505D01*
X146875505Y-101628597D01*
X146739965Y-101822169D01*
X146739964Y-101822171D01*
X146640098Y-102036335D01*
X146640094Y-102036344D01*
X146578938Y-102264586D01*
X146578936Y-102264596D01*
X146558341Y-102499999D01*
X137839659Y-102499999D01*
X137819063Y-102264592D01*
X137757903Y-102036337D01*
X137658035Y-101822171D01*
X137588014Y-101722169D01*
X137522494Y-101628597D01*
X137355402Y-101461506D01*
X137355395Y-101461501D01*
X137161834Y-101325967D01*
X137161830Y-101325965D01*
X137161828Y-101325964D01*
X136947663Y-101226097D01*
X136947659Y-101226096D01*
X136947655Y-101226094D01*
X136719413Y-101164938D01*
X136719403Y-101164936D01*
X136484001Y-101144341D01*
X136483999Y-101144341D01*
X136248596Y-101164936D01*
X136248586Y-101164938D01*
X136020344Y-101226094D01*
X136020335Y-101226098D01*
X135806171Y-101325964D01*
X135806169Y-101325965D01*
X135612597Y-101461505D01*
X135445505Y-101628597D01*
X135309965Y-101822169D01*
X135309964Y-101822171D01*
X135210098Y-102036335D01*
X135210094Y-102036344D01*
X135148938Y-102264586D01*
X135148936Y-102264596D01*
X135128341Y-102499999D01*
X114505442Y-102499999D01*
X114509003Y-94933071D01*
X121015499Y-94933071D01*
X121040497Y-95058738D01*
X121040499Y-95058744D01*
X121089534Y-95177125D01*
X121160726Y-95283673D01*
X123156326Y-97279273D01*
X123156329Y-97279275D01*
X123156331Y-97279277D01*
X123262873Y-97350465D01*
X123381256Y-97399501D01*
X123381260Y-97399501D01*
X123381261Y-97399502D01*
X123506928Y-97424500D01*
X123506931Y-97424500D01*
X129731071Y-97424500D01*
X129815615Y-97407682D01*
X129856744Y-97399501D01*
X129975127Y-97350465D01*
X130081669Y-97279277D01*
X134363277Y-92997669D01*
X134434465Y-92891127D01*
X134483501Y-92772744D01*
X134483767Y-92771408D01*
X134508500Y-92647069D01*
X134508500Y-92499999D01*
X135128341Y-92499999D01*
X135128341Y-92500000D01*
X135148936Y-92735403D01*
X135148938Y-92735413D01*
X135210094Y-92963655D01*
X135210096Y-92963659D01*
X135210097Y-92963663D01*
X135266867Y-93085406D01*
X135309965Y-93177830D01*
X135309967Y-93177834D01*
X135375484Y-93271401D01*
X135445505Y-93371401D01*
X135612599Y-93538495D01*
X135664017Y-93574498D01*
X135806165Y-93674032D01*
X135806167Y-93674033D01*
X135806170Y-93674035D01*
X136020337Y-93773903D01*
X136248592Y-93835063D01*
X136436918Y-93851539D01*
X136483999Y-93855659D01*
X136484000Y-93855659D01*
X136484001Y-93855659D01*
X136523234Y-93852226D01*
X136719408Y-93835063D01*
X136947663Y-93773903D01*
X137161830Y-93674035D01*
X137355401Y-93538495D01*
X137522495Y-93371401D01*
X137658035Y-93177830D01*
X137757903Y-92963663D01*
X137819063Y-92735408D01*
X137839659Y-92500000D01*
X137839659Y-92499999D01*
X146558341Y-92499999D01*
X146558341Y-92500000D01*
X146578936Y-92735403D01*
X146578938Y-92735413D01*
X146640094Y-92963655D01*
X146640096Y-92963659D01*
X146640097Y-92963663D01*
X146696867Y-93085406D01*
X146739965Y-93177830D01*
X146739967Y-93177834D01*
X146805484Y-93271401D01*
X146875505Y-93371401D01*
X147042599Y-93538495D01*
X147094017Y-93574498D01*
X147236165Y-93674032D01*
X147236167Y-93674033D01*
X147236170Y-93674035D01*
X147450337Y-93773903D01*
X147678592Y-93835063D01*
X147866918Y-93851539D01*
X147913999Y-93855659D01*
X147914000Y-93855659D01*
X147914001Y-93855659D01*
X147953234Y-93852226D01*
X148149408Y-93835063D01*
X148377663Y-93773903D01*
X148591830Y-93674035D01*
X148785401Y-93538495D01*
X148952495Y-93371401D01*
X149088035Y-93177830D01*
X149187903Y-92963663D01*
X149249063Y-92735408D01*
X149269659Y-92500000D01*
X149269659Y-92499999D01*
X158242341Y-92499999D01*
X158242341Y-92500000D01*
X158262936Y-92735403D01*
X158262938Y-92735413D01*
X158324094Y-92963655D01*
X158324096Y-92963659D01*
X158324097Y-92963663D01*
X158380867Y-93085406D01*
X158423965Y-93177830D01*
X158423967Y-93177834D01*
X158489484Y-93271401D01*
X158559505Y-93371401D01*
X158726599Y-93538495D01*
X158778017Y-93574498D01*
X158920165Y-93674032D01*
X158920167Y-93674033D01*
X158920170Y-93674035D01*
X159134337Y-93773903D01*
X159362592Y-93835063D01*
X159550918Y-93851539D01*
X159597999Y-93855659D01*
X159598000Y-93855659D01*
X159598001Y-93855659D01*
X159637234Y-93852226D01*
X159833408Y-93835063D01*
X160061663Y-93773903D01*
X160275830Y-93674035D01*
X160469401Y-93538495D01*
X160636495Y-93371401D01*
X160772035Y-93177830D01*
X160871903Y-92963663D01*
X160933063Y-92735408D01*
X160950509Y-92535999D01*
X169672341Y-92535999D01*
X169672341Y-92536000D01*
X169692936Y-92771403D01*
X169692937Y-92771407D01*
X169754094Y-92999655D01*
X169754096Y-92999659D01*
X169754097Y-92999663D01*
X169794080Y-93085406D01*
X169853965Y-93213830D01*
X169853967Y-93213834D01*
X169894277Y-93271402D01*
X169989505Y-93407401D01*
X170156599Y-93574495D01*
X170253384Y-93642265D01*
X170350165Y-93710032D01*
X170350167Y-93710033D01*
X170350170Y-93710035D01*
X170564337Y-93809903D01*
X170792592Y-93871063D01*
X170980918Y-93887539D01*
X171027999Y-93891659D01*
X171028000Y-93891659D01*
X171028001Y-93891659D01*
X171067234Y-93888226D01*
X171263408Y-93871063D01*
X171491663Y-93809903D01*
X171705830Y-93710035D01*
X171899401Y-93574495D01*
X172066495Y-93407401D01*
X172202035Y-93213830D01*
X172301903Y-92999663D01*
X172363063Y-92771408D01*
X172383659Y-92536000D01*
X172371760Y-92399999D01*
X181116341Y-92399999D01*
X181116341Y-92400000D01*
X181136936Y-92635403D01*
X181136938Y-92635413D01*
X181198094Y-92863655D01*
X181198096Y-92863659D01*
X181198097Y-92863663D01*
X181281155Y-93041781D01*
X181297965Y-93077830D01*
X181297967Y-93077834D01*
X181393193Y-93213830D01*
X181433505Y-93271401D01*
X181600599Y-93438495D01*
X181697384Y-93506265D01*
X181794165Y-93574032D01*
X181794167Y-93574033D01*
X181794170Y-93574035D01*
X182008337Y-93673903D01*
X182008343Y-93673904D01*
X182008344Y-93673905D01*
X182063285Y-93688626D01*
X182236592Y-93735063D01*
X182424918Y-93751539D01*
X182471999Y-93755659D01*
X182472000Y-93755659D01*
X182472001Y-93755659D01*
X182511234Y-93752226D01*
X182707408Y-93735063D01*
X182935663Y-93673903D01*
X183149830Y-93574035D01*
X183343401Y-93438495D01*
X183510495Y-93271401D01*
X183646035Y-93077830D01*
X183745903Y-92863663D01*
X183807063Y-92635408D01*
X183827659Y-92400000D01*
X183827659Y-92399999D01*
X192744341Y-92399999D01*
X192744341Y-92400000D01*
X192764936Y-92635403D01*
X192764938Y-92635413D01*
X192826094Y-92863655D01*
X192826096Y-92863659D01*
X192826097Y-92863663D01*
X192909155Y-93041781D01*
X192925965Y-93077830D01*
X192925967Y-93077834D01*
X193021193Y-93213830D01*
X193061505Y-93271401D01*
X193228599Y-93438495D01*
X193325384Y-93506265D01*
X193422165Y-93574032D01*
X193422167Y-93574033D01*
X193422170Y-93574035D01*
X193636337Y-93673903D01*
X193636343Y-93673904D01*
X193636344Y-93673905D01*
X193691285Y-93688626D01*
X193864592Y-93735063D01*
X194052918Y-93751539D01*
X194099999Y-93755659D01*
X194100000Y-93755659D01*
X194100001Y-93755659D01*
X194139234Y-93752226D01*
X194335408Y-93735063D01*
X194563663Y-93673903D01*
X194777830Y-93574035D01*
X194971401Y-93438495D01*
X195138495Y-93271401D01*
X195274035Y-93077830D01*
X195373903Y-92863663D01*
X195435063Y-92635408D01*
X195455659Y-92400000D01*
X195435063Y-92164592D01*
X195373903Y-91936337D01*
X195274035Y-91722171D01*
X195268731Y-91714595D01*
X195138494Y-91528597D01*
X194971402Y-91361506D01*
X194971395Y-91361501D01*
X194777834Y-91225967D01*
X194777830Y-91225965D01*
X194754659Y-91215160D01*
X194563663Y-91126097D01*
X194563659Y-91126096D01*
X194563655Y-91126094D01*
X194335413Y-91064938D01*
X194335403Y-91064936D01*
X194100001Y-91044341D01*
X194099999Y-91044341D01*
X193864596Y-91064936D01*
X193864586Y-91064938D01*
X193636344Y-91126094D01*
X193636335Y-91126098D01*
X193422171Y-91225964D01*
X193422169Y-91225965D01*
X193228597Y-91361505D01*
X193061505Y-91528597D01*
X192925965Y-91722169D01*
X192925964Y-91722171D01*
X192826098Y-91936335D01*
X192826094Y-91936344D01*
X192764938Y-92164586D01*
X192764936Y-92164596D01*
X192744341Y-92399999D01*
X183827659Y-92399999D01*
X183807063Y-92164592D01*
X183745903Y-91936337D01*
X183646035Y-91722171D01*
X183640731Y-91714595D01*
X183510494Y-91528597D01*
X183343402Y-91361506D01*
X183343395Y-91361501D01*
X183149834Y-91225967D01*
X183149830Y-91225965D01*
X183126659Y-91215160D01*
X182935663Y-91126097D01*
X182935659Y-91126096D01*
X182935655Y-91126094D01*
X182707413Y-91064938D01*
X182707403Y-91064936D01*
X182472001Y-91044341D01*
X182471999Y-91044341D01*
X182236596Y-91064936D01*
X182236586Y-91064938D01*
X182008344Y-91126094D01*
X182008335Y-91126098D01*
X181794171Y-91225964D01*
X181794169Y-91225965D01*
X181600597Y-91361505D01*
X181433505Y-91528597D01*
X181297965Y-91722169D01*
X181297964Y-91722171D01*
X181198098Y-91936335D01*
X181198094Y-91936344D01*
X181136938Y-92164586D01*
X181136936Y-92164596D01*
X181116341Y-92399999D01*
X172371760Y-92399999D01*
X172363063Y-92300592D01*
X172301903Y-92072337D01*
X172202035Y-91858171D01*
X172176827Y-91822169D01*
X172066494Y-91664597D01*
X171899402Y-91497506D01*
X171899395Y-91497501D01*
X171705834Y-91361967D01*
X171705830Y-91361965D01*
X171628628Y-91325965D01*
X171491663Y-91262097D01*
X171491659Y-91262096D01*
X171491655Y-91262094D01*
X171263413Y-91200938D01*
X171263403Y-91200936D01*
X171028001Y-91180341D01*
X171027999Y-91180341D01*
X170792596Y-91200936D01*
X170792586Y-91200938D01*
X170564344Y-91262094D01*
X170564335Y-91262098D01*
X170350171Y-91361964D01*
X170350169Y-91361965D01*
X170156597Y-91497505D01*
X169989505Y-91664597D01*
X169853965Y-91858169D01*
X169853964Y-91858171D01*
X169754098Y-92072335D01*
X169754094Y-92072344D01*
X169692938Y-92300586D01*
X169692936Y-92300596D01*
X169672341Y-92535999D01*
X160950509Y-92535999D01*
X160953659Y-92500000D01*
X160933063Y-92264592D01*
X160871903Y-92036337D01*
X160772035Y-91822171D01*
X160710221Y-91733890D01*
X160636494Y-91628597D01*
X160469402Y-91461506D01*
X160469395Y-91461501D01*
X160275834Y-91325967D01*
X160275830Y-91325965D01*
X160275828Y-91325964D01*
X160061663Y-91226097D01*
X160061659Y-91226096D01*
X160061655Y-91226094D01*
X159833413Y-91164938D01*
X159833403Y-91164936D01*
X159598001Y-91144341D01*
X159597999Y-91144341D01*
X159362596Y-91164936D01*
X159362586Y-91164938D01*
X159134344Y-91226094D01*
X159134335Y-91226098D01*
X158920171Y-91325964D01*
X158920169Y-91325965D01*
X158726597Y-91461505D01*
X158559505Y-91628597D01*
X158423965Y-91822169D01*
X158423964Y-91822171D01*
X158324098Y-92036335D01*
X158324094Y-92036344D01*
X158262938Y-92264586D01*
X158262936Y-92264596D01*
X158242341Y-92499999D01*
X149269659Y-92499999D01*
X149249063Y-92264592D01*
X149187903Y-92036337D01*
X149088035Y-91822171D01*
X149026221Y-91733890D01*
X148952494Y-91628597D01*
X148785402Y-91461506D01*
X148785395Y-91461501D01*
X148591834Y-91325967D01*
X148591830Y-91325965D01*
X148591828Y-91325964D01*
X148377663Y-91226097D01*
X148377659Y-91226096D01*
X148377655Y-91226094D01*
X148149413Y-91164938D01*
X148149403Y-91164936D01*
X147914001Y-91144341D01*
X147913999Y-91144341D01*
X147678596Y-91164936D01*
X147678586Y-91164938D01*
X147450344Y-91226094D01*
X147450335Y-91226098D01*
X147236171Y-91325964D01*
X147236169Y-91325965D01*
X147042597Y-91461505D01*
X146875505Y-91628597D01*
X146739965Y-91822169D01*
X146739964Y-91822171D01*
X146640098Y-92036335D01*
X146640094Y-92036344D01*
X146578938Y-92264586D01*
X146578936Y-92264596D01*
X146558341Y-92499999D01*
X137839659Y-92499999D01*
X137819063Y-92264592D01*
X137757903Y-92036337D01*
X137658035Y-91822171D01*
X137596221Y-91733890D01*
X137522494Y-91628597D01*
X137355402Y-91461506D01*
X137355395Y-91461501D01*
X137161834Y-91325967D01*
X137161830Y-91325965D01*
X137161828Y-91325964D01*
X136947663Y-91226097D01*
X136947659Y-91226096D01*
X136947655Y-91226094D01*
X136719413Y-91164938D01*
X136719403Y-91164936D01*
X136484001Y-91144341D01*
X136483999Y-91144341D01*
X136248596Y-91164936D01*
X136248586Y-91164938D01*
X136020344Y-91226094D01*
X136020335Y-91226098D01*
X135806171Y-91325964D01*
X135806169Y-91325965D01*
X135612597Y-91461505D01*
X135445505Y-91628597D01*
X135309965Y-91822169D01*
X135309964Y-91822171D01*
X135210098Y-92036335D01*
X135210094Y-92036344D01*
X135148938Y-92264586D01*
X135148936Y-92264596D01*
X135128341Y-92499999D01*
X134508500Y-92499999D01*
X134508500Y-74742808D01*
X134528185Y-74675769D01*
X134544819Y-74655127D01*
X141889947Y-67309999D01*
X143144341Y-67309999D01*
X143144341Y-67310000D01*
X143164936Y-67545403D01*
X143164938Y-67545413D01*
X143226094Y-67773655D01*
X143226096Y-67773659D01*
X143226097Y-67773663D01*
X143271673Y-67871400D01*
X143325965Y-67987830D01*
X143325967Y-67987834D01*
X143461501Y-68181395D01*
X143461506Y-68181402D01*
X143628597Y-68348493D01*
X143628603Y-68348498D01*
X143814158Y-68478425D01*
X143857783Y-68533002D01*
X143864977Y-68602500D01*
X143833454Y-68664855D01*
X143814158Y-68681575D01*
X143628597Y-68811505D01*
X143461505Y-68978597D01*
X143325965Y-69172169D01*
X143325964Y-69172171D01*
X143226098Y-69386335D01*
X143226094Y-69386344D01*
X143164938Y-69614586D01*
X143164936Y-69614596D01*
X143144341Y-69849999D01*
X143144341Y-69850000D01*
X143164936Y-70085403D01*
X143164938Y-70085413D01*
X143226094Y-70313655D01*
X143226096Y-70313659D01*
X143226097Y-70313663D01*
X143271671Y-70411396D01*
X143325965Y-70527830D01*
X143325967Y-70527834D01*
X143461501Y-70721395D01*
X143461506Y-70721402D01*
X143628597Y-70888493D01*
X143628603Y-70888498D01*
X143814158Y-71018425D01*
X143857783Y-71073002D01*
X143864977Y-71142500D01*
X143833454Y-71204855D01*
X143814158Y-71221575D01*
X143628597Y-71351505D01*
X143461505Y-71518597D01*
X143325965Y-71712169D01*
X143325964Y-71712171D01*
X143226098Y-71926335D01*
X143226094Y-71926344D01*
X143164938Y-72154586D01*
X143164936Y-72154596D01*
X143144341Y-72389999D01*
X143144341Y-72390000D01*
X143164936Y-72625403D01*
X143164938Y-72625413D01*
X143226094Y-72853655D01*
X143226096Y-72853659D01*
X143226097Y-72853663D01*
X143271671Y-72951396D01*
X143325965Y-73067830D01*
X143325967Y-73067834D01*
X143461501Y-73261395D01*
X143461506Y-73261402D01*
X143628597Y-73428493D01*
X143628603Y-73428498D01*
X143814158Y-73558425D01*
X143857783Y-73613002D01*
X143864977Y-73682500D01*
X143833454Y-73744855D01*
X143814158Y-73761575D01*
X143628597Y-73891505D01*
X143461505Y-74058597D01*
X143325965Y-74252169D01*
X143325964Y-74252171D01*
X143226098Y-74466335D01*
X143226094Y-74466344D01*
X143164938Y-74694586D01*
X143164936Y-74694596D01*
X143144341Y-74929999D01*
X143144341Y-74930000D01*
X143164936Y-75165403D01*
X143164938Y-75165413D01*
X143226094Y-75393655D01*
X143226096Y-75393659D01*
X143226097Y-75393663D01*
X143271671Y-75491396D01*
X143325965Y-75607830D01*
X143325967Y-75607834D01*
X143461501Y-75801395D01*
X143461506Y-75801402D01*
X143628597Y-75968493D01*
X143628603Y-75968498D01*
X143716403Y-76029976D01*
X143813308Y-76097830D01*
X143814594Y-76098730D01*
X143858219Y-76153307D01*
X143865413Y-76222805D01*
X143833890Y-76285160D01*
X143814595Y-76301880D01*
X143628922Y-76431890D01*
X143628920Y-76431891D01*
X143461891Y-76598920D01*
X143461886Y-76598926D01*
X143326400Y-76792420D01*
X143326399Y-76792422D01*
X143226570Y-77006507D01*
X143226567Y-77006513D01*
X143169364Y-77219999D01*
X143169364Y-77220000D01*
X144066988Y-77220000D01*
X144034075Y-77277007D01*
X144000000Y-77404174D01*
X144000000Y-77535826D01*
X144034075Y-77662993D01*
X144066988Y-77720000D01*
X143169364Y-77720000D01*
X143226567Y-77933486D01*
X143226570Y-77933492D01*
X143326399Y-78147578D01*
X143461894Y-78341082D01*
X143583946Y-78463134D01*
X143617431Y-78524457D01*
X143612447Y-78594149D01*
X143570575Y-78650082D01*
X143539598Y-78666997D01*
X143407671Y-78716202D01*
X143407664Y-78716206D01*
X143292455Y-78802452D01*
X143292452Y-78802455D01*
X143206206Y-78917664D01*
X143206202Y-78917671D01*
X143155908Y-79052517D01*
X143149501Y-79112116D01*
X143149500Y-79112135D01*
X143149500Y-80907870D01*
X143149501Y-80907876D01*
X143155908Y-80967483D01*
X143206202Y-81102328D01*
X143206206Y-81102335D01*
X143292452Y-81217544D01*
X143292455Y-81217547D01*
X143407664Y-81303793D01*
X143407671Y-81303797D01*
X143542517Y-81354091D01*
X143542516Y-81354091D01*
X143549444Y-81354835D01*
X143602127Y-81360500D01*
X145397872Y-81360499D01*
X145457483Y-81354091D01*
X145592331Y-81303796D01*
X145707546Y-81217546D01*
X145793796Y-81102331D01*
X145844091Y-80967483D01*
X145850500Y-80907873D01*
X145850500Y-80884500D01*
X145870185Y-80817461D01*
X145922989Y-80771706D01*
X145974500Y-80760500D01*
X146377920Y-80760500D01*
X146488552Y-80738493D01*
X146522913Y-80731658D01*
X146659495Y-80675084D01*
X146714186Y-80638541D01*
X146782416Y-80592952D01*
X148015369Y-79359998D01*
X150994390Y-79359998D01*
X150994390Y-79360001D01*
X151014804Y-79645433D01*
X151075628Y-79925037D01*
X151075630Y-79925043D01*
X151075631Y-79925046D01*
X151174847Y-80191054D01*
X151175635Y-80193166D01*
X151312770Y-80444309D01*
X151312775Y-80444317D01*
X151484254Y-80673387D01*
X151484270Y-80673405D01*
X151686594Y-80875729D01*
X151686612Y-80875745D01*
X151915682Y-81047224D01*
X151915690Y-81047229D01*
X152166833Y-81184364D01*
X152166832Y-81184364D01*
X152166836Y-81184365D01*
X152166839Y-81184367D01*
X152434954Y-81284369D01*
X152434960Y-81284370D01*
X152434962Y-81284371D01*
X152714566Y-81345195D01*
X152714568Y-81345195D01*
X152714572Y-81345196D01*
X152968220Y-81363337D01*
X152999999Y-81365610D01*
X153000000Y-81365610D01*
X153000001Y-81365610D01*
X153028595Y-81363564D01*
X153285428Y-81345196D01*
X153475742Y-81303796D01*
X153565037Y-81284371D01*
X153565037Y-81284370D01*
X153565046Y-81284369D01*
X153833161Y-81184367D01*
X154084315Y-81047226D01*
X154313395Y-80875739D01*
X154515739Y-80673395D01*
X154687226Y-80444315D01*
X154824367Y-80193161D01*
X154924369Y-79925046D01*
X154946748Y-79822171D01*
X154985195Y-79645433D01*
X154985195Y-79645432D01*
X154985196Y-79645428D01*
X155005610Y-79360000D01*
X155003826Y-79335063D01*
X154998422Y-79259500D01*
X154985196Y-79074572D01*
X154983203Y-79065412D01*
X154924371Y-78794962D01*
X154924370Y-78794960D01*
X154924369Y-78794954D01*
X154824367Y-78526839D01*
X154823066Y-78524457D01*
X154687229Y-78275690D01*
X154687224Y-78275682D01*
X154515745Y-78046612D01*
X154515729Y-78046594D01*
X154469134Y-77999999D01*
X159344341Y-77999999D01*
X159344341Y-78000000D01*
X159364936Y-78235403D01*
X159364938Y-78235413D01*
X159426094Y-78463655D01*
X159426096Y-78463659D01*
X159426097Y-78463663D01*
X159525965Y-78677830D01*
X159661505Y-78871401D01*
X159828599Y-79038495D01*
X159925384Y-79106265D01*
X160022165Y-79174032D01*
X160022167Y-79174033D01*
X160022170Y-79174035D01*
X160236337Y-79273903D01*
X160236343Y-79273904D01*
X160236344Y-79273905D01*
X160291285Y-79288626D01*
X160464592Y-79335063D01*
X160652918Y-79351539D01*
X160699999Y-79355659D01*
X160700000Y-79355659D01*
X160700001Y-79355659D01*
X160739234Y-79352226D01*
X160935408Y-79335063D01*
X161163663Y-79273903D01*
X161377830Y-79174035D01*
X161571401Y-79038495D01*
X161738495Y-78871401D01*
X161874035Y-78677830D01*
X161973903Y-78463663D01*
X162035063Y-78235408D01*
X162055659Y-78000000D01*
X162055659Y-77999999D01*
X168844341Y-77999999D01*
X168844341Y-78000000D01*
X168864936Y-78235403D01*
X168864938Y-78235413D01*
X168926094Y-78463655D01*
X168926096Y-78463659D01*
X168926097Y-78463663D01*
X169025965Y-78677830D01*
X169161505Y-78871401D01*
X169328599Y-79038495D01*
X169425384Y-79106265D01*
X169522165Y-79174032D01*
X169522167Y-79174033D01*
X169522170Y-79174035D01*
X169736337Y-79273903D01*
X169736343Y-79273904D01*
X169736344Y-79273905D01*
X169791285Y-79288626D01*
X169964592Y-79335063D01*
X170152918Y-79351539D01*
X170199999Y-79355659D01*
X170200000Y-79355659D01*
X170200001Y-79355659D01*
X170239234Y-79352226D01*
X170435408Y-79335063D01*
X170663663Y-79273903D01*
X170877830Y-79174035D01*
X171071401Y-79038495D01*
X171238495Y-78871401D01*
X171374035Y-78677830D01*
X171473903Y-78463663D01*
X171535063Y-78235408D01*
X171555659Y-78000000D01*
X171535063Y-77764592D01*
X171473903Y-77536337D01*
X171374035Y-77322171D01*
X171346026Y-77282169D01*
X171238494Y-77128597D01*
X171071402Y-76961506D01*
X171071395Y-76961501D01*
X170877834Y-76825967D01*
X170877830Y-76825965D01*
X170877828Y-76825964D01*
X170663663Y-76726097D01*
X170663659Y-76726096D01*
X170663655Y-76726094D01*
X170435413Y-76664938D01*
X170435403Y-76664936D01*
X170200001Y-76644341D01*
X170199999Y-76644341D01*
X169964596Y-76664936D01*
X169964586Y-76664938D01*
X169736344Y-76726094D01*
X169736335Y-76726098D01*
X169522171Y-76825964D01*
X169522169Y-76825965D01*
X169328597Y-76961505D01*
X169161505Y-77128597D01*
X169025965Y-77322169D01*
X169025964Y-77322171D01*
X168926098Y-77536335D01*
X168926094Y-77536344D01*
X168864938Y-77764586D01*
X168864936Y-77764596D01*
X168844341Y-77999999D01*
X162055659Y-77999999D01*
X162035063Y-77764592D01*
X161973903Y-77536337D01*
X161874035Y-77322171D01*
X161846026Y-77282169D01*
X161738494Y-77128597D01*
X161571402Y-76961506D01*
X161571395Y-76961501D01*
X161377834Y-76825967D01*
X161377830Y-76825965D01*
X161377828Y-76825964D01*
X161163663Y-76726097D01*
X161163659Y-76726096D01*
X161163655Y-76726094D01*
X160935413Y-76664938D01*
X160935403Y-76664936D01*
X160700001Y-76644341D01*
X160699999Y-76644341D01*
X160464596Y-76664936D01*
X160464586Y-76664938D01*
X160236344Y-76726094D01*
X160236335Y-76726098D01*
X160022171Y-76825964D01*
X160022169Y-76825965D01*
X159828597Y-76961505D01*
X159661505Y-77128597D01*
X159525965Y-77322169D01*
X159525964Y-77322171D01*
X159426098Y-77536335D01*
X159426094Y-77536344D01*
X159364938Y-77764586D01*
X159364936Y-77764596D01*
X159344341Y-77999999D01*
X154469134Y-77999999D01*
X154313405Y-77844270D01*
X154313387Y-77844254D01*
X154084317Y-77672775D01*
X154084309Y-77672770D01*
X153833166Y-77535635D01*
X153833167Y-77535635D01*
X153725915Y-77495632D01*
X153565046Y-77435631D01*
X153565043Y-77435630D01*
X153565037Y-77435628D01*
X153285433Y-77374804D01*
X153000001Y-77354390D01*
X152999999Y-77354390D01*
X152714566Y-77374804D01*
X152434962Y-77435628D01*
X152166833Y-77535635D01*
X151915690Y-77672770D01*
X151915682Y-77672775D01*
X151686612Y-77844254D01*
X151686594Y-77844270D01*
X151484270Y-78046594D01*
X151484254Y-78046612D01*
X151312775Y-78275682D01*
X151312770Y-78275690D01*
X151175635Y-78526833D01*
X151075628Y-78794962D01*
X151014804Y-79074566D01*
X150994390Y-79359998D01*
X148015369Y-79359998D01*
X148410951Y-78964416D01*
X148493084Y-78841495D01*
X148549658Y-78704913D01*
X148555045Y-78677830D01*
X148578500Y-78559918D01*
X148578500Y-75419999D01*
X177644341Y-75419999D01*
X177644341Y-75420000D01*
X177664936Y-75655403D01*
X177664938Y-75655413D01*
X177726094Y-75883655D01*
X177726096Y-75883659D01*
X177726097Y-75883663D01*
X177825965Y-76097830D01*
X177825967Y-76097834D01*
X177934281Y-76252521D01*
X177957484Y-76285659D01*
X177961501Y-76291395D01*
X177961506Y-76291402D01*
X178128597Y-76458493D01*
X178128603Y-76458498D01*
X178314158Y-76588425D01*
X178357783Y-76643002D01*
X178364977Y-76712500D01*
X178333454Y-76774855D01*
X178314158Y-76791575D01*
X178128597Y-76921505D01*
X177961505Y-77088597D01*
X177825965Y-77282169D01*
X177825964Y-77282171D01*
X177726098Y-77496335D01*
X177726094Y-77496344D01*
X177664938Y-77724586D01*
X177664936Y-77724596D01*
X177644341Y-77959999D01*
X177644341Y-77960000D01*
X177664936Y-78195403D01*
X177664938Y-78195413D01*
X177726094Y-78423655D01*
X177726096Y-78423659D01*
X177726097Y-78423663D01*
X177776559Y-78531879D01*
X177825965Y-78637830D01*
X177825967Y-78637834D01*
X177961501Y-78831395D01*
X177961506Y-78831402D01*
X178128597Y-78998493D01*
X178128603Y-78998498D01*
X178314158Y-79128425D01*
X178357783Y-79183002D01*
X178364977Y-79252500D01*
X178333454Y-79314855D01*
X178314158Y-79331575D01*
X178128597Y-79461505D01*
X177961505Y-79628597D01*
X177825965Y-79822169D01*
X177825964Y-79822171D01*
X177726098Y-80036335D01*
X177726094Y-80036344D01*
X177664938Y-80264586D01*
X177664936Y-80264596D01*
X177644341Y-80499999D01*
X177644341Y-80500000D01*
X177664936Y-80735403D01*
X177664938Y-80735413D01*
X177726094Y-80963655D01*
X177726096Y-80963659D01*
X177726097Y-80963663D01*
X177790758Y-81102328D01*
X177825965Y-81177830D01*
X177825967Y-81177834D01*
X177853774Y-81217546D01*
X177961505Y-81371401D01*
X178128599Y-81538495D01*
X178162409Y-81562169D01*
X178322165Y-81674032D01*
X178322167Y-81674033D01*
X178322170Y-81674035D01*
X178536337Y-81773903D01*
X178764592Y-81835063D01*
X178952918Y-81851539D01*
X178999999Y-81855659D01*
X179000000Y-81855659D01*
X179000001Y-81855659D01*
X179039234Y-81852226D01*
X179235408Y-81835063D01*
X179463663Y-81773903D01*
X179677830Y-81674035D01*
X179871401Y-81538495D01*
X180038495Y-81371401D01*
X180174035Y-81177830D01*
X180273903Y-80963663D01*
X180335063Y-80735408D01*
X180355659Y-80500000D01*
X180335063Y-80264592D01*
X180273903Y-80036337D01*
X180174035Y-79822171D01*
X180118244Y-79742492D01*
X180038494Y-79628597D01*
X179871402Y-79461506D01*
X179871396Y-79461501D01*
X179685842Y-79331575D01*
X179642217Y-79276998D01*
X179635023Y-79207500D01*
X179666546Y-79145145D01*
X179685842Y-79128425D01*
X179762760Y-79074566D01*
X179871401Y-78998495D01*
X180038495Y-78831401D01*
X180174035Y-78637830D01*
X180273903Y-78423663D01*
X180335063Y-78195408D01*
X180355659Y-77960000D01*
X180335063Y-77724592D01*
X180273903Y-77496337D01*
X180174035Y-77282171D01*
X180170420Y-77277007D01*
X180038494Y-77088597D01*
X179871402Y-76921506D01*
X179871396Y-76921501D01*
X179685842Y-76791575D01*
X179642217Y-76736998D01*
X179635023Y-76667500D01*
X179666546Y-76605145D01*
X179685842Y-76588425D01*
X179786729Y-76517783D01*
X179871401Y-76458495D01*
X180038495Y-76291401D01*
X180174035Y-76097830D01*
X180273903Y-75883663D01*
X180335063Y-75655408D01*
X180352159Y-75459999D01*
X196144341Y-75459999D01*
X196144341Y-75460000D01*
X196164936Y-75695403D01*
X196164938Y-75695413D01*
X196226094Y-75923655D01*
X196226096Y-75923659D01*
X196226097Y-75923663D01*
X196257765Y-75991575D01*
X196325965Y-76137830D01*
X196325967Y-76137834D01*
X196429127Y-76285160D01*
X196440833Y-76301879D01*
X196461501Y-76331395D01*
X196461506Y-76331402D01*
X196628597Y-76498493D01*
X196628603Y-76498498D01*
X196814158Y-76628425D01*
X196857783Y-76683002D01*
X196864977Y-76752500D01*
X196833454Y-76814855D01*
X196814158Y-76831575D01*
X196628597Y-76961505D01*
X196461505Y-77128597D01*
X196325965Y-77322169D01*
X196325964Y-77322171D01*
X196226098Y-77536335D01*
X196226094Y-77536344D01*
X196164938Y-77764586D01*
X196164936Y-77764596D01*
X196144341Y-77999999D01*
X196144341Y-78000000D01*
X196164936Y-78235403D01*
X196164938Y-78235413D01*
X196226094Y-78463655D01*
X196226096Y-78463659D01*
X196226097Y-78463663D01*
X196325965Y-78677830D01*
X196433497Y-78831402D01*
X196461501Y-78871395D01*
X196461506Y-78871402D01*
X196628597Y-79038493D01*
X196628603Y-79038498D01*
X196814158Y-79168425D01*
X196857783Y-79223002D01*
X196864977Y-79292500D01*
X196833454Y-79354855D01*
X196814158Y-79371575D01*
X196628597Y-79501505D01*
X196461505Y-79668597D01*
X196325965Y-79862169D01*
X196325964Y-79862171D01*
X196226098Y-80076335D01*
X196226094Y-80076344D01*
X196164938Y-80304586D01*
X196164936Y-80304596D01*
X196144341Y-80539999D01*
X196144341Y-80540000D01*
X196164936Y-80775403D01*
X196164938Y-80775413D01*
X196226094Y-81003655D01*
X196226096Y-81003659D01*
X196226097Y-81003663D01*
X196272107Y-81102331D01*
X196325965Y-81217830D01*
X196325967Y-81217834D01*
X196415147Y-81345195D01*
X196461505Y-81411401D01*
X196628599Y-81578495D01*
X196725384Y-81646265D01*
X196822165Y-81714032D01*
X196822167Y-81714033D01*
X196822170Y-81714035D01*
X197036337Y-81813903D01*
X197264592Y-81875063D01*
X197452918Y-81891539D01*
X197499999Y-81895659D01*
X197500000Y-81895659D01*
X197500001Y-81895659D01*
X197539234Y-81892226D01*
X197735408Y-81875063D01*
X197963663Y-81813903D01*
X198177830Y-81714035D01*
X198371401Y-81578495D01*
X198538495Y-81411401D01*
X198674035Y-81217830D01*
X198773903Y-81003663D01*
X198835063Y-80775408D01*
X198855659Y-80540000D01*
X198835063Y-80304592D01*
X198773903Y-80076337D01*
X198674035Y-79862171D01*
X198646026Y-79822169D01*
X198538494Y-79668597D01*
X198371402Y-79501506D01*
X198371396Y-79501501D01*
X198185842Y-79371575D01*
X198142217Y-79316998D01*
X198135023Y-79247500D01*
X198166546Y-79185145D01*
X198185842Y-79168425D01*
X198266242Y-79112128D01*
X198371401Y-79038495D01*
X198538495Y-78871401D01*
X198674035Y-78677830D01*
X198773903Y-78463663D01*
X198835063Y-78235408D01*
X198855659Y-78000000D01*
X198835063Y-77764592D01*
X198773903Y-77536337D01*
X198674035Y-77322171D01*
X198646026Y-77282169D01*
X198538494Y-77128597D01*
X198371402Y-76961506D01*
X198371396Y-76961501D01*
X198185842Y-76831575D01*
X198142217Y-76776998D01*
X198135023Y-76707500D01*
X198166546Y-76645145D01*
X198185842Y-76628425D01*
X198242968Y-76588425D01*
X198371401Y-76498495D01*
X198538495Y-76331401D01*
X198674035Y-76137830D01*
X198773903Y-75923663D01*
X198835063Y-75695408D01*
X198855659Y-75460000D01*
X198835063Y-75224592D01*
X198773903Y-74996337D01*
X198674035Y-74782171D01*
X198646025Y-74742169D01*
X198538496Y-74588600D01*
X198498495Y-74548599D01*
X198416179Y-74466283D01*
X198382696Y-74404963D01*
X198387680Y-74335271D01*
X198429551Y-74279337D01*
X198460529Y-74262422D01*
X198592086Y-74213354D01*
X198592093Y-74213350D01*
X198707187Y-74127190D01*
X198707190Y-74127187D01*
X198793350Y-74012093D01*
X198793354Y-74012086D01*
X198843596Y-73877379D01*
X198843598Y-73877372D01*
X198849999Y-73817844D01*
X198850000Y-73817827D01*
X198850000Y-73170000D01*
X197933012Y-73170000D01*
X197965925Y-73112993D01*
X198000000Y-72985826D01*
X198000000Y-72854174D01*
X197965925Y-72727007D01*
X197933012Y-72670000D01*
X198850000Y-72670000D01*
X198850000Y-72022172D01*
X198849999Y-72022155D01*
X198843598Y-71962627D01*
X198843596Y-71962620D01*
X198793354Y-71827913D01*
X198793350Y-71827906D01*
X198707190Y-71712812D01*
X198707187Y-71712809D01*
X198592093Y-71626649D01*
X198592086Y-71626645D01*
X198457379Y-71576403D01*
X198457372Y-71576401D01*
X198397844Y-71570000D01*
X197750000Y-71570000D01*
X197750000Y-72486988D01*
X197692993Y-72454075D01*
X197565826Y-72420000D01*
X197434174Y-72420000D01*
X197307007Y-72454075D01*
X197250000Y-72486988D01*
X197250000Y-71570000D01*
X196602155Y-71570000D01*
X196542627Y-71576401D01*
X196542620Y-71576403D01*
X196407913Y-71626645D01*
X196407906Y-71626649D01*
X196292812Y-71712809D01*
X196292809Y-71712812D01*
X196206649Y-71827906D01*
X196206645Y-71827913D01*
X196156403Y-71962620D01*
X196156401Y-71962627D01*
X196150000Y-72022155D01*
X196150000Y-72670000D01*
X197066988Y-72670000D01*
X197034075Y-72727007D01*
X197000000Y-72854174D01*
X197000000Y-72985826D01*
X197034075Y-73112993D01*
X197066988Y-73170000D01*
X196150000Y-73170000D01*
X196150000Y-73817844D01*
X196156401Y-73877372D01*
X196156403Y-73877379D01*
X196206645Y-74012086D01*
X196206649Y-74012093D01*
X196292809Y-74127187D01*
X196292812Y-74127190D01*
X196407906Y-74213350D01*
X196407913Y-74213354D01*
X196539470Y-74262421D01*
X196595403Y-74304292D01*
X196619821Y-74369756D01*
X196604970Y-74438029D01*
X196583819Y-74466284D01*
X196461503Y-74588600D01*
X196325965Y-74782169D01*
X196325964Y-74782171D01*
X196226098Y-74996335D01*
X196226094Y-74996344D01*
X196164938Y-75224586D01*
X196164936Y-75224596D01*
X196144341Y-75459999D01*
X180352159Y-75459999D01*
X180355659Y-75420000D01*
X180335063Y-75184592D01*
X180273903Y-74956337D01*
X180174035Y-74742171D01*
X180113086Y-74655127D01*
X180038496Y-74548600D01*
X179983896Y-74494000D01*
X179916179Y-74426283D01*
X179882696Y-74364963D01*
X179887680Y-74295271D01*
X179929551Y-74239337D01*
X179960529Y-74222422D01*
X180092086Y-74173354D01*
X180092093Y-74173350D01*
X180207187Y-74087190D01*
X180207190Y-74087187D01*
X180293350Y-73972093D01*
X180293354Y-73972086D01*
X180343596Y-73837379D01*
X180343598Y-73837372D01*
X180349999Y-73777844D01*
X180350000Y-73777827D01*
X180350000Y-73130000D01*
X179433012Y-73130000D01*
X179465925Y-73072993D01*
X179500000Y-72945826D01*
X179500000Y-72814174D01*
X179465925Y-72687007D01*
X179433012Y-72630000D01*
X180350000Y-72630000D01*
X180350000Y-71982172D01*
X180349999Y-71982155D01*
X180343598Y-71922627D01*
X180343596Y-71922620D01*
X180293354Y-71787913D01*
X180293350Y-71787906D01*
X180207190Y-71672812D01*
X180207187Y-71672809D01*
X180092093Y-71586649D01*
X180092086Y-71586645D01*
X179957379Y-71536403D01*
X179957372Y-71536401D01*
X179897844Y-71530000D01*
X179250000Y-71530000D01*
X179250000Y-72446988D01*
X179192993Y-72414075D01*
X179065826Y-72380000D01*
X178934174Y-72380000D01*
X178807007Y-72414075D01*
X178750000Y-72446988D01*
X178750000Y-71530000D01*
X178102155Y-71530000D01*
X178042627Y-71536401D01*
X178042620Y-71536403D01*
X177907913Y-71586645D01*
X177907906Y-71586649D01*
X177792812Y-71672809D01*
X177792809Y-71672812D01*
X177706649Y-71787906D01*
X177706645Y-71787913D01*
X177656403Y-71922620D01*
X177656401Y-71922627D01*
X177650000Y-71982155D01*
X177650000Y-72630000D01*
X178566988Y-72630000D01*
X178534075Y-72687007D01*
X178500000Y-72814174D01*
X178500000Y-72945826D01*
X178534075Y-73072993D01*
X178566988Y-73130000D01*
X177650000Y-73130000D01*
X177650000Y-73777844D01*
X177656401Y-73837372D01*
X177656403Y-73837379D01*
X177706645Y-73972086D01*
X177706649Y-73972093D01*
X177792809Y-74087187D01*
X177792812Y-74087190D01*
X177907906Y-74173350D01*
X177907913Y-74173354D01*
X178039470Y-74222421D01*
X178095403Y-74264292D01*
X178119821Y-74329756D01*
X178104970Y-74398029D01*
X178083819Y-74426284D01*
X177961503Y-74548600D01*
X177825965Y-74742169D01*
X177825964Y-74742171D01*
X177726098Y-74956335D01*
X177726094Y-74956344D01*
X177664938Y-75184586D01*
X177664936Y-75184596D01*
X177644341Y-75419999D01*
X148578500Y-75419999D01*
X148578500Y-71300082D01*
X148578500Y-71300079D01*
X148549659Y-71155092D01*
X148549658Y-71155091D01*
X148549658Y-71155087D01*
X148525805Y-71097500D01*
X148493087Y-71018511D01*
X148493080Y-71018498D01*
X148410952Y-70895585D01*
X148372365Y-70856998D01*
X148306416Y-70791049D01*
X147926762Y-70411395D01*
X146782418Y-69267049D01*
X146782416Y-69267047D01*
X146733092Y-69234091D01*
X146700355Y-69212218D01*
X146659495Y-69184916D01*
X146659494Y-69184915D01*
X146659492Y-69184914D01*
X146659490Y-69184913D01*
X146522917Y-69128343D01*
X146522907Y-69128340D01*
X146377920Y-69099500D01*
X146377918Y-69099500D01*
X145687701Y-69099500D01*
X145620662Y-69079815D01*
X145586126Y-69046623D01*
X145538494Y-68978597D01*
X145371402Y-68811506D01*
X145371396Y-68811501D01*
X145185842Y-68681575D01*
X145142217Y-68626998D01*
X145135023Y-68557500D01*
X145166546Y-68495145D01*
X145185842Y-68478425D01*
X145346451Y-68365965D01*
X145371401Y-68348495D01*
X145538495Y-68181401D01*
X145623502Y-68059998D01*
X150944390Y-68059998D01*
X150944390Y-68060001D01*
X150964804Y-68345433D01*
X151025628Y-68625037D01*
X151025630Y-68625043D01*
X151025631Y-68625046D01*
X151095177Y-68811505D01*
X151125635Y-68893166D01*
X151262770Y-69144309D01*
X151262775Y-69144317D01*
X151434254Y-69373387D01*
X151434270Y-69373405D01*
X151636594Y-69575729D01*
X151636612Y-69575745D01*
X151865682Y-69747224D01*
X151865690Y-69747229D01*
X152116833Y-69884364D01*
X152116832Y-69884364D01*
X152116836Y-69884365D01*
X152116839Y-69884367D01*
X152384954Y-69984369D01*
X152384960Y-69984370D01*
X152384962Y-69984371D01*
X152664566Y-70045195D01*
X152664568Y-70045195D01*
X152664572Y-70045196D01*
X152918220Y-70063337D01*
X152949999Y-70065610D01*
X152950000Y-70065610D01*
X152950001Y-70065610D01*
X152978595Y-70063564D01*
X153235428Y-70045196D01*
X153426390Y-70003655D01*
X153515037Y-69984371D01*
X153515037Y-69984370D01*
X153515046Y-69984369D01*
X153783161Y-69884367D01*
X154034315Y-69747226D01*
X154263395Y-69575739D01*
X154465739Y-69373395D01*
X154637226Y-69144315D01*
X154774367Y-68893161D01*
X154874369Y-68625046D01*
X154901244Y-68501505D01*
X154935195Y-68345433D01*
X154935195Y-68345432D01*
X154935196Y-68345428D01*
X154955610Y-68060000D01*
X154951319Y-67999999D01*
X159344341Y-67999999D01*
X159344341Y-68000000D01*
X159364936Y-68235403D01*
X159364938Y-68235413D01*
X159426094Y-68463655D01*
X159426096Y-68463659D01*
X159426097Y-68463663D01*
X159469854Y-68557500D01*
X159525965Y-68677830D01*
X159525967Y-68677834D01*
X159619565Y-68811505D01*
X159661505Y-68871401D01*
X159828599Y-69038495D01*
X159882640Y-69076335D01*
X160022165Y-69174032D01*
X160022167Y-69174033D01*
X160022170Y-69174035D01*
X160236337Y-69273903D01*
X160464592Y-69335063D01*
X160652918Y-69351539D01*
X160699999Y-69355659D01*
X160700000Y-69355659D01*
X160700001Y-69355659D01*
X160739234Y-69352226D01*
X160935408Y-69335063D01*
X161163663Y-69273903D01*
X161377830Y-69174035D01*
X161571401Y-69038495D01*
X161738495Y-68871401D01*
X161874035Y-68677830D01*
X161973903Y-68463663D01*
X162035063Y-68235408D01*
X162055659Y-68000000D01*
X162055659Y-67999999D01*
X168844341Y-67999999D01*
X168844341Y-68000000D01*
X168864936Y-68235403D01*
X168864938Y-68235413D01*
X168926094Y-68463655D01*
X168926096Y-68463659D01*
X168926097Y-68463663D01*
X168969854Y-68557500D01*
X169025965Y-68677830D01*
X169025967Y-68677834D01*
X169119565Y-68811505D01*
X169161505Y-68871401D01*
X169328599Y-69038495D01*
X169382640Y-69076335D01*
X169522165Y-69174032D01*
X169522167Y-69174033D01*
X169522170Y-69174035D01*
X169736337Y-69273903D01*
X169964592Y-69335063D01*
X170152918Y-69351539D01*
X170199999Y-69355659D01*
X170200000Y-69355659D01*
X170200001Y-69355659D01*
X170239234Y-69352226D01*
X170435408Y-69335063D01*
X170663663Y-69273903D01*
X170877830Y-69174035D01*
X171071401Y-69038495D01*
X171238495Y-68871401D01*
X171374035Y-68677830D01*
X171473903Y-68463663D01*
X171535063Y-68235408D01*
X171555659Y-68000000D01*
X171535063Y-67764592D01*
X171473903Y-67536337D01*
X171374035Y-67322171D01*
X171365513Y-67309999D01*
X171238494Y-67128597D01*
X171071402Y-66961506D01*
X171071395Y-66961501D01*
X170877834Y-66825967D01*
X170877830Y-66825965D01*
X170870376Y-66822489D01*
X170663663Y-66726097D01*
X170663659Y-66726096D01*
X170663655Y-66726094D01*
X170435413Y-66664938D01*
X170435403Y-66664936D01*
X170200001Y-66644341D01*
X170199999Y-66644341D01*
X169964596Y-66664936D01*
X169964586Y-66664938D01*
X169736344Y-66726094D01*
X169736335Y-66726098D01*
X169522171Y-66825964D01*
X169522169Y-66825965D01*
X169328597Y-66961505D01*
X169161505Y-67128597D01*
X169025965Y-67322169D01*
X169025964Y-67322171D01*
X168926098Y-67536335D01*
X168926094Y-67536344D01*
X168864938Y-67764586D01*
X168864936Y-67764596D01*
X168844341Y-67999999D01*
X162055659Y-67999999D01*
X162035063Y-67764592D01*
X161973903Y-67536337D01*
X161874035Y-67322171D01*
X161865513Y-67309999D01*
X161738494Y-67128597D01*
X161571402Y-66961506D01*
X161571395Y-66961501D01*
X161377834Y-66825967D01*
X161377830Y-66825965D01*
X161370376Y-66822489D01*
X161163663Y-66726097D01*
X161163659Y-66726096D01*
X161163655Y-66726094D01*
X160935413Y-66664938D01*
X160935403Y-66664936D01*
X160700001Y-66644341D01*
X160699999Y-66644341D01*
X160464596Y-66664936D01*
X160464586Y-66664938D01*
X160236344Y-66726094D01*
X160236335Y-66726098D01*
X160022171Y-66825964D01*
X160022169Y-66825965D01*
X159828597Y-66961505D01*
X159661505Y-67128597D01*
X159525965Y-67322169D01*
X159525964Y-67322171D01*
X159426098Y-67536335D01*
X159426094Y-67536344D01*
X159364938Y-67764586D01*
X159364936Y-67764596D01*
X159344341Y-67999999D01*
X154951319Y-67999999D01*
X154935196Y-67774572D01*
X154934998Y-67773664D01*
X154874371Y-67494962D01*
X154874370Y-67494960D01*
X154874369Y-67494954D01*
X154774367Y-67226839D01*
X154694025Y-67079705D01*
X154637229Y-66975690D01*
X154637224Y-66975682D01*
X154465745Y-66746612D01*
X154465729Y-66746594D01*
X154263405Y-66544270D01*
X154263387Y-66544254D01*
X154034317Y-66372775D01*
X154034309Y-66372770D01*
X153783166Y-66235635D01*
X153783167Y-66235635D01*
X153675915Y-66195632D01*
X153515046Y-66135631D01*
X153515043Y-66135630D01*
X153515037Y-66135628D01*
X153235433Y-66074804D01*
X152950001Y-66054390D01*
X152949999Y-66054390D01*
X152664566Y-66074804D01*
X152384962Y-66135628D01*
X152116833Y-66235635D01*
X151865690Y-66372770D01*
X151865682Y-66372775D01*
X151636612Y-66544254D01*
X151636594Y-66544270D01*
X151434270Y-66746594D01*
X151434254Y-66746612D01*
X151262775Y-66975682D01*
X151262770Y-66975690D01*
X151125635Y-67226833D01*
X151025628Y-67494962D01*
X150964804Y-67774566D01*
X150944390Y-68059998D01*
X145623502Y-68059998D01*
X145674035Y-67987830D01*
X145773903Y-67773663D01*
X145835063Y-67545408D01*
X145855659Y-67310000D01*
X145835063Y-67074592D01*
X145773903Y-66846337D01*
X145674035Y-66632171D01*
X145651440Y-66599901D01*
X145538494Y-66438597D01*
X145371402Y-66271506D01*
X145371395Y-66271501D01*
X145177834Y-66135967D01*
X145177830Y-66135965D01*
X145162023Y-66128594D01*
X144963663Y-66036097D01*
X144963659Y-66036096D01*
X144963655Y-66036094D01*
X144735413Y-65974938D01*
X144735403Y-65974936D01*
X144500001Y-65954341D01*
X144499999Y-65954341D01*
X144264596Y-65974936D01*
X144264586Y-65974938D01*
X144036344Y-66036094D01*
X144036335Y-66036098D01*
X143822171Y-66135964D01*
X143822169Y-66135965D01*
X143628597Y-66271505D01*
X143461505Y-66438597D01*
X143325965Y-66632169D01*
X143325964Y-66632171D01*
X143226098Y-66846335D01*
X143226094Y-66846344D01*
X143164938Y-67074586D01*
X143164936Y-67074596D01*
X143144341Y-67309999D01*
X141889947Y-67309999D01*
X144199952Y-64999994D01*
X201519945Y-64999994D01*
X201519945Y-65000005D01*
X201540130Y-65243605D01*
X201600138Y-65480573D01*
X201698330Y-65704429D01*
X201794626Y-65851819D01*
X202398958Y-65247487D01*
X202423978Y-65307890D01*
X202495112Y-65414351D01*
X202585649Y-65504888D01*
X202692110Y-65576022D01*
X202752511Y-65601041D01*
X202147758Y-66205794D01*
X202147758Y-66205796D01*
X202190478Y-66239046D01*
X202190484Y-66239050D01*
X202405468Y-66355394D01*
X202405476Y-66355397D01*
X202636664Y-66434765D01*
X202877779Y-66475000D01*
X203122221Y-66475000D01*
X203363335Y-66434765D01*
X203594523Y-66355397D01*
X203594531Y-66355394D01*
X203809514Y-66239051D01*
X203809514Y-66239050D01*
X203852240Y-66205795D01*
X203852240Y-66205794D01*
X203247488Y-65601041D01*
X203307890Y-65576022D01*
X203414351Y-65504888D01*
X203504888Y-65414351D01*
X203576022Y-65307890D01*
X203601041Y-65247488D01*
X204205372Y-65851819D01*
X204301667Y-65704431D01*
X204301672Y-65704423D01*
X204399861Y-65480573D01*
X204459869Y-65243605D01*
X204480055Y-65000005D01*
X204480055Y-64999994D01*
X204459869Y-64756394D01*
X204399861Y-64519426D01*
X204301669Y-64295570D01*
X204205372Y-64148179D01*
X203601041Y-64752510D01*
X203576022Y-64692110D01*
X203504888Y-64585649D01*
X203414351Y-64495112D01*
X203307890Y-64423978D01*
X203247487Y-64398958D01*
X203852240Y-63794204D01*
X203852240Y-63794203D01*
X203809514Y-63760949D01*
X203594531Y-63644605D01*
X203594523Y-63644602D01*
X203363335Y-63565234D01*
X203122221Y-63525000D01*
X202877779Y-63525000D01*
X202636664Y-63565234D01*
X202405476Y-63644602D01*
X202405468Y-63644605D01*
X202190481Y-63760951D01*
X202147758Y-63794202D01*
X202147757Y-63794204D01*
X202752511Y-64398958D01*
X202692110Y-64423978D01*
X202585649Y-64495112D01*
X202495112Y-64585649D01*
X202423978Y-64692110D01*
X202398958Y-64752511D01*
X201794626Y-64148179D01*
X201698328Y-64295575D01*
X201600138Y-64519426D01*
X201540130Y-64756394D01*
X201519945Y-64999994D01*
X144199952Y-64999994D01*
X144759127Y-64440819D01*
X144820450Y-64407334D01*
X144846808Y-64404500D01*
X176848071Y-64404500D01*
X176932615Y-64387682D01*
X176973744Y-64379501D01*
X177092127Y-64330465D01*
X177198669Y-64259277D01*
X181457952Y-59999994D01*
X201519443Y-59999994D01*
X201519443Y-60000005D01*
X201539634Y-60243683D01*
X201539636Y-60243695D01*
X201599663Y-60480734D01*
X201697888Y-60704666D01*
X201831632Y-60909378D01*
X201997242Y-61089277D01*
X201997252Y-61089286D01*
X202028240Y-61113405D01*
X202190212Y-61239473D01*
X202405267Y-61355855D01*
X202405270Y-61355856D01*
X202636541Y-61435251D01*
X202636543Y-61435251D01*
X202636545Y-61435252D01*
X202877737Y-61475500D01*
X202877738Y-61475500D01*
X203122262Y-61475500D01*
X203122263Y-61475500D01*
X203363455Y-61435252D01*
X203594733Y-61355855D01*
X203809788Y-61239473D01*
X204002754Y-61089281D01*
X204168368Y-60909377D01*
X204302111Y-60704667D01*
X204400336Y-60480736D01*
X204460364Y-60243692D01*
X204465435Y-60182492D01*
X204480557Y-60000005D01*
X204480557Y-59999994D01*
X204460365Y-59756316D01*
X204460363Y-59756304D01*
X204447925Y-59707187D01*
X204400336Y-59519264D01*
X204302111Y-59295333D01*
X204262664Y-59234954D01*
X204168367Y-59090621D01*
X204002757Y-58910722D01*
X204002747Y-58910713D01*
X203809791Y-58760529D01*
X203809787Y-58760526D01*
X203594734Y-58644145D01*
X203594729Y-58644143D01*
X203363458Y-58564748D01*
X203182561Y-58534562D01*
X203122263Y-58524500D01*
X202877737Y-58524500D01*
X202829498Y-58532549D01*
X202636541Y-58564748D01*
X202405270Y-58644143D01*
X202405265Y-58644145D01*
X202190212Y-58760526D01*
X202190208Y-58760529D01*
X201997252Y-58910713D01*
X201997242Y-58910722D01*
X201831632Y-59090621D01*
X201697888Y-59295333D01*
X201599663Y-59519265D01*
X201539636Y-59756304D01*
X201539634Y-59756316D01*
X201519443Y-59999994D01*
X181457952Y-59999994D01*
X182271127Y-59186819D01*
X182332450Y-59153334D01*
X182358808Y-59150500D01*
X182662278Y-59150500D01*
X182729317Y-59170185D01*
X182763853Y-59203377D01*
X182828241Y-59295333D01*
X182881505Y-59371401D01*
X183048599Y-59538495D01*
X183097933Y-59573039D01*
X183242165Y-59674032D01*
X183242167Y-59674033D01*
X183242170Y-59674035D01*
X183456337Y-59773903D01*
X183684592Y-59835063D01*
X183855319Y-59850000D01*
X183919999Y-59855659D01*
X183920000Y-59855659D01*
X183920001Y-59855659D01*
X183984681Y-59850000D01*
X184155408Y-59835063D01*
X184383663Y-59773903D01*
X184597830Y-59674035D01*
X184791401Y-59538495D01*
X184958495Y-59371401D01*
X185088425Y-59185842D01*
X185143002Y-59142217D01*
X185212500Y-59135023D01*
X185274855Y-59166546D01*
X185291575Y-59185842D01*
X185368241Y-59295333D01*
X185421505Y-59371401D01*
X185588599Y-59538495D01*
X185637933Y-59573039D01*
X185782165Y-59674032D01*
X185782167Y-59674033D01*
X185782170Y-59674035D01*
X185996337Y-59773903D01*
X186224592Y-59835063D01*
X186395319Y-59850000D01*
X186459999Y-59855659D01*
X186460000Y-59855659D01*
X186460001Y-59855659D01*
X186524681Y-59850000D01*
X186695408Y-59835063D01*
X186923663Y-59773903D01*
X187137830Y-59674035D01*
X187331401Y-59538495D01*
X187498495Y-59371401D01*
X187628425Y-59185842D01*
X187683002Y-59142217D01*
X187752500Y-59135023D01*
X187814855Y-59166546D01*
X187831575Y-59185842D01*
X187908241Y-59295333D01*
X187961505Y-59371401D01*
X188128599Y-59538495D01*
X188177933Y-59573039D01*
X188322165Y-59674032D01*
X188322167Y-59674033D01*
X188322170Y-59674035D01*
X188536337Y-59773903D01*
X188764592Y-59835063D01*
X188935319Y-59850000D01*
X188999999Y-59855659D01*
X189000000Y-59855659D01*
X189000001Y-59855659D01*
X189064681Y-59850000D01*
X189235408Y-59835063D01*
X189463663Y-59773903D01*
X189677830Y-59674035D01*
X189871401Y-59538495D01*
X189993717Y-59416178D01*
X190055036Y-59382696D01*
X190124728Y-59387680D01*
X190180662Y-59429551D01*
X190197577Y-59460528D01*
X190246646Y-59592088D01*
X190246649Y-59592093D01*
X190332809Y-59707187D01*
X190332812Y-59707190D01*
X190447906Y-59793350D01*
X190447913Y-59793354D01*
X190582620Y-59843596D01*
X190582627Y-59843598D01*
X190642155Y-59849999D01*
X190642172Y-59850000D01*
X191290000Y-59850000D01*
X191290000Y-58933012D01*
X191347007Y-58965925D01*
X191474174Y-59000000D01*
X191605826Y-59000000D01*
X191732993Y-58965925D01*
X191790000Y-58933012D01*
X191790000Y-59850000D01*
X192437828Y-59850000D01*
X192437844Y-59849999D01*
X192497372Y-59843598D01*
X192497379Y-59843596D01*
X192632086Y-59793354D01*
X192632093Y-59793350D01*
X192747187Y-59707190D01*
X192747190Y-59707187D01*
X192833350Y-59592093D01*
X192833354Y-59592086D01*
X192883596Y-59457379D01*
X192883598Y-59457372D01*
X192889999Y-59397844D01*
X192890000Y-59397827D01*
X192890000Y-58750000D01*
X191973012Y-58750000D01*
X192005925Y-58692993D01*
X192040000Y-58565826D01*
X192040000Y-58434174D01*
X192005925Y-58307007D01*
X191973012Y-58250000D01*
X192890000Y-58250000D01*
X192890000Y-57602172D01*
X192889999Y-57602155D01*
X192883598Y-57542627D01*
X192883596Y-57542620D01*
X192833354Y-57407913D01*
X192833350Y-57407906D01*
X192747190Y-57292812D01*
X192747187Y-57292809D01*
X192632093Y-57206649D01*
X192632086Y-57206645D01*
X192497379Y-57156403D01*
X192497372Y-57156401D01*
X192437844Y-57150000D01*
X191790000Y-57150000D01*
X191790000Y-58066988D01*
X191732993Y-58034075D01*
X191605826Y-58000000D01*
X191474174Y-58000000D01*
X191347007Y-58034075D01*
X191290000Y-58066988D01*
X191290000Y-57150000D01*
X190642155Y-57150000D01*
X190582627Y-57156401D01*
X190582620Y-57156403D01*
X190447913Y-57206645D01*
X190447906Y-57206649D01*
X190332812Y-57292809D01*
X190332809Y-57292812D01*
X190246649Y-57407906D01*
X190246645Y-57407913D01*
X190197578Y-57539470D01*
X190155707Y-57595404D01*
X190090242Y-57619821D01*
X190021969Y-57604969D01*
X189993715Y-57583819D01*
X189935738Y-57525842D01*
X189871401Y-57461505D01*
X189871397Y-57461502D01*
X189871396Y-57461501D01*
X189677834Y-57325967D01*
X189677830Y-57325965D01*
X189606727Y-57292809D01*
X189463663Y-57226097D01*
X189463659Y-57226096D01*
X189463655Y-57226094D01*
X189235413Y-57164938D01*
X189235403Y-57164936D01*
X189000001Y-57144341D01*
X188999999Y-57144341D01*
X188764596Y-57164936D01*
X188764586Y-57164938D01*
X188536344Y-57226094D01*
X188536335Y-57226098D01*
X188322171Y-57325964D01*
X188322169Y-57325965D01*
X188128597Y-57461505D01*
X187961505Y-57628597D01*
X187831575Y-57814158D01*
X187776998Y-57857783D01*
X187707500Y-57864977D01*
X187645145Y-57833454D01*
X187628425Y-57814158D01*
X187498494Y-57628597D01*
X187331402Y-57461506D01*
X187331395Y-57461501D01*
X187137834Y-57325967D01*
X187137830Y-57325965D01*
X187066727Y-57292809D01*
X186923663Y-57226097D01*
X186923659Y-57226096D01*
X186923655Y-57226094D01*
X186695413Y-57164938D01*
X186695403Y-57164936D01*
X186460001Y-57144341D01*
X186459999Y-57144341D01*
X186224596Y-57164936D01*
X186224586Y-57164938D01*
X185996344Y-57226094D01*
X185996335Y-57226098D01*
X185782171Y-57325964D01*
X185782169Y-57325965D01*
X185588597Y-57461505D01*
X185421505Y-57628597D01*
X185291575Y-57814158D01*
X185236998Y-57857783D01*
X185167500Y-57864977D01*
X185105145Y-57833454D01*
X185088425Y-57814158D01*
X184958494Y-57628597D01*
X184791402Y-57461506D01*
X184791395Y-57461501D01*
X184597834Y-57325967D01*
X184597830Y-57325965D01*
X184526727Y-57292809D01*
X184383663Y-57226097D01*
X184383659Y-57226096D01*
X184383655Y-57226094D01*
X184155413Y-57164938D01*
X184155403Y-57164936D01*
X183920001Y-57144341D01*
X183919999Y-57144341D01*
X183684596Y-57164936D01*
X183684586Y-57164938D01*
X183456344Y-57226094D01*
X183456335Y-57226098D01*
X183242171Y-57325964D01*
X183242169Y-57325965D01*
X183048597Y-57461505D01*
X182881506Y-57628596D01*
X182786134Y-57764804D01*
X182765418Y-57794390D01*
X182763854Y-57796623D01*
X182709277Y-57840248D01*
X182662279Y-57849500D01*
X181973929Y-57849500D01*
X181848261Y-57874497D01*
X181848255Y-57874499D01*
X181729874Y-57923534D01*
X181623326Y-57994726D01*
X181623325Y-57994727D01*
X176550873Y-63067181D01*
X176489550Y-63100666D01*
X176463192Y-63103500D01*
X163667809Y-63103500D01*
X163600770Y-63083815D01*
X163555015Y-63031011D01*
X163545071Y-62961853D01*
X163574096Y-62898297D01*
X163580128Y-62891819D01*
X166721949Y-59749998D01*
X173794390Y-59749998D01*
X173794390Y-59750001D01*
X173814804Y-60035433D01*
X173875628Y-60315037D01*
X173875630Y-60315043D01*
X173875631Y-60315046D01*
X173974847Y-60581054D01*
X173975635Y-60583166D01*
X174112770Y-60834309D01*
X174112775Y-60834317D01*
X174284254Y-61063387D01*
X174284270Y-61063405D01*
X174486594Y-61265729D01*
X174486612Y-61265745D01*
X174715682Y-61437224D01*
X174715690Y-61437229D01*
X174966833Y-61574364D01*
X174966832Y-61574364D01*
X174966836Y-61574365D01*
X174966839Y-61574367D01*
X175234954Y-61674369D01*
X175234960Y-61674370D01*
X175234962Y-61674371D01*
X175514566Y-61735195D01*
X175514568Y-61735195D01*
X175514572Y-61735196D01*
X175768220Y-61753337D01*
X175799999Y-61755610D01*
X175800000Y-61755610D01*
X175800001Y-61755610D01*
X175828595Y-61753564D01*
X176085428Y-61735196D01*
X176318052Y-61684592D01*
X176365037Y-61674371D01*
X176365037Y-61674370D01*
X176365046Y-61674369D01*
X176633161Y-61574367D01*
X176884315Y-61437226D01*
X177113395Y-61265739D01*
X177315739Y-61063395D01*
X177487226Y-60834315D01*
X177624367Y-60583161D01*
X177724369Y-60315046D01*
X177738215Y-60251395D01*
X177785195Y-60035433D01*
X177785195Y-60035432D01*
X177785196Y-60035428D01*
X177805610Y-59750000D01*
X177785196Y-59464572D01*
X177784316Y-59460528D01*
X177724371Y-59184962D01*
X177724370Y-59184960D01*
X177724369Y-59184954D01*
X177624367Y-58916839D01*
X177615226Y-58900099D01*
X177487229Y-58665690D01*
X177487224Y-58665682D01*
X177315745Y-58436612D01*
X177315729Y-58436594D01*
X177113405Y-58234270D01*
X177113387Y-58234254D01*
X176884317Y-58062775D01*
X176884309Y-58062770D01*
X176633166Y-57925635D01*
X176633167Y-57925635D01*
X176525915Y-57885632D01*
X176365046Y-57825631D01*
X176365043Y-57825630D01*
X176365037Y-57825628D01*
X176085433Y-57764804D01*
X175800001Y-57744390D01*
X175799999Y-57744390D01*
X175514566Y-57764804D01*
X175234962Y-57825628D01*
X174966833Y-57925635D01*
X174715690Y-58062770D01*
X174715682Y-58062775D01*
X174486612Y-58234254D01*
X174486594Y-58234270D01*
X174284270Y-58436594D01*
X174284254Y-58436612D01*
X174112775Y-58665682D01*
X174112770Y-58665690D01*
X173975635Y-58916833D01*
X173875628Y-59184962D01*
X173814804Y-59464566D01*
X173794390Y-59749998D01*
X166721949Y-59749998D01*
X175471952Y-50999994D01*
X201519945Y-50999994D01*
X201519945Y-51000005D01*
X201540130Y-51243605D01*
X201600138Y-51480573D01*
X201698330Y-51704429D01*
X201794626Y-51851819D01*
X202398958Y-51247487D01*
X202423978Y-51307890D01*
X202495112Y-51414351D01*
X202585649Y-51504888D01*
X202692110Y-51576022D01*
X202752511Y-51601041D01*
X202147758Y-52205794D01*
X202147758Y-52205796D01*
X202190478Y-52239046D01*
X202190484Y-52239050D01*
X202405468Y-52355394D01*
X202405476Y-52355397D01*
X202636664Y-52434765D01*
X202877779Y-52475000D01*
X203122221Y-52475000D01*
X203363335Y-52434765D01*
X203594523Y-52355397D01*
X203594531Y-52355394D01*
X203809514Y-52239051D01*
X203809514Y-52239050D01*
X203852240Y-52205795D01*
X203852240Y-52205794D01*
X203247488Y-51601041D01*
X203307890Y-51576022D01*
X203414351Y-51504888D01*
X203504888Y-51414351D01*
X203576022Y-51307890D01*
X203601041Y-51247488D01*
X204205372Y-51851819D01*
X204301667Y-51704431D01*
X204301672Y-51704423D01*
X204399861Y-51480573D01*
X204459869Y-51243605D01*
X204480055Y-51000005D01*
X204480055Y-50999994D01*
X204459869Y-50756394D01*
X204399861Y-50519426D01*
X204301669Y-50295570D01*
X204205372Y-50148179D01*
X203601041Y-50752510D01*
X203576022Y-50692110D01*
X203504888Y-50585649D01*
X203414351Y-50495112D01*
X203307890Y-50423978D01*
X203247487Y-50398958D01*
X203852240Y-49794204D01*
X203852240Y-49794203D01*
X203809514Y-49760949D01*
X203594531Y-49644605D01*
X203594523Y-49644602D01*
X203363335Y-49565234D01*
X203122221Y-49525000D01*
X202877779Y-49525000D01*
X202636664Y-49565234D01*
X202405476Y-49644602D01*
X202405468Y-49644605D01*
X202190481Y-49760951D01*
X202147758Y-49794202D01*
X202147757Y-49794204D01*
X202752511Y-50398958D01*
X202692110Y-50423978D01*
X202585649Y-50495112D01*
X202495112Y-50585649D01*
X202423978Y-50692110D01*
X202398958Y-50752511D01*
X201794626Y-50148179D01*
X201698328Y-50295575D01*
X201600138Y-50519426D01*
X201540130Y-50756394D01*
X201519945Y-50999994D01*
X175471952Y-50999994D01*
X179419776Y-47052169D01*
X180471951Y-45999994D01*
X201519443Y-45999994D01*
X201519443Y-46000005D01*
X201539634Y-46243683D01*
X201539636Y-46243695D01*
X201599663Y-46480734D01*
X201697888Y-46704666D01*
X201831632Y-46909378D01*
X201997242Y-47089277D01*
X201997252Y-47089286D01*
X202067117Y-47143664D01*
X202190212Y-47239473D01*
X202405267Y-47355855D01*
X202405270Y-47355856D01*
X202636541Y-47435251D01*
X202636543Y-47435251D01*
X202636545Y-47435252D01*
X202877737Y-47475500D01*
X202877738Y-47475500D01*
X203122262Y-47475500D01*
X203122263Y-47475500D01*
X203363455Y-47435252D01*
X203594733Y-47355855D01*
X203809788Y-47239473D01*
X204002754Y-47089281D01*
X204168368Y-46909377D01*
X204302111Y-46704667D01*
X204400336Y-46480736D01*
X204460364Y-46243692D01*
X204462631Y-46216335D01*
X204480557Y-46000005D01*
X204480557Y-45999994D01*
X204460365Y-45756316D01*
X204460363Y-45756304D01*
X204427201Y-45625351D01*
X204400336Y-45519264D01*
X204302111Y-45295333D01*
X204225779Y-45178498D01*
X204168367Y-45090621D01*
X204002757Y-44910722D01*
X204002747Y-44910713D01*
X203809791Y-44760529D01*
X203809787Y-44760526D01*
X203594734Y-44644145D01*
X203594729Y-44644143D01*
X203363458Y-44564748D01*
X203182561Y-44534562D01*
X203122263Y-44524500D01*
X202877737Y-44524500D01*
X202829498Y-44532549D01*
X202636541Y-44564748D01*
X202405270Y-44644143D01*
X202405265Y-44644145D01*
X202190212Y-44760526D01*
X202190208Y-44760529D01*
X201997252Y-44910713D01*
X201997242Y-44910722D01*
X201831632Y-45090621D01*
X201697888Y-45295333D01*
X201599663Y-45519265D01*
X201539636Y-45756304D01*
X201539634Y-45756316D01*
X201519443Y-45999994D01*
X180471951Y-45999994D01*
X182661302Y-43810642D01*
X182722623Y-43777159D01*
X182792315Y-43782143D01*
X182848248Y-43824015D01*
X182850550Y-43827193D01*
X182881505Y-43871401D01*
X183048599Y-44038495D01*
X183125135Y-44092086D01*
X183242165Y-44174032D01*
X183242167Y-44174033D01*
X183242170Y-44174035D01*
X183456337Y-44273903D01*
X183684592Y-44335063D01*
X183855319Y-44350000D01*
X183919999Y-44355659D01*
X183920000Y-44355659D01*
X183920001Y-44355659D01*
X183984681Y-44350000D01*
X184155408Y-44335063D01*
X184383663Y-44273903D01*
X184597830Y-44174035D01*
X184791401Y-44038495D01*
X184958495Y-43871401D01*
X185088425Y-43685842D01*
X185143002Y-43642217D01*
X185212500Y-43635023D01*
X185274855Y-43666546D01*
X185291575Y-43685842D01*
X185413076Y-43859364D01*
X185421505Y-43871401D01*
X185588599Y-44038495D01*
X185665135Y-44092086D01*
X185782165Y-44174032D01*
X185782167Y-44174033D01*
X185782170Y-44174035D01*
X185996337Y-44273903D01*
X186224592Y-44335063D01*
X186395319Y-44350000D01*
X186459999Y-44355659D01*
X186460000Y-44355659D01*
X186460001Y-44355659D01*
X186524681Y-44350000D01*
X186695408Y-44335063D01*
X186923663Y-44273903D01*
X187137830Y-44174035D01*
X187331401Y-44038495D01*
X187498495Y-43871401D01*
X187628425Y-43685842D01*
X187683002Y-43642217D01*
X187752500Y-43635023D01*
X187814855Y-43666546D01*
X187831575Y-43685842D01*
X187953076Y-43859364D01*
X187961505Y-43871401D01*
X188128599Y-44038495D01*
X188205135Y-44092086D01*
X188322165Y-44174032D01*
X188322167Y-44174033D01*
X188322170Y-44174035D01*
X188536337Y-44273903D01*
X188764592Y-44335063D01*
X188935319Y-44350000D01*
X188999999Y-44355659D01*
X189000000Y-44355659D01*
X189000001Y-44355659D01*
X189064681Y-44350000D01*
X189235408Y-44335063D01*
X189463663Y-44273903D01*
X189677830Y-44174035D01*
X189871401Y-44038495D01*
X189993717Y-43916178D01*
X190055036Y-43882696D01*
X190124728Y-43887680D01*
X190180662Y-43929551D01*
X190197577Y-43960528D01*
X190246646Y-44092088D01*
X190246649Y-44092093D01*
X190332809Y-44207187D01*
X190332812Y-44207190D01*
X190447906Y-44293350D01*
X190447913Y-44293354D01*
X190582620Y-44343596D01*
X190582627Y-44343598D01*
X190642155Y-44349999D01*
X190642172Y-44350000D01*
X191290000Y-44350000D01*
X191290000Y-43433012D01*
X191347007Y-43465925D01*
X191474174Y-43500000D01*
X191605826Y-43500000D01*
X191732993Y-43465925D01*
X191790000Y-43433012D01*
X191790000Y-44350000D01*
X192437828Y-44350000D01*
X192437844Y-44349999D01*
X192497372Y-44343598D01*
X192497379Y-44343596D01*
X192632086Y-44293354D01*
X192632093Y-44293350D01*
X192747187Y-44207190D01*
X192747190Y-44207187D01*
X192833350Y-44092093D01*
X192833354Y-44092086D01*
X192883596Y-43957379D01*
X192883598Y-43957372D01*
X192889999Y-43897844D01*
X192890000Y-43897827D01*
X192890000Y-43250000D01*
X191973012Y-43250000D01*
X192005925Y-43192993D01*
X192040000Y-43065826D01*
X192040000Y-42934174D01*
X192005925Y-42807007D01*
X191973012Y-42750000D01*
X192890000Y-42750000D01*
X192890000Y-42102172D01*
X192889999Y-42102155D01*
X192883598Y-42042627D01*
X192883596Y-42042620D01*
X192833354Y-41907913D01*
X192833350Y-41907906D01*
X192747190Y-41792812D01*
X192747187Y-41792809D01*
X192632093Y-41706649D01*
X192632086Y-41706645D01*
X192497379Y-41656403D01*
X192497372Y-41656401D01*
X192437844Y-41650000D01*
X191790000Y-41650000D01*
X191790000Y-42566988D01*
X191732993Y-42534075D01*
X191605826Y-42500000D01*
X191474174Y-42500000D01*
X191347007Y-42534075D01*
X191290000Y-42566988D01*
X191290000Y-41650000D01*
X190642155Y-41650000D01*
X190582627Y-41656401D01*
X190582620Y-41656403D01*
X190447913Y-41706645D01*
X190447906Y-41706649D01*
X190332812Y-41792809D01*
X190332809Y-41792812D01*
X190246649Y-41907906D01*
X190246645Y-41907913D01*
X190197578Y-42039470D01*
X190155707Y-42095404D01*
X190090242Y-42119821D01*
X190021969Y-42104969D01*
X189993715Y-42083819D01*
X189949366Y-42039470D01*
X189871401Y-41961505D01*
X189871397Y-41961502D01*
X189871396Y-41961501D01*
X189677834Y-41825967D01*
X189677830Y-41825965D01*
X189606727Y-41792809D01*
X189463663Y-41726097D01*
X189463659Y-41726096D01*
X189463655Y-41726094D01*
X189235413Y-41664938D01*
X189235403Y-41664936D01*
X189000001Y-41644341D01*
X188999999Y-41644341D01*
X188764596Y-41664936D01*
X188764586Y-41664938D01*
X188536344Y-41726094D01*
X188536335Y-41726098D01*
X188322171Y-41825964D01*
X188322169Y-41825965D01*
X188128597Y-41961505D01*
X187961505Y-42128597D01*
X187831575Y-42314158D01*
X187776998Y-42357783D01*
X187707500Y-42364977D01*
X187645145Y-42333454D01*
X187628425Y-42314158D01*
X187498494Y-42128597D01*
X187331402Y-41961506D01*
X187331395Y-41961501D01*
X187137834Y-41825967D01*
X187137830Y-41825965D01*
X187066727Y-41792809D01*
X186923663Y-41726097D01*
X186923659Y-41726096D01*
X186923655Y-41726094D01*
X186695413Y-41664938D01*
X186695403Y-41664936D01*
X186460001Y-41644341D01*
X186459999Y-41644341D01*
X186224596Y-41664936D01*
X186224586Y-41664938D01*
X185996344Y-41726094D01*
X185996335Y-41726098D01*
X185782171Y-41825964D01*
X185782169Y-41825965D01*
X185588597Y-41961505D01*
X185421505Y-42128597D01*
X185291575Y-42314158D01*
X185236998Y-42357783D01*
X185167500Y-42364977D01*
X185105145Y-42333454D01*
X185088425Y-42314158D01*
X184958494Y-42128597D01*
X184791402Y-41961506D01*
X184791395Y-41961501D01*
X184597834Y-41825967D01*
X184597830Y-41825965D01*
X184526727Y-41792809D01*
X184383663Y-41726097D01*
X184383659Y-41726096D01*
X184383655Y-41726094D01*
X184155413Y-41664938D01*
X184155403Y-41664936D01*
X183920001Y-41644341D01*
X183919999Y-41644341D01*
X183684596Y-41664936D01*
X183684586Y-41664938D01*
X183456344Y-41726094D01*
X183456335Y-41726098D01*
X183242171Y-41825964D01*
X183242169Y-41825965D01*
X183048597Y-41961505D01*
X182881506Y-42128596D01*
X182763854Y-42296623D01*
X182709277Y-42340248D01*
X182662279Y-42349500D01*
X182487929Y-42349500D01*
X182362261Y-42374497D01*
X182362255Y-42374499D01*
X182243874Y-42423534D01*
X182137326Y-42494726D01*
X182137325Y-42494727D01*
X162834873Y-61797181D01*
X162773550Y-61830666D01*
X162747192Y-61833500D01*
X145135990Y-61833500D01*
X145068951Y-61813815D01*
X145023196Y-61761011D01*
X145013252Y-61691853D01*
X145042277Y-61628297D01*
X145076563Y-61600668D01*
X145196641Y-61535099D01*
X145284315Y-61487226D01*
X145513395Y-61315739D01*
X145715739Y-61113395D01*
X145887226Y-60884315D01*
X146024367Y-60633161D01*
X146124369Y-60365046D01*
X146185196Y-60085428D01*
X146205610Y-59800000D01*
X146205134Y-59793350D01*
X146192408Y-59615408D01*
X146185196Y-59514572D01*
X146183331Y-59506000D01*
X146124371Y-59234962D01*
X146124370Y-59234960D01*
X146124369Y-59234954D01*
X146024367Y-58966839D01*
X145998215Y-58918946D01*
X145887229Y-58715690D01*
X145887224Y-58715682D01*
X145715745Y-58486612D01*
X145715729Y-58486594D01*
X145513405Y-58284270D01*
X145513387Y-58284254D01*
X145284317Y-58112775D01*
X145284309Y-58112770D01*
X145033166Y-57975635D01*
X145033167Y-57975635D01*
X144925915Y-57935632D01*
X144765046Y-57875631D01*
X144765043Y-57875630D01*
X144765037Y-57875628D01*
X144485433Y-57814804D01*
X144200001Y-57794390D01*
X144199999Y-57794390D01*
X143914566Y-57814804D01*
X143634962Y-57875628D01*
X143366833Y-57975635D01*
X143115690Y-58112770D01*
X143115682Y-58112775D01*
X142886612Y-58284254D01*
X142886594Y-58284270D01*
X142684270Y-58486594D01*
X142684254Y-58486612D01*
X142512775Y-58715682D01*
X142512770Y-58715690D01*
X142375635Y-58966833D01*
X142275628Y-59234962D01*
X142214804Y-59514566D01*
X142194390Y-59799998D01*
X142194390Y-59800001D01*
X142214804Y-60085433D01*
X142275628Y-60365037D01*
X142275630Y-60365043D01*
X142275631Y-60365046D01*
X142364270Y-60602696D01*
X142375635Y-60633166D01*
X142512770Y-60884309D01*
X142512775Y-60884317D01*
X142684254Y-61113387D01*
X142684270Y-61113405D01*
X142886594Y-61315729D01*
X142886612Y-61315745D01*
X143115682Y-61487224D01*
X143115690Y-61487229D01*
X143366833Y-61624364D01*
X143366837Y-61624366D01*
X143366839Y-61624367D01*
X143631943Y-61723246D01*
X143687876Y-61765117D01*
X143712293Y-61830581D01*
X143697441Y-61898854D01*
X143657499Y-61942529D01*
X143603332Y-61978721D01*
X143603325Y-61978727D01*
X132082724Y-73499328D01*
X132039489Y-73564034D01*
X132039490Y-73564035D01*
X132011534Y-73605874D01*
X131962499Y-73724255D01*
X131962497Y-73724261D01*
X131937500Y-73849928D01*
X131937500Y-79871191D01*
X131917815Y-79938230D01*
X131901181Y-79958872D01*
X129564962Y-82295090D01*
X129503639Y-82328575D01*
X129433947Y-82323591D01*
X129378014Y-82281719D01*
X129353753Y-82218217D01*
X129335063Y-82004596D01*
X129335063Y-82004592D01*
X129273903Y-81776337D01*
X129174035Y-81562171D01*
X129168425Y-81554158D01*
X129038494Y-81368597D01*
X128871402Y-81201506D01*
X128871396Y-81201501D01*
X128685842Y-81071575D01*
X128642217Y-81016998D01*
X128635023Y-80947500D01*
X128666546Y-80885145D01*
X128685842Y-80868425D01*
X128795262Y-80791808D01*
X128871401Y-80738495D01*
X129038495Y-80571401D01*
X129174035Y-80377830D01*
X129273903Y-80163663D01*
X129335063Y-79935408D01*
X129355659Y-79700000D01*
X129335063Y-79464592D01*
X129282923Y-79270000D01*
X129273905Y-79236344D01*
X129273904Y-79236343D01*
X129273903Y-79236337D01*
X129174035Y-79022171D01*
X129168731Y-79014595D01*
X129038494Y-78828597D01*
X128871402Y-78661506D01*
X128871396Y-78661501D01*
X128685842Y-78531575D01*
X128642217Y-78476998D01*
X128635023Y-78407500D01*
X128666546Y-78345145D01*
X128685842Y-78328425D01*
X128761162Y-78275685D01*
X128871401Y-78198495D01*
X129038495Y-78031401D01*
X129174035Y-77837830D01*
X129273903Y-77623663D01*
X129335063Y-77395408D01*
X129355659Y-77160000D01*
X129335063Y-76924592D01*
X129273903Y-76696337D01*
X129174035Y-76482171D01*
X129168425Y-76474158D01*
X129038494Y-76288597D01*
X128871402Y-76121506D01*
X128871401Y-76121505D01*
X128685405Y-75991269D01*
X128641781Y-75936692D01*
X128634588Y-75867193D01*
X128666110Y-75804839D01*
X128685405Y-75788119D01*
X128871082Y-75658105D01*
X129038105Y-75491082D01*
X129173600Y-75297578D01*
X129273429Y-75083492D01*
X129273432Y-75083486D01*
X129330636Y-74870000D01*
X128433012Y-74870000D01*
X128465925Y-74812993D01*
X128500000Y-74685826D01*
X128500000Y-74554174D01*
X128465925Y-74427007D01*
X128433012Y-74370000D01*
X129330636Y-74370000D01*
X129330635Y-74369999D01*
X129273432Y-74156513D01*
X129273429Y-74156507D01*
X129173600Y-73942422D01*
X129173599Y-73942420D01*
X129038113Y-73748926D01*
X129038108Y-73748920D01*
X128871078Y-73581890D01*
X128685405Y-73451879D01*
X128641780Y-73397302D01*
X128634588Y-73327804D01*
X128666110Y-73265449D01*
X128685406Y-73248730D01*
X128716430Y-73227007D01*
X128871401Y-73118495D01*
X129038495Y-72951401D01*
X129174035Y-72757830D01*
X129273903Y-72543663D01*
X129335063Y-72315408D01*
X129355659Y-72080000D01*
X129335063Y-71844592D01*
X129273903Y-71616337D01*
X129174035Y-71402171D01*
X129168425Y-71394158D01*
X129038494Y-71208597D01*
X128871402Y-71041506D01*
X128871396Y-71041501D01*
X128685842Y-70911575D01*
X128642217Y-70856998D01*
X128635023Y-70787500D01*
X128666546Y-70725145D01*
X128685842Y-70708425D01*
X128764460Y-70653376D01*
X128871401Y-70578495D01*
X129038495Y-70411401D01*
X129174035Y-70217830D01*
X129273903Y-70003663D01*
X129335063Y-69775408D01*
X129355659Y-69540000D01*
X129335063Y-69304592D01*
X129287837Y-69128340D01*
X129273905Y-69076344D01*
X129273904Y-69076343D01*
X129273903Y-69076337D01*
X129174035Y-68862171D01*
X129168425Y-68854158D01*
X129038494Y-68668597D01*
X128871402Y-68501506D01*
X128871396Y-68501501D01*
X128685842Y-68371575D01*
X128642217Y-68316998D01*
X128635023Y-68247500D01*
X128666546Y-68185145D01*
X128685842Y-68168425D01*
X128840687Y-68060001D01*
X128871401Y-68038495D01*
X129038495Y-67871401D01*
X129174035Y-67677830D01*
X129273903Y-67463663D01*
X129335063Y-67235408D01*
X129355659Y-67000000D01*
X129335063Y-66764592D01*
X129273903Y-66536337D01*
X129174035Y-66322171D01*
X129168731Y-66314595D01*
X129038494Y-66128597D01*
X128871402Y-65961506D01*
X128871396Y-65961501D01*
X128685842Y-65831575D01*
X128642217Y-65776998D01*
X128635023Y-65707500D01*
X128666546Y-65645145D01*
X128685842Y-65628425D01*
X128760681Y-65576022D01*
X128871401Y-65498495D01*
X129038495Y-65331401D01*
X129086127Y-65263376D01*
X129140704Y-65219751D01*
X129187701Y-65210500D01*
X131923920Y-65210500D01*
X132028997Y-65189598D01*
X132068913Y-65181658D01*
X132205495Y-65125084D01*
X132254729Y-65092186D01*
X132328416Y-65042952D01*
X143174549Y-54196817D01*
X143235872Y-54163333D01*
X143262230Y-54160499D01*
X144397871Y-54160499D01*
X144397872Y-54160499D01*
X144457483Y-54154091D01*
X144592331Y-54103796D01*
X144707546Y-54017546D01*
X144793796Y-53902331D01*
X144844091Y-53767483D01*
X144850500Y-53707873D01*
X144850499Y-51912128D01*
X144844091Y-51852517D01*
X144809584Y-51760000D01*
X144793797Y-51717671D01*
X144793793Y-51717664D01*
X144707547Y-51602455D01*
X144707544Y-51602452D01*
X144592335Y-51516206D01*
X144592328Y-51516202D01*
X144460917Y-51467189D01*
X144404983Y-51425318D01*
X144380566Y-51359853D01*
X144395418Y-51291580D01*
X144416563Y-51263332D01*
X144538495Y-51141401D01*
X144674035Y-50947830D01*
X144773903Y-50733663D01*
X144835063Y-50505408D01*
X144855659Y-50270000D01*
X144835063Y-50034592D01*
X144773903Y-49806337D01*
X144674035Y-49592171D01*
X144588491Y-49470000D01*
X144538494Y-49398597D01*
X144371402Y-49231506D01*
X144371396Y-49231501D01*
X144185842Y-49101575D01*
X144142217Y-49046998D01*
X144135023Y-48977500D01*
X144166546Y-48915145D01*
X144185842Y-48898425D01*
X144208026Y-48882891D01*
X144371401Y-48768495D01*
X144538495Y-48601401D01*
X144674035Y-48407830D01*
X144773903Y-48193663D01*
X144835063Y-47965408D01*
X144855659Y-47730000D01*
X144835063Y-47494592D01*
X144773903Y-47266337D01*
X144674035Y-47052171D01*
X144578277Y-46915413D01*
X144538494Y-46858597D01*
X144371402Y-46691506D01*
X144371401Y-46691505D01*
X144185405Y-46561269D01*
X144141781Y-46506692D01*
X144134588Y-46437193D01*
X144166110Y-46374839D01*
X144185405Y-46358119D01*
X144371082Y-46228105D01*
X144538105Y-46061082D01*
X144673600Y-45867578D01*
X144773429Y-45653492D01*
X144773432Y-45653486D01*
X144830636Y-45440000D01*
X143933012Y-45440000D01*
X143965925Y-45382993D01*
X144000000Y-45255826D01*
X144000000Y-45124174D01*
X143965925Y-44997007D01*
X143933012Y-44940000D01*
X144830636Y-44940000D01*
X144830635Y-44939999D01*
X144773432Y-44726513D01*
X144773429Y-44726507D01*
X144673600Y-44512422D01*
X144673599Y-44512420D01*
X144538113Y-44318926D01*
X144538108Y-44318920D01*
X144371082Y-44151894D01*
X144177578Y-44016399D01*
X143963492Y-43916570D01*
X143963486Y-43916567D01*
X143750000Y-43859364D01*
X143750000Y-44756988D01*
X143692993Y-44724075D01*
X143565826Y-44690000D01*
X143434174Y-44690000D01*
X143307007Y-44724075D01*
X143250000Y-44756988D01*
X143250000Y-43859364D01*
X143249999Y-43859364D01*
X143036513Y-43916567D01*
X143036507Y-43916570D01*
X142822422Y-44016399D01*
X142822420Y-44016400D01*
X142628926Y-44151886D01*
X142628920Y-44151891D01*
X142461891Y-44318920D01*
X142461886Y-44318926D01*
X142326400Y-44512420D01*
X142326399Y-44512422D01*
X142226570Y-44726507D01*
X142226567Y-44726513D01*
X142169364Y-44939999D01*
X142169364Y-44940000D01*
X143066988Y-44940000D01*
X143034075Y-44997007D01*
X143000000Y-45124174D01*
X143000000Y-45255826D01*
X143034075Y-45382993D01*
X143066988Y-45440000D01*
X142169364Y-45440000D01*
X142226567Y-45653486D01*
X142226570Y-45653492D01*
X142326399Y-45867578D01*
X142461894Y-46061082D01*
X142628917Y-46228105D01*
X142814595Y-46358119D01*
X142858219Y-46412696D01*
X142865412Y-46482195D01*
X142833890Y-46544549D01*
X142814595Y-46561269D01*
X142628594Y-46691508D01*
X142461505Y-46858597D01*
X142325965Y-47052169D01*
X142325964Y-47052171D01*
X142226098Y-47266335D01*
X142226094Y-47266344D01*
X142164938Y-47494586D01*
X142164936Y-47494596D01*
X142144341Y-47729999D01*
X142144341Y-47730000D01*
X142164936Y-47965403D01*
X142164938Y-47965413D01*
X142226094Y-48193655D01*
X142226096Y-48193659D01*
X142226097Y-48193663D01*
X142298343Y-48348594D01*
X142325965Y-48407830D01*
X142325967Y-48407834D01*
X142461501Y-48601395D01*
X142461506Y-48601402D01*
X142628597Y-48768493D01*
X142628603Y-48768498D01*
X142814158Y-48898425D01*
X142857783Y-48953002D01*
X142864977Y-49022500D01*
X142833454Y-49084855D01*
X142814158Y-49101575D01*
X142628597Y-49231505D01*
X142461505Y-49398597D01*
X142325965Y-49592169D01*
X142325964Y-49592171D01*
X142226098Y-49806335D01*
X142226094Y-49806344D01*
X142164938Y-50034586D01*
X142164936Y-50034596D01*
X142144341Y-50269999D01*
X142144341Y-50270000D01*
X142164936Y-50505403D01*
X142164938Y-50505413D01*
X142226094Y-50733655D01*
X142226096Y-50733659D01*
X142226097Y-50733663D01*
X142236697Y-50756394D01*
X142325965Y-50947830D01*
X142325967Y-50947834D01*
X142362498Y-51000005D01*
X142461501Y-51141396D01*
X142461506Y-51141402D01*
X142583430Y-51263326D01*
X142616915Y-51324649D01*
X142611931Y-51394341D01*
X142570059Y-51450274D01*
X142539083Y-51467189D01*
X142407669Y-51516203D01*
X142407664Y-51516206D01*
X142292455Y-51602452D01*
X142292452Y-51602455D01*
X142206206Y-51717664D01*
X142206202Y-51717671D01*
X142155908Y-51852517D01*
X142149501Y-51912116D01*
X142149501Y-51912123D01*
X142149500Y-51912135D01*
X142149500Y-53047769D01*
X142129815Y-53114808D01*
X142113181Y-53135450D01*
X131575451Y-63673181D01*
X131514128Y-63706666D01*
X131487770Y-63709500D01*
X129187701Y-63709500D01*
X129120662Y-63689815D01*
X129086126Y-63656623D01*
X129038494Y-63588597D01*
X128871402Y-63421506D01*
X128871396Y-63421501D01*
X128685842Y-63291575D01*
X128642217Y-63236998D01*
X128635023Y-63167500D01*
X128666546Y-63105145D01*
X128685842Y-63088425D01*
X128725773Y-63060465D01*
X128871401Y-62958495D01*
X129038495Y-62791401D01*
X129174035Y-62597830D01*
X129273903Y-62383663D01*
X129335063Y-62155408D01*
X129355659Y-61920000D01*
X129335063Y-61684592D01*
X129273903Y-61456337D01*
X129174035Y-61242171D01*
X129168425Y-61234158D01*
X129038494Y-61048597D01*
X128871402Y-60881506D01*
X128871396Y-60881501D01*
X128685842Y-60751575D01*
X128642217Y-60696998D01*
X128635023Y-60627500D01*
X128666546Y-60565145D01*
X128685842Y-60548425D01*
X128708026Y-60532891D01*
X128871401Y-60418495D01*
X129038495Y-60251401D01*
X129174035Y-60057830D01*
X129273903Y-59843663D01*
X129335063Y-59615408D01*
X129355659Y-59380000D01*
X129335063Y-59144592D01*
X129273903Y-58916337D01*
X129174035Y-58702171D01*
X129168731Y-58694595D01*
X129038494Y-58508597D01*
X128871402Y-58341506D01*
X128871396Y-58341501D01*
X128685842Y-58211575D01*
X128642217Y-58156998D01*
X128635023Y-58087500D01*
X128666546Y-58025145D01*
X128685842Y-58008425D01*
X128807077Y-57923535D01*
X128871401Y-57878495D01*
X129038495Y-57711401D01*
X129174035Y-57517830D01*
X129273903Y-57303663D01*
X129335063Y-57075408D01*
X129355659Y-56840000D01*
X129335063Y-56604592D01*
X129273903Y-56376337D01*
X129174035Y-56162171D01*
X129168425Y-56154158D01*
X129038494Y-55968597D01*
X128871402Y-55801506D01*
X128871401Y-55801505D01*
X128685405Y-55671269D01*
X128641781Y-55616692D01*
X128634588Y-55547193D01*
X128666110Y-55484839D01*
X128685405Y-55468119D01*
X128871082Y-55338105D01*
X129038105Y-55171082D01*
X129173600Y-54977578D01*
X129273429Y-54763492D01*
X129273432Y-54763486D01*
X129330636Y-54550000D01*
X128433012Y-54550000D01*
X128465925Y-54492993D01*
X128500000Y-54365826D01*
X128500000Y-54234174D01*
X128465925Y-54107007D01*
X128433012Y-54050000D01*
X129330636Y-54050000D01*
X129330635Y-54049999D01*
X129273432Y-53836513D01*
X129273429Y-53836507D01*
X129173600Y-53622422D01*
X129173599Y-53622420D01*
X129038113Y-53428926D01*
X129038108Y-53428920D01*
X128871078Y-53261890D01*
X128685405Y-53131879D01*
X128641780Y-53077302D01*
X128634588Y-53007804D01*
X128666110Y-52945449D01*
X128685406Y-52928730D01*
X128685842Y-52928425D01*
X128871401Y-52798495D01*
X129038495Y-52631401D01*
X129174035Y-52437830D01*
X129273903Y-52223663D01*
X129335063Y-51995408D01*
X129355659Y-51760000D01*
X129335063Y-51524592D01*
X129273903Y-51296337D01*
X129174035Y-51082171D01*
X129168425Y-51074158D01*
X129038494Y-50888597D01*
X128871402Y-50721506D01*
X128871396Y-50721501D01*
X128685842Y-50591575D01*
X128642217Y-50536998D01*
X128635023Y-50467500D01*
X128666546Y-50405145D01*
X128685842Y-50388425D01*
X128854970Y-50270000D01*
X128871401Y-50258495D01*
X129038495Y-50091401D01*
X129174035Y-49897830D01*
X129273903Y-49683663D01*
X129335063Y-49455408D01*
X129355659Y-49220000D01*
X129335063Y-48984592D01*
X129288626Y-48811285D01*
X129273905Y-48756344D01*
X129273904Y-48756343D01*
X129273903Y-48756337D01*
X129174035Y-48542171D01*
X129168731Y-48534595D01*
X129038494Y-48348597D01*
X128871402Y-48181506D01*
X128871396Y-48181501D01*
X128685842Y-48051575D01*
X128642217Y-47996998D01*
X128635023Y-47927500D01*
X128666546Y-47865145D01*
X128685842Y-47848425D01*
X128854970Y-47730000D01*
X128871401Y-47718495D01*
X129038495Y-47551401D01*
X129174035Y-47357830D01*
X129273903Y-47143663D01*
X129335063Y-46915408D01*
X129355659Y-46680000D01*
X129335063Y-46444592D01*
X129288626Y-46271285D01*
X129273905Y-46216344D01*
X129273904Y-46216343D01*
X129273903Y-46216337D01*
X129174035Y-46002171D01*
X129172518Y-46000005D01*
X129038496Y-45808600D01*
X128986200Y-45756304D01*
X128916567Y-45686671D01*
X128883084Y-45625351D01*
X128888068Y-45555659D01*
X128929939Y-45499725D01*
X128960915Y-45482810D01*
X129092331Y-45433796D01*
X129207546Y-45347546D01*
X129293796Y-45232331D01*
X129344091Y-45097483D01*
X129350500Y-45037873D01*
X129350499Y-43242128D01*
X129344091Y-43182517D01*
X129342810Y-43179083D01*
X129293797Y-43047671D01*
X129293793Y-43047664D01*
X129207547Y-42932455D01*
X129207544Y-42932452D01*
X129092335Y-42846206D01*
X129092328Y-42846202D01*
X128957482Y-42795908D01*
X128957483Y-42795908D01*
X128897883Y-42789501D01*
X128897881Y-42789500D01*
X128897873Y-42789500D01*
X128897864Y-42789500D01*
X127102129Y-42789500D01*
X127102123Y-42789501D01*
X127042516Y-42795908D01*
X126907671Y-42846202D01*
X126907664Y-42846206D01*
X126792455Y-42932452D01*
X126792452Y-42932455D01*
X126706206Y-43047664D01*
X126706203Y-43047669D01*
X126657189Y-43179083D01*
X126615317Y-43235016D01*
X126549853Y-43259433D01*
X126481580Y-43244581D01*
X126453326Y-43223430D01*
X126331402Y-43101506D01*
X126331395Y-43101501D01*
X126137834Y-42965967D01*
X126137830Y-42965965D01*
X126069654Y-42934174D01*
X125923663Y-42866097D01*
X125923659Y-42866096D01*
X125923655Y-42866094D01*
X125695413Y-42804938D01*
X125695403Y-42804936D01*
X125460001Y-42784341D01*
X125459999Y-42784341D01*
X125224596Y-42804936D01*
X125224586Y-42804938D01*
X124996344Y-42866094D01*
X124996335Y-42866098D01*
X124782171Y-42965964D01*
X124782169Y-42965965D01*
X124588597Y-43101505D01*
X124421505Y-43268597D01*
X124285965Y-43462169D01*
X124285964Y-43462171D01*
X124186098Y-43676335D01*
X124186094Y-43676344D01*
X124124938Y-43904586D01*
X124124936Y-43904596D01*
X124104341Y-44139999D01*
X124104341Y-44140000D01*
X124124936Y-44375403D01*
X124124938Y-44375413D01*
X124186094Y-44603655D01*
X124186096Y-44603659D01*
X124186097Y-44603663D01*
X124285965Y-44817830D01*
X124285967Y-44817834D01*
X124421501Y-45011395D01*
X124421506Y-45011402D01*
X124588597Y-45178493D01*
X124588603Y-45178498D01*
X124774158Y-45308425D01*
X124817783Y-45363002D01*
X124824977Y-45432500D01*
X124793454Y-45494855D01*
X124774158Y-45511575D01*
X124588597Y-45641505D01*
X124421505Y-45808597D01*
X124285965Y-46002169D01*
X124285964Y-46002171D01*
X124186098Y-46216335D01*
X124186094Y-46216344D01*
X124124938Y-46444586D01*
X124124936Y-46444596D01*
X124104341Y-46679999D01*
X124104341Y-46680000D01*
X124124936Y-46915403D01*
X124124938Y-46915413D01*
X124186094Y-47143655D01*
X124186096Y-47143659D01*
X124186097Y-47143663D01*
X124190000Y-47152032D01*
X124285965Y-47357830D01*
X124285967Y-47357834D01*
X124368358Y-47475500D01*
X124421501Y-47551396D01*
X124421506Y-47551402D01*
X124588597Y-47718493D01*
X124588603Y-47718498D01*
X124774594Y-47848730D01*
X124818219Y-47903307D01*
X124825413Y-47972805D01*
X124793890Y-48035160D01*
X124774595Y-48051880D01*
X124588922Y-48181890D01*
X124588920Y-48181891D01*
X124421891Y-48348920D01*
X124421886Y-48348926D01*
X124286400Y-48542420D01*
X124286399Y-48542422D01*
X124186570Y-48756507D01*
X124186567Y-48756513D01*
X124129364Y-48969999D01*
X124129364Y-48970000D01*
X125026988Y-48970000D01*
X124994075Y-49027007D01*
X124960000Y-49154174D01*
X124960000Y-49285826D01*
X124994075Y-49412993D01*
X125026988Y-49470000D01*
X124129364Y-49470000D01*
X124186567Y-49683486D01*
X124186570Y-49683492D01*
X124286399Y-49897578D01*
X124421894Y-50091082D01*
X124588917Y-50258105D01*
X124774595Y-50388119D01*
X124818219Y-50442696D01*
X124825412Y-50512195D01*
X124793890Y-50574549D01*
X124774595Y-50591269D01*
X124588594Y-50721508D01*
X124421505Y-50888597D01*
X124285965Y-51082169D01*
X124285964Y-51082171D01*
X124186098Y-51296335D01*
X124186094Y-51296344D01*
X124124938Y-51524586D01*
X124124936Y-51524596D01*
X124104341Y-51759999D01*
X124104341Y-51760000D01*
X124124936Y-51995403D01*
X124124938Y-51995413D01*
X124186094Y-52223655D01*
X124186096Y-52223659D01*
X124186097Y-52223663D01*
X124247526Y-52355397D01*
X124285965Y-52437830D01*
X124285967Y-52437834D01*
X124394281Y-52592521D01*
X124421501Y-52631396D01*
X124421506Y-52631402D01*
X124588597Y-52798493D01*
X124588603Y-52798498D01*
X124774158Y-52928425D01*
X124817783Y-52983002D01*
X124824977Y-53052500D01*
X124793454Y-53114855D01*
X124774158Y-53131575D01*
X124588597Y-53261505D01*
X124421505Y-53428597D01*
X124285965Y-53622169D01*
X124285964Y-53622171D01*
X124186098Y-53836335D01*
X124186094Y-53836344D01*
X124124938Y-54064586D01*
X124124936Y-54064596D01*
X124104341Y-54299999D01*
X124104341Y-54300000D01*
X124124936Y-54535403D01*
X124124938Y-54535413D01*
X124186094Y-54763655D01*
X124186096Y-54763659D01*
X124186097Y-54763663D01*
X124269155Y-54941781D01*
X124285965Y-54977830D01*
X124285967Y-54977834D01*
X124394281Y-55132521D01*
X124421501Y-55171396D01*
X124421506Y-55171402D01*
X124588597Y-55338493D01*
X124588603Y-55338498D01*
X124774158Y-55468425D01*
X124817783Y-55523002D01*
X124824977Y-55592500D01*
X124793454Y-55654855D01*
X124774158Y-55671575D01*
X124588597Y-55801505D01*
X124421505Y-55968597D01*
X124285965Y-56162169D01*
X124285964Y-56162171D01*
X124186098Y-56376335D01*
X124186094Y-56376344D01*
X124124938Y-56604586D01*
X124124936Y-56604596D01*
X124104341Y-56839999D01*
X124104341Y-56840000D01*
X124124936Y-57075403D01*
X124124938Y-57075413D01*
X124186094Y-57303655D01*
X124186096Y-57303659D01*
X124186097Y-57303663D01*
X124234710Y-57407913D01*
X124285965Y-57517830D01*
X124285967Y-57517834D01*
X124332171Y-57583819D01*
X124421505Y-57711401D01*
X124588599Y-57878495D01*
X124754595Y-57994727D01*
X124774594Y-58008730D01*
X124818219Y-58063307D01*
X124825413Y-58132805D01*
X124793890Y-58195160D01*
X124774595Y-58211880D01*
X124588922Y-58341890D01*
X124588920Y-58341891D01*
X124421891Y-58508920D01*
X124421886Y-58508926D01*
X124286400Y-58702420D01*
X124286399Y-58702422D01*
X124186570Y-58916507D01*
X124186567Y-58916513D01*
X124129364Y-59129999D01*
X124129364Y-59130000D01*
X125026988Y-59130000D01*
X124994075Y-59187007D01*
X124960000Y-59314174D01*
X124960000Y-59445826D01*
X124994075Y-59572993D01*
X125026988Y-59630000D01*
X124129364Y-59630000D01*
X124186567Y-59843486D01*
X124186570Y-59843492D01*
X124286399Y-60057578D01*
X124421894Y-60251082D01*
X124588917Y-60418105D01*
X124774595Y-60548119D01*
X124818219Y-60602696D01*
X124825412Y-60672195D01*
X124793890Y-60734549D01*
X124774595Y-60751269D01*
X124588594Y-60881508D01*
X124421505Y-61048597D01*
X124285965Y-61242169D01*
X124285964Y-61242171D01*
X124186098Y-61456335D01*
X124186094Y-61456344D01*
X124124938Y-61684586D01*
X124124936Y-61684596D01*
X124104341Y-61919999D01*
X124104341Y-61920000D01*
X124124936Y-62155403D01*
X124124938Y-62155413D01*
X124186094Y-62383655D01*
X124186096Y-62383659D01*
X124186097Y-62383663D01*
X124190000Y-62392032D01*
X124285965Y-62597830D01*
X124285967Y-62597834D01*
X124394281Y-62752521D01*
X124421501Y-62791396D01*
X124421506Y-62791402D01*
X124588597Y-62958493D01*
X124588603Y-62958498D01*
X124774158Y-63088425D01*
X124817783Y-63143002D01*
X124824977Y-63212500D01*
X124793454Y-63274855D01*
X124774158Y-63291575D01*
X124588597Y-63421505D01*
X124421505Y-63588597D01*
X124285965Y-63782169D01*
X124285964Y-63782171D01*
X124186098Y-63996335D01*
X124186094Y-63996344D01*
X124124938Y-64224586D01*
X124124936Y-64224596D01*
X124104341Y-64459999D01*
X124104341Y-64460000D01*
X124124936Y-64695403D01*
X124124938Y-64695413D01*
X124186094Y-64923655D01*
X124186096Y-64923659D01*
X124186097Y-64923663D01*
X124251546Y-65064019D01*
X124285965Y-65137830D01*
X124285967Y-65137834D01*
X124373873Y-65263376D01*
X124421501Y-65331396D01*
X124421506Y-65331402D01*
X124588597Y-65498493D01*
X124588603Y-65498498D01*
X124774594Y-65628730D01*
X124818219Y-65683307D01*
X124825413Y-65752805D01*
X124793890Y-65815160D01*
X124774595Y-65831880D01*
X124588922Y-65961890D01*
X124588920Y-65961891D01*
X124421891Y-66128920D01*
X124421886Y-66128926D01*
X124286400Y-66322420D01*
X124286399Y-66322422D01*
X124186570Y-66536507D01*
X124186567Y-66536513D01*
X124129364Y-66749999D01*
X124129364Y-66750000D01*
X125026988Y-66750000D01*
X124994075Y-66807007D01*
X124960000Y-66934174D01*
X124960000Y-67065826D01*
X124994075Y-67192993D01*
X125026988Y-67250000D01*
X124129364Y-67250000D01*
X124186567Y-67463486D01*
X124186570Y-67463492D01*
X124286399Y-67677578D01*
X124421894Y-67871082D01*
X124588917Y-68038105D01*
X124774595Y-68168119D01*
X124818219Y-68222696D01*
X124825412Y-68292195D01*
X124793890Y-68354549D01*
X124774595Y-68371269D01*
X124588594Y-68501508D01*
X124421505Y-68668597D01*
X124285965Y-68862169D01*
X124285964Y-68862171D01*
X124186098Y-69076335D01*
X124186094Y-69076344D01*
X124124938Y-69304586D01*
X124124936Y-69304596D01*
X124104341Y-69539999D01*
X124104341Y-69540000D01*
X124124936Y-69775403D01*
X124124938Y-69775413D01*
X124186094Y-70003655D01*
X124186096Y-70003659D01*
X124186097Y-70003663D01*
X124224218Y-70085413D01*
X124285965Y-70217830D01*
X124285967Y-70217834D01*
X124394281Y-70372521D01*
X124421501Y-70411396D01*
X124421506Y-70411402D01*
X124588597Y-70578493D01*
X124588603Y-70578498D01*
X124774158Y-70708425D01*
X124817783Y-70763002D01*
X124824977Y-70832500D01*
X124793454Y-70894855D01*
X124774158Y-70911575D01*
X124588597Y-71041505D01*
X124421505Y-71208597D01*
X124285965Y-71402169D01*
X124285964Y-71402171D01*
X124186098Y-71616335D01*
X124186094Y-71616344D01*
X124124938Y-71844586D01*
X124124936Y-71844596D01*
X124104341Y-72079999D01*
X124104341Y-72080000D01*
X124124936Y-72315403D01*
X124124938Y-72315413D01*
X124186094Y-72543655D01*
X124186096Y-72543659D01*
X124186097Y-72543663D01*
X124224218Y-72625413D01*
X124285965Y-72757830D01*
X124285967Y-72757834D01*
X124353426Y-72854174D01*
X124421501Y-72951396D01*
X124421506Y-72951402D01*
X124588597Y-73118493D01*
X124588603Y-73118498D01*
X124774158Y-73248425D01*
X124817783Y-73303002D01*
X124824977Y-73372500D01*
X124793454Y-73434855D01*
X124774158Y-73451575D01*
X124588597Y-73581505D01*
X124421505Y-73748597D01*
X124285965Y-73942169D01*
X124285964Y-73942171D01*
X124186098Y-74156335D01*
X124186094Y-74156344D01*
X124124938Y-74384586D01*
X124124936Y-74384596D01*
X124104341Y-74619999D01*
X124104341Y-74620000D01*
X124124936Y-74855403D01*
X124124938Y-74855413D01*
X124186094Y-75083655D01*
X124186096Y-75083659D01*
X124186097Y-75083663D01*
X124269155Y-75261781D01*
X124285965Y-75297830D01*
X124285967Y-75297834D01*
X124371509Y-75419999D01*
X124421501Y-75491396D01*
X124421506Y-75491402D01*
X124588597Y-75658493D01*
X124588603Y-75658498D01*
X124774158Y-75788425D01*
X124817783Y-75843002D01*
X124824977Y-75912500D01*
X124793454Y-75974855D01*
X124774158Y-75991575D01*
X124588597Y-76121505D01*
X124421505Y-76288597D01*
X124285965Y-76482169D01*
X124285964Y-76482171D01*
X124186098Y-76696335D01*
X124186094Y-76696344D01*
X124124938Y-76924586D01*
X124124936Y-76924596D01*
X124104341Y-77159999D01*
X124104341Y-77160000D01*
X124124936Y-77395403D01*
X124124938Y-77395413D01*
X124186094Y-77623655D01*
X124186096Y-77623659D01*
X124186097Y-77623663D01*
X124257603Y-77777007D01*
X124285965Y-77837830D01*
X124285967Y-77837834D01*
X124394281Y-77992521D01*
X124421501Y-78031396D01*
X124421506Y-78031402D01*
X124588597Y-78198493D01*
X124588603Y-78198498D01*
X124774594Y-78328730D01*
X124818219Y-78383307D01*
X124825413Y-78452805D01*
X124793890Y-78515160D01*
X124774595Y-78531880D01*
X124588922Y-78661890D01*
X124588920Y-78661891D01*
X124421891Y-78828920D01*
X124421886Y-78828926D01*
X124286400Y-79022420D01*
X124286399Y-79022422D01*
X124186570Y-79236507D01*
X124186567Y-79236513D01*
X124129364Y-79449999D01*
X124129364Y-79450000D01*
X125026988Y-79450000D01*
X124994075Y-79507007D01*
X124960000Y-79634174D01*
X124960000Y-79765826D01*
X124994075Y-79892993D01*
X125026988Y-79950000D01*
X124129364Y-79950000D01*
X124186567Y-80163486D01*
X124186570Y-80163492D01*
X124286399Y-80377578D01*
X124421894Y-80571082D01*
X124588917Y-80738105D01*
X124774595Y-80868119D01*
X124818219Y-80922696D01*
X124825412Y-80992195D01*
X124793890Y-81054549D01*
X124774595Y-81071269D01*
X124588594Y-81201508D01*
X124421505Y-81368597D01*
X124285965Y-81562169D01*
X124285964Y-81562171D01*
X124186098Y-81776335D01*
X124186094Y-81776344D01*
X124124938Y-82004586D01*
X124124936Y-82004596D01*
X124104341Y-82239999D01*
X124104341Y-82240000D01*
X124124936Y-82475403D01*
X124124939Y-82475416D01*
X124144384Y-82547989D01*
X124142721Y-82617839D01*
X124112290Y-82667762D01*
X121160726Y-85619326D01*
X121089534Y-85725874D01*
X121040499Y-85844255D01*
X121040497Y-85844261D01*
X121015500Y-85969928D01*
X121015500Y-85969931D01*
X121015500Y-94933069D01*
X121015500Y-94933071D01*
X121015499Y-94933071D01*
X114509003Y-94933071D01*
X114535999Y-37574269D01*
X114536034Y-37573744D01*
X114536034Y-37502706D01*
X114536093Y-37499998D01*
X117029924Y-37499998D01*
X117029924Y-37500001D01*
X117050338Y-37785433D01*
X117111162Y-38065037D01*
X117111164Y-38065043D01*
X117111165Y-38065046D01*
X117180150Y-38250001D01*
X117211169Y-38333166D01*
X117348304Y-38584309D01*
X117348309Y-38584317D01*
X117519788Y-38813387D01*
X117519804Y-38813405D01*
X117722128Y-39015729D01*
X117722146Y-39015745D01*
X117951216Y-39187224D01*
X117951224Y-39187229D01*
X118202367Y-39324364D01*
X118202366Y-39324364D01*
X118202370Y-39324365D01*
X118202373Y-39324367D01*
X118470488Y-39424369D01*
X118470494Y-39424370D01*
X118470496Y-39424371D01*
X118750100Y-39485195D01*
X118750102Y-39485195D01*
X118750106Y-39485196D01*
X119003754Y-39503337D01*
X119035533Y-39505610D01*
X119035534Y-39505610D01*
X119035535Y-39505610D01*
X119064129Y-39503564D01*
X119320962Y-39485196D01*
X119600580Y-39424369D01*
X119868695Y-39324367D01*
X120119849Y-39187226D01*
X120348929Y-39015739D01*
X120551273Y-38813395D01*
X120722760Y-38584315D01*
X120859901Y-38333161D01*
X120890919Y-38249998D01*
X142194390Y-38249998D01*
X142194390Y-38250001D01*
X142214804Y-38535433D01*
X142275628Y-38815037D01*
X142375635Y-39083166D01*
X142512770Y-39334309D01*
X142512775Y-39334317D01*
X142684254Y-39563387D01*
X142684270Y-39563405D01*
X142886594Y-39765729D01*
X142886612Y-39765745D01*
X143115682Y-39937224D01*
X143115690Y-39937229D01*
X143366833Y-40074364D01*
X143366832Y-40074364D01*
X143366836Y-40074365D01*
X143366839Y-40074367D01*
X143634954Y-40174369D01*
X143634960Y-40174370D01*
X143634962Y-40174371D01*
X143914566Y-40235195D01*
X143914568Y-40235195D01*
X143914572Y-40235196D01*
X144168220Y-40253337D01*
X144199999Y-40255610D01*
X144200000Y-40255610D01*
X144200001Y-40255610D01*
X144228595Y-40253564D01*
X144485428Y-40235196D01*
X144765046Y-40174369D01*
X145033161Y-40074367D01*
X145284315Y-39937226D01*
X145513395Y-39765739D01*
X145715739Y-39563395D01*
X145887226Y-39334315D01*
X146024367Y-39083161D01*
X146124369Y-38815046D01*
X146185196Y-38535428D01*
X146205610Y-38250000D01*
X146202034Y-38199998D01*
X173744390Y-38199998D01*
X173744390Y-38200001D01*
X173764804Y-38485433D01*
X173825628Y-38765037D01*
X173825630Y-38765043D01*
X173825631Y-38765046D01*
X173843668Y-38813405D01*
X173925635Y-39033166D01*
X174062770Y-39284309D01*
X174062775Y-39284317D01*
X174234254Y-39513387D01*
X174234270Y-39513405D01*
X174436594Y-39715729D01*
X174436612Y-39715745D01*
X174665682Y-39887224D01*
X174665690Y-39887229D01*
X174916833Y-40024364D01*
X174916832Y-40024364D01*
X174916836Y-40024365D01*
X174916839Y-40024367D01*
X175184954Y-40124369D01*
X175184960Y-40124370D01*
X175184962Y-40124371D01*
X175464566Y-40185195D01*
X175464568Y-40185195D01*
X175464572Y-40185196D01*
X175718220Y-40203337D01*
X175749999Y-40205610D01*
X175750000Y-40205610D01*
X175750001Y-40205610D01*
X175778595Y-40203564D01*
X176035428Y-40185196D01*
X176315046Y-40124369D01*
X176583161Y-40024367D01*
X176834315Y-39887226D01*
X177063395Y-39715739D01*
X177265739Y-39513395D01*
X177437226Y-39284315D01*
X177574367Y-39033161D01*
X177674369Y-38765046D01*
X177735196Y-38485428D01*
X177755610Y-38200000D01*
X177735196Y-37914572D01*
X177728217Y-37882492D01*
X177674371Y-37634962D01*
X177674370Y-37634960D01*
X177674369Y-37634954D01*
X177624033Y-37499998D01*
X203494390Y-37499998D01*
X203494390Y-37500001D01*
X203514804Y-37785433D01*
X203575628Y-38065037D01*
X203575630Y-38065043D01*
X203575631Y-38065046D01*
X203644616Y-38250001D01*
X203675635Y-38333166D01*
X203812770Y-38584309D01*
X203812775Y-38584317D01*
X203984254Y-38813387D01*
X203984270Y-38813405D01*
X204186594Y-39015729D01*
X204186612Y-39015745D01*
X204415682Y-39187224D01*
X204415690Y-39187229D01*
X204666833Y-39324364D01*
X204666832Y-39324364D01*
X204666836Y-39324365D01*
X204666839Y-39324367D01*
X204934954Y-39424369D01*
X204934960Y-39424370D01*
X204934962Y-39424371D01*
X205214566Y-39485195D01*
X205214568Y-39485195D01*
X205214572Y-39485196D01*
X205468220Y-39503337D01*
X205499999Y-39505610D01*
X205500000Y-39505610D01*
X205500001Y-39505610D01*
X205528595Y-39503564D01*
X205785428Y-39485196D01*
X206065046Y-39424369D01*
X206333161Y-39324367D01*
X206584315Y-39187226D01*
X206813395Y-39015739D01*
X207015739Y-38813395D01*
X207187226Y-38584315D01*
X207324367Y-38333161D01*
X207424369Y-38065046D01*
X207467341Y-37867508D01*
X207485195Y-37785433D01*
X207485195Y-37785432D01*
X207485196Y-37785428D01*
X207503564Y-37528595D01*
X207505610Y-37500001D01*
X207505610Y-37499998D01*
X207489631Y-37276582D01*
X207485196Y-37214572D01*
X207474562Y-37165690D01*
X207424371Y-36934962D01*
X207424370Y-36934960D01*
X207424369Y-36934954D01*
X207324367Y-36666839D01*
X207244025Y-36519705D01*
X207187229Y-36415690D01*
X207187224Y-36415682D01*
X207015745Y-36186612D01*
X207015729Y-36186594D01*
X206813405Y-35984270D01*
X206813387Y-35984254D01*
X206584317Y-35812775D01*
X206584309Y-35812770D01*
X206333166Y-35675635D01*
X206333167Y-35675635D01*
X206225915Y-35635632D01*
X206065046Y-35575631D01*
X206065043Y-35575630D01*
X206065037Y-35575628D01*
X205785433Y-35514804D01*
X205500001Y-35494390D01*
X205499999Y-35494390D01*
X205214566Y-35514804D01*
X204934962Y-35575628D01*
X204666833Y-35675635D01*
X204415690Y-35812770D01*
X204415682Y-35812775D01*
X204186612Y-35984254D01*
X204186594Y-35984270D01*
X203984270Y-36186594D01*
X203984254Y-36186612D01*
X203812775Y-36415682D01*
X203812770Y-36415690D01*
X203675635Y-36666833D01*
X203575628Y-36934962D01*
X203514804Y-37214566D01*
X203494390Y-37499998D01*
X177624033Y-37499998D01*
X177574367Y-37366839D01*
X177494025Y-37219705D01*
X177437229Y-37115690D01*
X177437224Y-37115682D01*
X177265745Y-36886612D01*
X177265729Y-36886594D01*
X177063405Y-36684270D01*
X177063387Y-36684254D01*
X176834317Y-36512775D01*
X176834309Y-36512770D01*
X176583166Y-36375635D01*
X176583167Y-36375635D01*
X176449093Y-36325628D01*
X176315046Y-36275631D01*
X176315043Y-36275630D01*
X176315037Y-36275628D01*
X176035433Y-36214804D01*
X175750001Y-36194390D01*
X175749999Y-36194390D01*
X175464566Y-36214804D01*
X175184962Y-36275628D01*
X174916833Y-36375635D01*
X174665690Y-36512770D01*
X174665682Y-36512775D01*
X174436612Y-36684254D01*
X174436594Y-36684270D01*
X174234270Y-36886594D01*
X174234254Y-36886612D01*
X174062775Y-37115682D01*
X174062770Y-37115690D01*
X173925635Y-37366833D01*
X173825628Y-37634962D01*
X173764804Y-37914566D01*
X173744390Y-38199998D01*
X146202034Y-38199998D01*
X146185196Y-37964572D01*
X146153204Y-37817508D01*
X146124371Y-37684962D01*
X146124370Y-37684960D01*
X146124369Y-37684954D01*
X146024367Y-37416839D01*
X145998215Y-37368946D01*
X145887229Y-37165690D01*
X145887224Y-37165682D01*
X145715745Y-36936612D01*
X145715729Y-36936594D01*
X145513405Y-36734270D01*
X145513387Y-36734254D01*
X145284317Y-36562775D01*
X145284309Y-36562770D01*
X145033166Y-36425635D01*
X145033167Y-36425635D01*
X144925915Y-36385632D01*
X144765046Y-36325631D01*
X144765043Y-36325630D01*
X144765037Y-36325628D01*
X144485433Y-36264804D01*
X144200001Y-36244390D01*
X144199999Y-36244390D01*
X143914566Y-36264804D01*
X143634962Y-36325628D01*
X143366833Y-36425635D01*
X143115690Y-36562770D01*
X143115682Y-36562775D01*
X142886612Y-36734254D01*
X142886594Y-36734270D01*
X142684270Y-36936594D01*
X142684254Y-36936612D01*
X142512775Y-37165682D01*
X142512770Y-37165690D01*
X142375635Y-37416833D01*
X142275628Y-37684962D01*
X142214804Y-37964566D01*
X142194390Y-38249998D01*
X120890919Y-38249998D01*
X120959903Y-38065046D01*
X121002875Y-37867508D01*
X121020729Y-37785433D01*
X121020729Y-37785432D01*
X121020730Y-37785428D01*
X121039098Y-37528595D01*
X121041144Y-37500001D01*
X121041144Y-37499998D01*
X121025165Y-37276582D01*
X121020730Y-37214572D01*
X121010096Y-37165690D01*
X120959905Y-36934962D01*
X120959904Y-36934960D01*
X120959903Y-36934954D01*
X120859901Y-36666839D01*
X120779559Y-36519705D01*
X120722763Y-36415690D01*
X120722758Y-36415682D01*
X120551279Y-36186612D01*
X120551263Y-36186594D01*
X120348939Y-35984270D01*
X120348921Y-35984254D01*
X120119851Y-35812775D01*
X120119843Y-35812770D01*
X119868700Y-35675635D01*
X119868701Y-35675635D01*
X119761449Y-35635632D01*
X119600580Y-35575631D01*
X119600577Y-35575630D01*
X119600571Y-35575628D01*
X119320967Y-35514804D01*
X119035535Y-35494390D01*
X119035533Y-35494390D01*
X118750100Y-35514804D01*
X118470496Y-35575628D01*
X118202367Y-35675635D01*
X117951224Y-35812770D01*
X117951216Y-35812775D01*
X117722146Y-35984254D01*
X117722128Y-35984270D01*
X117519804Y-36186594D01*
X117519788Y-36186612D01*
X117348309Y-36415682D01*
X117348304Y-36415690D01*
X117211169Y-36666833D01*
X117111162Y-36934962D01*
X117050338Y-37214566D01*
X117029924Y-37499998D01*
X114536093Y-37499998D01*
X114536152Y-37497297D01*
X114541848Y-37366833D01*
X114552920Y-37113227D01*
X114553859Y-37102498D01*
X114603686Y-36724032D01*
X114605562Y-36713394D01*
X114612021Y-36684261D01*
X114688182Y-36340719D01*
X114690974Y-36330299D01*
X114805764Y-35966231D01*
X114809453Y-35956096D01*
X114955538Y-35603419D01*
X114960096Y-35593645D01*
X115136363Y-35255040D01*
X115141747Y-35245713D01*
X115346854Y-34923764D01*
X115353045Y-34914921D01*
X115585442Y-34612058D01*
X115592367Y-34603806D01*
X115850263Y-34322364D01*
X115857875Y-34314750D01*
X116139327Y-34056848D01*
X116147611Y-34049899D01*
X116147624Y-34049889D01*
X116450449Y-33817525D01*
X116459267Y-33811350D01*
X116781233Y-33606237D01*
X116790574Y-33600844D01*
X117129187Y-33424576D01*
X117138950Y-33420024D01*
X117491631Y-33273940D01*
X117501751Y-33270257D01*
X117865833Y-33155464D01*
X117876236Y-33152677D01*
X118248942Y-33070052D01*
X118259553Y-33068181D01*
X118638027Y-33018356D01*
X118648756Y-33017418D01*
X118986227Y-33002686D01*
X119033610Y-33000618D01*
X119039017Y-33000500D01*
X119101423Y-33000501D01*
X119101427Y-33000500D01*
X205434108Y-33000500D01*
X205497294Y-33000500D01*
X205502702Y-33000617D01*
G37*
%TD.AperFunction*%
%TD*%
M02*
